<svg id="Dreamforce_2016" data-name="Dreamforce 2016" xmlns="http://www.w3.org/2000/svg" viewBox="0 0 100 100"><defs><style>.cls-1{fill:#a4373a;}.cls-2{fill:#fff;}</style></defs><title>SVG Icon</title><g id="Microsoft_Access" data-name="Microsoft Access"><path id="path22" class="cls-1" d="M52.3,1.1h6.8V11c11-1.4,22.5-1.3,33,2.4,4,1.4,8.3,4.4,7.9,9.2q.1,26.2,0,52.4c.4,4.8-4,7.9-8,9.2C81.4,87.8,70,88.2,59.1,86.6V98.9H52c-17.3-3.2-34.7-6-52-9.1V10.2Z"/><path id="path50" class="cls-2" d="M59.1,14.5c10.1-1.4,20.7-1.4,30.6,1.7,2.7,1,6.4,2.2,7,5.5s-3.2,3.8-5.4,4.8c-10.3,3.5-21.5,3.8-32.2,2.2Q59.1,21.6,59.1,14.5Z"/><path id="path66" class="cls-2" d="M82.4,32.2c5-.7,10.2-1.8,14.3-5.1-.3,4.9.4,9.8-.3,14.7-2,2.4-5.3,3.3-8.2,4.1a81.4,81.4,0,0,1-29,1.1V32.2A91.2,91.2,0,0,0,82.4,32.2Z"/><path id="path78" class="cls-2" d="M23.2,31l7.9-.6C34.9,43.2,38.6,56,42.3,68.7l-7.9-.6c-.7-2.8-1.4-5.7-2.2-8.5l-10.5-.3-2,8.1-6.7-.5C16.4,54.9,19.9,43,23.2,31Z"/><path id="path98" class="cls-1" d="M23.3,53.1c1.1-5.3,2.9-10.5,3.6-15.9,1,5.4,2.6,10.6,3.9,16Z"/><path id="path110" class="cls-2" d="M82.4,50.4c5-.7,10.2-1.8,14.2-5.1-.2,4.9.4,9.8-.3,14.6-2,2.4-5.2,3.3-8.1,4.1a81.6,81.6,0,0,1-29.1,1.1V50.4A90.7,90.7,0,0,0,82.4,50.4Z"/><path id="path118" class="cls-2" d="M82.4,68.5c5-.7,10.2-1.8,14.2-5.1-.2,4.9.4,9.8-.3,14.7-3.2,3.5-8.3,4.1-12.7,5a83.5,83.5,0,0,1-24.5.1c.1-4.9,0-9.8,0-14.7A90.3,90.3,0,0,0,82.4,68.5Z"/></g></svg>