<!--?xml version="1.0" standalone="no"?-->

<svg version="1.0" xmlns="http://www.w3.org/2000/svg" width="300.000000pt" height="300.000000pt" viewBox="0 0 300.000000 300.000000" preserveAspectRatio="xMidYMid meet">
<g transform="translate(0.000000,300.000000) scale(0.100000,-0.100000)" fill="#050505" stroke="none">
<path d="M1040 2988 c-46 -13 -660 -621 -690 -684 -26 -54 -27 -146 -1 -200
23 -46 622 -648 673 -675 46 -25 138 -25 187 1 21 10 54 38 72 62 30 37 34 50
37 114 5 94 -13 125 -153 264 -58 57 -105 108 -105 112 0 5 321 8 714 8 506 0
723 3 747 11 49 17 96 54 127 102 54 85 28 206 -58 267 -70 50 -74 50 -833 50
l-710 0 126 129 c70 71 131 141 137 155 5 15 10 55 10 90 0 51 -5 70 -29 108
-50 79 -152 114 -251 86z" id="node1" class="node"></path>
<path d="M1798 1570 c-78 -41 -126 -133 -114 -217 8 -60 39 -103 160 -223 58
-57 106 -108 106 -112 0 -5 -321 -8 -712 -8 -440 0 -727 -4 -749 -10 -46 -13
-115 -72 -139 -121 -41 -79 -17 -177 57 -238 74 -62 67 -61 840 -61 387 0 703
-3 703 -7 0 -3 -56 -63 -124 -133 -102 -104 -126 -134 -136 -171 -45 -166 117
-314 277 -254 40 15 98 67 351 319 167 165 315 320 328 343 31 51 41 132 24
193 -11 40 -46 80 -328 363 -175 175 -334 327 -354 338 -50 25 -140 25 -190
-1z" id="node2" class="node"></path>
</g>
<g transform="translate(0.000000,300.000000) scale(0.100000,-0.100000)" fill="#A6A6A6" stroke="none">

</g>
</svg>