<?xml version="1.0" encoding="utf-8"?>
<!-- Generator: Adobe Illustrator 17.1.0, SVG Export Plug-In . SVG Version: 6.00 Build 0)  -->
<!DOCTYPE svg PUBLIC "-//W3C//DTD SVG 1.1//EN" "http://www.w3.org/Graphics/SVG/1.1/DTD/svg11.dtd">
<svg version="1.1" id="Layer_1" xmlns="http://www.w3.org/2000/svg" xmlns:xlink="http://www.w3.org/1999/xlink" x="0px" y="0px"
	 viewBox="0 0 101.3499908 27.1000004" enable-background="new 0 0 101.3499908 27.1000004" xml:space="preserve">
<path fill="#0A55A0" d="M7.7749953,22.5h12.3999996c0.1000004,0,0.1000004,0.1000004,0,0.1000004
	c-1.4999981,0.6000004-3.4999981,2.5-3.4999981,2.5c-1.4000025,1.2000008-2.500001,2-4.8000002,2H0.0749983
	c-0.0999985,0-0.0999985-0.1000004,0-0.1000004c1.2999992-0.6999989,3.2000008-2.6000004,3.2000008-2.6000004
	C4.0749984,23.6000004,5.6749969,22.5,7.7749953,22.5L7.7749953,22.5L7.7749953,22.5z"/>
<path fill="#0A55A0" d="M88.875,22.5h12.3999939c0.0999985,0,0.0999985,0.1000004,0,0.1000004
	c-1.4000015,0.6000004-3.4000015,2.5-3.4000015,2.5c-1.4000015,1.2000008-2.5,2-4.7999954,2H81.1749954
	c-0.0999985,0-0.0999985-0.1000004,0-0.1000004C82.4749985,26.3000011,84.375,24.3999996,84.375,24.3999996
	C85.2749939,23.6000004,86.875,22.5,88.875,22.5L88.875,22.5L88.875,22.5z"/>
<path fill="#0A55A0" d="M28.0749969,22.5h12.3999977c0.1000023,0,0.1000023,0.1000004,0,0.1000004
	c-1.3999977,0.6000004-3.3999977,2.5-3.3999977,2.5c-1.4000015,1.2000008-2.5,2-4.8000031,2H20.4749966
	c-0.1000004,0-0.1000004-0.1000004,0-0.1000004c1.2999992-0.6999989,3.2000008-2.6000004,3.2000008-2.6000004
	C24.3749981,23.6000004,25.9749966,22.5,28.0749969,22.5L28.0749969,22.5L28.0749969,22.5z"/>
<path fill="#0A55A0" d="M48.2749977,22.5h12.3999977c0.1000023,0,0.1000023,0.1000004,0,0.1000004
	c-1.3999977,0.6000004-3.3999977,2.5-3.3999977,2.5c-1.4000015,1.2000008-2.5,2-4.8000031,2H40.6749954
	c-0.0999985,0-0.0999985-0.1000004,0-0.1000004c1.3000031-0.6999989,3.2000008-2.6000004,3.2000008-2.6000004
	C44.6749954,23.6000004,46.2749977,22.5,48.2749977,22.5L48.2749977,22.5L48.2749977,22.5z"/>
<path fill="#0A55A0" d="M68.5749969,22.5h12.4000015c0.0999985,0,0.0999985,0.1000004,0,0.1000004
	c-1.4000015,0.6000004-3.4000015,2.5-3.4000015,2.5c-1.4000015,1.2000008-2.5,2-4.8000031,2H60.9749985
	c-0.1000023,0-0.1000023-0.1000004,0-0.1000004c1.2999992-0.6999989,3.1999969-2.6000004,3.1999969-2.6000004
	C64.9749985,23.6000004,66.5749969,22.5,68.5749969,22.5L68.5749969,22.5L68.5749969,22.5z"/>
<path fill="#E52922" d="M71.9749985,0.1000005c-7.8000031,0-12.9000015,3.6999998-12.9000015,9.3999996
	c0,5.1999998,4.7000008,8.7000008,11.8000031,8.7000008c2.2999954,0,4.2999954-0.3000011,6.6999969-0.9000015v-4.3999996
	c-1.6999969,1.8000002-3.6999969,2.5-5.9000015,2.5c-4.1999969,0-7-2.5999994-7-6.3999996
	c0-3.7000008,3-6.4000006,7.1000061-6.4000006c2.2999954,0,4.0999985,0.8000002,5.5,2.1999998V0.6000004
	C75.7749939,0.2000009,73.875,0.1000005,71.9749985,0.1000005L71.9749985,0.1000005L71.9749985,0.1000005z"/>
<path fill="#E52922" d="M13.4749956,3.1000004c2.9000025,0,6.3000002,0.5,7.8000002,1.6999998V0.6000004H0.6749967v4.1999998
	c1.4999999-1.1000004,4.5-1.6000004,7.7999988-1.6000004v11.4000006c0,1.7000008-0.0999985,2.1000004-0.900001,3h6.599998
	c-0.7000008-0.8999996-0.9000015-1.3999996-0.9000015-3v-11.5H13.4749956L13.4749956,3.1000004z"/>
<path fill="#E52922" d="M34.7749977,7.3000002c-1.2000008,0.4000001-3.2999992,0.5-4.3999996,0.5h-1.7000008v-4.5h2.2999992
	c2.1000004,0,5.6999989,0.3999996,6.9999981,1.6000004V0.6000004H23.0749969c0.7000008,0.8999997,0.7999992,1.3999996,0.7999992,3
	v11c0,1.7000008-0.1000004,2.2000008-0.7999992,3h15.8999977V13.500001c-2.1999969,1.5999994-6.2999992,1.5999994-7.9999981,1.5
	h-2.2999992v-4.6999998h1.7000008c1.2000008,0,3.1999989,0.0999994,4.3999996,0.5V7.3000002L34.7749977,7.3000002
	L34.7749977,7.3000002z"/>
<path fill="#E52922" d="M56.8749962,1.2000009c-2.2999992-0.6999999-5.5-1.1999998-7.7999992-1.1999998
	c-4.2999992,0-8.5,1.3000002-8.5,5.5999999c0,7.4000001,13,3.5000005,13,8c0,1.5-2.2999992,2.0999994-4.1000023,2.0999994
	c-3.2999992,0-5.6999969-0.5-8.5999985-2.1999998v3.6999998c2.2000008,0.7000008,5.0999985,1.1000004,8.3999977,1.1000004
	c4.5,0,8.7000008-1.2000008,8.7000008-5.5c0-7.8000011-13-4.3000002-13-8.1000004c0-1.5,2.0999985-2.1000004,3.9000015-2.1000004
	c3.0999985,0,6.3999977,0.8999996,8.1999969,2.6000004v-4H56.8749962L56.8749962,1.2000009z"/>
<path fill="#E52922" d="M83.7749939,9.2000008c0-3.6000004,2.3000031-6.5,5.8000031-6.5s5.7999954,2.9000001,5.7999954,6.5
	c0.1000061,3.5-2.1999969,6.3999996-5.6999969,6.3999996C86.0749969,15.6000004,83.7749939,12.7000008,83.7749939,9.2000008
	L83.7749939,9.2000008L83.7749939,9.2000008z M100.6749954,9.000001c0-5.4000006-4.1999969-9.000001-10.5-9.000001
	c-6.7999954,0.1000004-11.5,3.9000006-11.5,9.4000006c0,5.3000002,4.3000031,8.9000006,10.5999985,8.9000006
	C95.9749985,18.3000011,100.6749954,14.5,100.6749954,9.000001L100.6749954,9.000001L100.6749954,9.000001z"/>
</svg>
