<?xml version="1.0" standalone="yes"?>

<svg version="1.1" viewBox="0.0 0.0 192.0 192.0" fill="none" stroke="none" stroke-linecap="square" stroke-miterlimit="10" xmlns="http://www.w3.org/2000/svg" xmlns:xlink="http://www.w3.org/1999/xlink"><clipPath id="p.0"><path d="m0 0l192.0 0l0 192.0l-192.0 0l0 -192.0z" clip-rule="nonzero"></path></clipPath><g clip-path="url(#p.0)"><path fill="#000000" fill-opacity="0.0" d="m0 0l192.0 0l0 192.0l-192.0 0z" fill-rule="nonzero"></path><path fill="#cc0000" d="m-0.015748031 0l192.0 0l0 192.0l-192.0 0z" fill-rule="nonzero"></path><path fill="#ffffff" d="m64.17603 74.66375l0 2.921875q0 1.359375 -0.765625 2.46875l-21.890625 30.921875l22.125 0l0 6.34375l-32.421875 0l0 -3.125q0 -0.59375 0.203125 -1.140625q0.203125 -0.546875 0.53125 -1.015625l21.953127 -31.0625l-21.296875 0l0 -6.3125l31.5625 0zm16.034637 50.96875q-0.3125 0.78125 -0.828125 1.171875q-0.515625 0.390625 -1.578125 0.390625l-5.4375 0l5.671875 -12.109375l-12.25 -28.03125l6.375 0q0.890625 0 1.359375 0.421875q0.46875 0.40625 0.703125 0.9375l6.46875 15.6875q0.3125 0.765625 0.546875 1.59375q0.25 0.828125 0.421875 1.65625q0.234375 -0.859375 0.515625 -1.65625q0.28125 -0.796875 0.609375 -1.625l6.078125 -15.65625q0.234375 -0.59375 0.78125 -0.96875q0.546875 -0.390625 1.21875 -0.390625l5.84375 0l-16.5 38.578125zm20.558716 -8.3125l0 -30.265625l4.453125 0q1.421875 0 1.859375 1.328125l0.5 2.390625q0.921875 -0.953125 1.9375 -1.71875q1.015625 -0.765625 2.15625 -1.328125q1.140625 -0.5625 2.4375 -0.84375q1.296875 -0.296875 2.828125 -0.296875q2.46875 0 4.390625 0.84375q1.921875 0.828125 3.203125 2.359375q1.28125 1.515625 1.9375 3.625q0.671875 2.109375 0.671875 4.640625l0 19.265625l-7.28125 0l0 -19.265625q0 -2.765625 -1.296875 -4.28125q-1.28125 -1.53125 -3.84375 -1.53125q-1.890625 0 -3.546875 0.859375q-1.640625 0.859375 -3.109375 2.328125l0 21.890625l-7.296875 0zm40.72106 -43.84375l0 25.109375l1.359375 0q0.734375 0 1.140625 -0.203125q0.421875 -0.203125 0.890625 -0.765625l7.53125 -9.296875q0.5 -0.59375 1.0625 -0.921875q0.5625 -0.34375 1.46875 -0.34375l6.671875 0l-9.40625 11.234375q-0.515625 0.625 -1.046875 1.140625q-0.53125 0.515625 -1.140625 0.90625q0.609375 0.4375 1.078125 1.03125q0.484375 0.578125 0.953125 1.265625l10.09375 14.6875l-6.578125 0q-0.859375 0 -1.453125 -0.296875q-0.578125 -0.296875 -1.0625 -1.0l-7.6875 -11.484375q-0.453125 -0.671875 -0.890625 -0.875q-0.4375 -0.203125 -1.328125 -0.203125l-1.65625 0l0 13.859375l-7.28125 0l0 -43.84375l7.28125 0z" fill-rule="nonzero"></path><path fill="#000000" fill-opacity="0.0" d="m1.5511811 140.41733l192.0 0l0 37.480316l-192.0 0z" fill-rule="nonzero"></path></g></svg>

