<?xml version="1.0" standalone="no"?><!-- Generator: Gravit.io --><svg xmlns="http://www.w3.org/2000/svg" xmlns:xlink="http://www.w3.org/1999/xlink" style="isolation:isolate" viewBox="0 0 500 500" width="500" height="500"><rect x="0" y="0" width="500" height="500" transform="matrix(1,0,0,1,0,0)" fill="rgb(204,0,0)"/><path d=" M 83.28683840928204 207.8958949345714 L 158.47258402184866 207.8958949345714 L 113.00761912858093 277.9138080145525 L 158.47258402184866 277.9138080145525 L 158.47258402184866 293.7845349793482 L 83.22666676522897 293.7845349793482 L 128.3182027887368 223.76662189936712 L 83.28683840928204 223.76662189936712 L 83.28683840928204 207.8958949345714 Z " fill="rgb(255,255,255)"/><path d=" M 228.39713988438973 207.8958949345714 L 247.53536945958456 207.8958949345714 L 203.87941946019475 293.7845349793482 L 187.19962092269463 293.7845349793482 L 197.02911482455818 275.3931631436732 L 163.79394541592717 207.8958949345714 L 183.11888942600194 207.8958949345714 L 206.27147935111577 256.34829078591827 L 228.39713988438973 207.8958949345714 Z " fill="rgb(255,255,255)"/><path d=" M 270.8933452630665 207.8958949345714 L 270.8933452630665 218.8186893750484 Q 282.28292579074355 206.21546502065178 296.7532944939396 206.21546502065178 Q 304.7820151937774 206.21546502065178 311.6904492843355 210.36986119673065 Q 318.59888337489383 214.52425737280953 322.19313624633264 221.75944172440768 Q 325.7873891177717 228.99462607600572 325.7873891177717 244.6786386059215 L 325.7873891177717 293.7845349793482 L 308.7963755436963 293.7845349793482 L 308.7963755436963 244.86535304080144 Q 308.7963755436963 231.70198538176498 304.7820151937774 226.05387372664643 Q 300.7676548438585 220.405762071528 291.3385758824211 220.405762071528 Q 279.2954948326644 220.405762071528 270.8933452630665 232.44884312128477 L 270.8933452630665 293.7845349793482 L 253.52890281923123 293.7845349793482 L 253.52890281923123 207.8958949345714 L 270.8933452630665 207.8958949345714 Z " fill="rgb(255,255,255)"/><path d=" M 333.96548136551337 207.54113750829947 L 350.95649493958877 207.54113750829947 L 350.95649493958877 293.7845349793482 L 333.96548136551337 293.7845349793482 L 333.96548136551337 207.54113750829947 Z " fill="rgb(255,255,255)"/><path d=" M 393.99999999999994 207.54113750829947 L 415.7380892157525 207.54113750829947 L 372.99999999999994 250 L 416.7733332347711 293.7845349793482 L 393.99999999999994 293.7845349793482 L 350.99999999999994 250.28007165231963 L 393.99999999999994 207.54113750829947 Z " fill="rgb(255,255,255)"/></svg>