<?xml version="1.0" encoding="UTF-8"?>
<!DOCTYPE svg PUBLIC "-//W3C//DTD SVG 1.1//EN" "http://www.w3.org/Graphics/SVG/1.1/DTD/svg11.dtd">
<svg version="1.1" xmlns="http://www.w3.org/2000/svg" xmlns:xlink="http://www.w3.org/1999/xlink" x="0" y="0" width="3157" height="938" viewBox="0, 0, 3157, 938">
  <g id="Layer_1">
    <path d="M3156.87,937.542 L0.13,937.542 L0.13,0.458 L3156.87,0.458 L3156.87,937.542" fill="#FFFFFE"/>
    <path d="M1737.55,164.661 C1734.03,159.639 1727.11,158.415 1722.08,161.939 L1605.19,243.783 C1601.89,246.023 1597.9,247.331 1593.61,247.331 L1593.59,247.327 C1589.3,247.329 1585.31,246.021 1582.01,243.779 L1465.12,161.936 C1460.09,158.413 1453.17,159.637 1449.65,164.658 C1448.33,166.551 1447.67,168.71 1447.64,170.855 L1447.64,346.322 L1447.61,346.329 L1447.62,346.332 C1447.62,352.465 1452.58,357.436 1458.73,357.434 L1458.74,357.436 L1458.74,357.434 L1728.46,357.434 C1734.59,357.432 1739.56,352.465 1739.56,346.324 L1739.56,170.859 C1739.52,168.714 1738.87,166.553 1737.55,164.661" fill="#349DCC"/>
    <path d="M1458.73,357.433 L1458.74,357.436 L1458.74,357.433 L1728.46,357.433 C1734.59,357.432 1739.56,352.464 1739.56,346.324 L1739.56,170.858 C1739.52,168.713 1738.87,166.553 1737.55,164.661 C1734.03,159.639 1727.11,158.415 1722.08,161.938 L1449.64,352.705 C1451.64,355.562 1454.96,357.435 1458.73,357.433" fill="#75C8DC"/>
    <path d="M1327.38,451.128 C1314.27,451.128 1304.18,453.943 1304.18,466.066 L1304.18,477.928 C1304.18,490.037 1314.27,493.179 1327.38,493.179 C1340.52,493.179 1350.61,490.037 1350.61,477.928 L1350.61,466.066 C1350.61,453.943 1340.52,451.128 1327.38,451.128" fill="#2B2F33"/>
    <path d="M1336.82,516.902 L1318.31,516.902 C1312.18,516.902 1307.2,521.868 1307.2,528.008 L1307.2,686.982 C1307.2,693.109 1312.18,698.102 1318.31,698.102 L1336.82,698.102 C1342.94,698.102 1347.92,693.109 1347.92,686.982 L1347.92,528.008 C1347.92,521.868 1342.94,516.902 1336.82,516.902" fill="#2B2F33"/>
    <path d="M796.434,515.052 C769.516,515.052 750.661,526.823 736.538,545.671 C727.127,526.823 708.949,515.052 683.375,515.052 C656.125,515.052 640.652,529.859 629.208,545.671 L629.201,527.995 C629.201,521.87 624.235,516.903 618.089,516.903 L599.599,516.903 C593.466,516.903 588.493,521.87 588.493,527.995 L588.493,686.982 C588.493,693.122 593.466,698.102 599.599,698.102 L618.089,698.102 C624.235,698.102 629.201,693.122 629.201,686.982 L629.208,596.154 C629.208,568.898 644.68,552.059 667.231,552.059 C689.769,552.059 703.227,567.544 703.227,595.14 L703.227,686.982 C703.227,693.122 708.206,698.102 714.339,698.102 L732.836,698.102 C738.969,698.102 743.942,693.122 743.942,686.982 L743.942,596.154 C743.942,567.544 759.753,552.059 781.964,552.059 C804.841,552.059 817.961,567.218 817.961,595.464 L817.974,686.982 C817.974,693.122 822.94,698.102 829.067,698.102 L847.569,698.102 C853.702,698.102 858.675,693.122 858.675,686.982 L858.675,583.016 C858.675,539.609 835.128,515.052 796.434,515.052" fill="#2B2F33"/>
    <path d="M2514,451.128 C2500.89,451.128 2490.78,453.943 2490.78,466.066 L2490.78,477.928 C2490.78,490.037 2500.89,493.179 2514,493.179 C2527.14,493.179 2537.23,490.037 2537.23,477.928 L2537.23,466.066 C2537.23,453.943 2527.14,451.128 2514,451.128" fill="#2B2F33"/>
    <path d="M2523.44,516.902 L2504.93,516.902 C2498.8,516.902 2493.83,521.868 2493.83,528.008 L2493.83,686.982 C2493.83,693.109 2498.8,698.102 2504.93,698.102 L2523.44,698.102 C2529.57,698.102 2534.52,693.109 2534.52,686.982 L2534.52,528.008 C2534.52,521.868 2529.57,516.902 2523.44,516.902" fill="#2B2F33"/>
    <path d="M281.214,498.353 C298.928,498.353 315.672,503.999 329.658,514.635 C331.528,516.068 333.771,516.825 336.13,516.825 C338.978,516.825 341.657,515.716 343.684,513.695 L357.924,499.461 C360.062,497.311 361.203,494.34 361.04,491.302 C360.87,488.277 359.417,485.449 357.038,483.547 C335.38,466.21 309.154,457.047 281.214,457.047 C214.168,457.047 159.61,511.585 159.61,578.648 C159.61,645.701 214.168,700.253 281.214,700.253 C309.154,700.253 335.374,691.076 357.031,673.753 C359.404,671.862 360.864,669.021 361.02,666.01 C361.19,662.959 360.049,659.987 357.911,657.851 L343.671,643.615 C341.637,641.607 338.959,640.5 336.104,640.5 C333.751,640.5 331.522,641.229 329.645,642.664 C315.652,653.3 298.915,658.932 281.214,658.932 C236.953,658.932 200.931,622.93 200.931,578.648 C200.931,534.37 236.953,498.353 281.214,498.353" fill="#2B2F33"/>
    <path d="M1507.1,608.068 C1507.1,642.05 1483.75,664.953 1457.17,664.953 C1430.25,664.953 1409.12,643.068 1409.12,608.068 L1409.12,607.391 C1409.12,573.083 1430.59,550.545 1457.17,550.545 C1483.75,550.545 1507.1,573.422 1507.1,607.391 L1507.1,608.068 z M1540.4,516.902 L1521.91,516.902 C1515.77,516.902 1510.79,521.868 1510.79,528.008 L1510.79,545.826 C1497.68,527.316 1479.17,515.208 1450.23,515.208 C1408.5,515.208 1367.8,548.186 1367.8,607.391 L1367.8,608.068 C1367.8,666.946 1408.16,700.266 1450.23,700.266 C1479.82,700.266 1498.33,686.674 1510.79,670.183 L1511.12,669.764 L1511.12,686.214 C1511.12,716.833 1487.47,744.872 1454.5,744.872 C1434.24,744.872 1415.67,735.485 1406.37,719.701 C1403.19,714.487 1396.39,712.805 1391.15,715.985 L1383.33,721.174 C1378.07,724.354 1376.39,731.198 1379.56,736.451 C1394.85,761.438 1421.96,778.07 1456.28,778.07 C1515.17,778.07 1551.5,736.021 1551.5,685.549 L1551.5,528.008 C1551.5,521.868 1546.53,516.902 1540.4,516.902" fill="#2B2F33"/>
    <path d="M2402.01,515.208 C2374.4,515.208 2357.92,529.208 2346.48,545.67 L2346.48,527.995 C2346.48,521.87 2341.5,516.903 2335.37,516.903 L2316.86,516.903 C2310.76,516.903 2305.78,521.87 2305.78,527.995 L2305.78,686.982 C2305.78,693.122 2310.76,698.102 2316.86,698.102 L2335.37,698.102 C2341.5,698.102 2346.48,693.122 2346.48,685.313 L2346.48,589.586 C2346.48,568.023 2363.96,550.545 2385.52,550.545 C2407.08,550.545 2424.56,568.023 2424.56,589.586 L2424.56,686.982 C2424.56,693.122 2429.54,698.102 2435.64,698.102 L2454.15,698.102 C2460.27,698.102 2465.25,693.122 2465.25,686.982 L2465.25,583.172 C2465.25,542.125 2442.02,515.208 2402.01,515.208" fill="#2B2F33"/>
    <path d="M1676.3,515.208 C1648.69,515.208 1632.21,529.208 1620.77,545.67 L1620.77,527.995 C1620.77,521.87 1615.79,516.903 1609.67,516.903 L1591.16,516.903 C1585.05,516.903 1580.08,521.87 1580.08,527.995 L1580.08,686.982 C1580.08,693.122 1585.05,698.102 1591.16,698.102 L1609.67,698.102 C1615.79,698.102 1620.77,693.122 1620.77,685.313 L1620.77,589.586 C1620.77,568.023 1638.25,550.545 1659.81,550.545 C1681.37,550.545 1698.85,568.023 1698.85,589.586 L1698.85,686.982 C1698.85,693.122 1703.83,698.102 1709.93,698.102 L1728.44,698.102 C1734.57,698.102 1739.55,693.122 1739.55,686.982 L1739.55,583.172 C1739.55,542.125 1716.32,515.208 1676.3,515.208" fill="#2B2F33"/>
    <path d="M2992.81,517.3 C2992.31,517.068 2991.89,516.919 2991.65,516.833 C2991.2,516.711 2990.73,516.599 2990.23,516.498 C2986.44,515.646 2982.52,515.208 2978.48,515.208 C2957.26,515.208 2938.92,527.588 2930.31,545.518 L2930.31,528.008 C2930.31,521.869 2925.34,516.903 2919.21,516.903 L2900.7,516.903 C2894.6,516.903 2889.59,521.869 2889.59,528.008 L2889.59,686.997 C2889.59,693.122 2894.6,698.102 2900.7,698.102 L2919.21,698.102 C2925.34,698.102 2930.31,693.122 2930.31,686.997 L2930.31,619.695 C2930.31,565.354 2958.68,555.576 2975.05,556.906 C2978.26,557.167 2981.07,557.599 2983.47,557.924 C2983.47,557.924 2984.36,558.024 2984.84,558.058 C2985.07,558.078 2985.3,558.088 2985.53,558.088 C2989.34,558.088 2992.51,555.383 2993.23,551.786 L2997.32,525.643 C2997.38,525.255 2997.41,524.857 2997.41,524.453 C2997.41,521.276 2995.52,518.534 2992.81,517.3" fill="#2B2F33"/>
    <path d="M2244.08,607.828 L2244.08,608.395 C2244.08,639.465 2222.45,664.596 2190.86,664.937 C2159.28,664.596 2137.65,639.465 2137.65,608.395 L2137.65,607.262 C2137.65,576.19 2159.28,551.06 2190.86,550.72 C2222.45,551.06 2244.08,576.19 2244.08,607.262 L2244.08,607.828 z M2190.86,515.208 C2136.35,515.208 2096.33,556.595 2096.33,607.392 L2096.33,608.265 C2096.33,659.062 2136.35,700.448 2190.86,700.448 C2245.38,700.448 2285.39,659.062 2285.39,608.265 L2285.39,607.392 C2285.39,556.595 2245.38,515.208 2190.86,515.208" fill="#2B2F33"/>
    <path d="M2827.16,607.828 L2827.16,608.395 C2827.16,639.465 2805.53,664.596 2773.95,664.937 C2742.36,664.596 2720.73,639.465 2720.73,608.395 L2720.73,607.262 C2720.73,576.19 2742.36,551.06 2773.95,550.72 C2805.53,551.06 2827.16,576.19 2827.16,607.262 L2827.16,607.828 z M2773.95,515.208 C2719.43,515.208 2679.42,556.595 2679.42,607.392 L2679.42,608.265 C2679.42,659.062 2719.43,700.448 2773.95,700.448 C2828.46,700.448 2868.48,659.062 2868.48,608.265 L2868.48,607.392 C2868.48,556.595 2828.46,515.208 2773.95,515.208" fill="#2B2F33"/>
    <path d="M2064.15,459.535 L2045.58,459.535 C2041.93,459.535 2038.75,461.31 2036.69,464.007 L1960.19,568.516 L1883.69,464.007 C1881.63,461.31 1878.45,459.535 1874.8,459.535 L1856.23,459.535 C1850.11,459.535 1845.13,464.516 1845.13,470.655 L1845.13,686.982 C1845.13,693.122 1850.11,698.102 1856.23,698.102 L1874.74,698.102 C1880.87,698.102 1885.85,693.122 1885.85,686.982 L1885.85,536.924 L1953.42,623.62 C1953.47,623.685 1953.53,623.75 1953.58,623.802 L1954.13,624.492 L1954.15,624.492 C1955.64,626.159 1957.77,627.227 1960.19,627.229 C1962.61,627.227 1964.74,626.159 1966.23,624.492 L1966.26,624.492 L1966.8,623.802 C1966.85,623.75 1966.91,623.685 1966.96,623.62 L2034.53,536.924 L2034.53,686.982 C2034.53,693.122 2039.51,698.102 2045.64,698.102 L2064.15,698.102 C2070.27,698.102 2075.25,693.122 2075.25,686.982 L2075.25,470.655 C2075.25,464.516 2070.27,459.535 2064.15,459.535" fill="#2B2F33"/>
    <path d="M1960.2,627.23 L1960.19,627.229 L1960.18,627.23 L1960.2,627.23" fill="#2B2F33"/>
    <path d="M1029.64,608.069 C1029.64,642.052 1006.29,664.953 979.71,664.953 C952.785,664.953 931.651,643.069 931.651,608.069 L931.651,607.392 C931.651,573.083 953.13,550.547 979.71,550.547 C1006.29,550.547 1029.64,573.424 1029.64,607.392 L1029.64,608.069 z M988.523,515.208 C959.592,515.208 941.082,527.161 927.963,545.671 L927.963,528.008 C927.963,521.869 922.99,516.903 916.85,516.903 L898.354,516.903 C892.221,516.903 887.248,521.869 887.248,528.008 L887.248,761.349 C887.248,767.487 892.221,772.479 898.354,772.479 L916.85,772.479 C922.99,772.479 927.963,767.487 927.963,761.349 L927.963,669.765 C940.418,686.255 958.927,700.267 988.523,700.267 C1030.59,700.267 1070.96,666.948 1070.96,608.069 L1070.96,607.392 C1070.96,548.187 1030.25,515.208 988.523,515.208" fill="#2B2F33"/>
    <path d="M509.449,608.068 C509.449,642.052 486.104,664.953 459.524,664.953 C432.599,664.953 411.465,643.068 411.465,608.068 L411.465,607.391 C411.465,573.083 432.944,550.547 459.524,550.547 C486.104,550.547 509.449,573.424 509.449,607.391 L509.449,608.068 z M561.645,669.333 L561.643,669.335 L561.644,669.333 C557.303,669.336 553.794,665.82 553.794,661.487 L553.794,528.008 C553.794,521.869 548.821,516.903 542.689,516.903 L524.192,516.903 C518.059,516.903 513.086,521.869 513.086,528.008 L513.086,545.671 C499.96,527.161 481.45,515.208 452.513,515.208 C410.794,515.208 370.079,548.187 370.079,607.391 L370.079,608.068 C370.079,666.948 410.455,700.265 452.513,700.265 C482.995,700.265 504.503,686.594 513.752,669.766 C518.404,686.122 533.457,698.104 551.307,698.104 L551.307,698.102 L561.643,698.104 C565.976,698.104 569.491,694.593 569.491,690.255 L569.492,677.182 C569.492,672.848 565.983,669.333 561.645,669.333" fill="#2B2F33"/>
    <path d="M1227.7,608.068 C1227.7,642.052 1204.36,664.953 1177.78,664.953 C1150.85,664.953 1129.72,643.068 1129.72,608.068 L1129.72,607.391 C1129.72,573.083 1151.2,550.547 1177.78,550.547 C1204.36,550.547 1227.7,573.424 1227.7,607.391 L1227.7,608.068 z M1279.9,669.333 L1279.9,669.335 L1279.9,669.333 C1275.56,669.336 1272.05,665.82 1272.05,661.487 L1272.05,528.008 C1272.05,521.869 1267.07,516.903 1260.94,516.903 L1242.44,516.903 C1236.31,516.903 1231.34,521.869 1231.34,528.008 L1231.34,545.671 C1218.21,527.161 1199.7,515.208 1170.77,515.208 C1129.05,515.208 1088.33,548.187 1088.33,607.391 L1088.33,608.068 C1088.33,666.948 1128.71,700.265 1170.77,700.265 C1201.25,700.265 1222.76,686.594 1232,669.766 C1236.66,686.122 1251.71,698.104 1269.56,698.104 L1269.56,698.102 L1279.9,698.104 C1284.23,698.104 1287.74,694.593 1287.74,690.255 L1287.74,677.182 C1287.74,672.848 1284.23,669.333 1279.9,669.333" fill="#2B2F33"/>
    <path d="M2659.27,516.902 L2620.6,516.902 L2620.6,467.311 C2620.59,465.775 2620.13,464.225 2619.18,462.87 C2616.7,459.318 2611.81,458.456 2608.25,460.943 L2608.25,460.945 L2588.92,474.513 C2583.46,478.233 2579.88,484.499 2579.88,491.599 L2579.88,516.902 L2566.77,516.902 C2560.64,516.902 2555.64,521.883 2555.64,527.997 L2555.64,539.44 C2555.64,545.578 2560.64,550.545 2566.77,550.545 L2579.88,550.545 L2579.88,648.295 C2579.88,687.321 2601.05,700.448 2631.03,700.448 C2646.91,700.448 2663.23,694.31 2663.23,694.31 C2663.23,694.31 2668.76,692.652 2667.35,686.214 C2666.88,683.998 2664.11,668.786 2664.11,668.786 C2663.44,665.045 2661.9,662.112 2656.61,662.907 C2654,663.324 2649.07,664.105 2642.45,664.105 C2628.66,664.066 2620.6,657.719 2620.6,641.896 L2620.6,550.545 L2659.27,550.545 C2665.42,550.545 2670.37,545.578 2670.37,539.44 L2670.37,527.997 C2670.37,521.883 2665.42,516.902 2659.27,516.902" fill="#2B2F33"/>
  </g>
</svg>
