<?xml version="1.0" encoding="utf-8"?>
<!-- Generator: Adobe Illustrator 20.1.0, SVG Export Plug-In . SVG Version: 6.00 Build 0)  -->
<svg version="1.1" xmlns="http://www.w3.org/2000/svg" xmlns:xlink="http://www.w3.org/1999/xlink" x="0px" y="0px"
	 viewBox="0 0 259 130" style="enable-background:new 0 0 259 130;" xml:space="preserve">
<style type="text/css">
	.st0{display:none;}
	.st1{display:inline;fill:#FFFFFF;}
	.st2{display:inline;}
	.st3{fill:#0095AC;}
	.st4{fill:#276092;}
	.st5{fill:#231F20;}
	.st6{fill:#00528C;}
	.st7{fill:#00A7E1;}
	.st8{fill:#494341;}
	.st9{fill:#F59E0D;}
	.st10{fill:url(#SVGID_1_);}
	.st11{fill:url(#SVGID_2_);}
	.st12{fill:url(#SVGID_3_);}
	.st13{fill:url(#SVGID_4_);}
	.st14{fill:#235BA6;}
	.st15{fill:none;}
	.st16{fill:#004463;}
	.st17{fill:#00ACDB;}
	.st18{fill:#4DA32F;}
	.st19{fill:#FFFFFF;}
	.st20{fill:#1D1D1B;}
	.st21{fill:#D20A11;}
	.st22{fill:#77787B;}
	.st23{fill:#EB6625;}
	.st24{fill:#8DBF43;}
	.st25{fill:#27AAE2;}
	.st26{fill:#FBC013;}
	.st27{fill:url(#SVGID_5_);}
	.st28{fill:url(#SVGID_6_);}
	.st29{fill:url(#SVGID_7_);}
	.st30{fill:url(#SVGID_8_);}
	.st31{clip-path:url(#SVGID_10_);fill:#0067B1;}
	.st32{clip-path:url(#SVGID_10_);}
</style>
<g id="Layer_2" class="st0">
	<rect x="-2.3" class="st1" width="259" height="130"/>
</g>
<g id="Layer_1" class="st0">
	<g class="st2">
		<path class="st3" d="M132.1,48.7c0.9-0.6,2.5-1.9,3.2-2.5c5.7-4.6,4.6-6.8,0.5-8.8c-3.1-1.5-12.6-4.2-3.2-7
			C149.8,25.2,202,28,202,28s-52.2,1.3-50.4,4.7c0.7,1.4,9.3,3.9,13.3,6.1c3.6,2,2.7,5.9-11.5,8.2C142.6,48.9,132.1,48.7,132.1,48.7
			z"/>
		<g>
			<path class="st4" d="M111.8,50.4h9.4l-1,4.6h0.1c1.4-2,2.9-3.4,4.7-4.2c1.8-0.8,3.7-1.1,5.7-1.1l-1.9,8.9c-2.8-0.1-5,0.2-6.4,1
				c-1.4,0.8-2.4,1.9-3,3.2c-0.6,1.3-1,2.6-1.2,3.8l-4.1,19.4h-9.9L111.8,50.4z"/>
			<path class="st4" d="M141.6,50.4L134,86h-9.9l7.6-35.6H141.6z"/>
			<polygon class="st4" points="144,86 142.1,50.4 152.2,50.4 151.5,77.1 151.7,77.1 162.6,50.4 172.3,50.4 154.9,86 			"/>
			<path class="st4" d="M177.1,64.2h9.1c0.3-1.2,0.5-2.4,0.6-3.7c0.1-1.3,0-2.4-0.5-3.3c-0.5-0.9-1.4-1.4-3-1.4
				c-1.5,0-2.7,0.5-3.5,1.5c-0.8,1-1.5,2.1-1.9,3.4C177.6,62,177.3,63.2,177.1,64.2z M194.9,69.8h-19c-0.3,1.5-0.6,3-0.8,4.6
				c-0.2,1.6-0.1,3,0.3,4.1c0.4,1.1,1.3,1.7,2.7,1.8c1.7-0.1,3-0.8,3.9-2.1c0.9-1.3,1.4-2.7,1.7-4.3h10.1c-1,3.9-2.9,7-5.8,9.2
				c-2.8,2.2-6.6,3.4-11.2,3.4c-4.2,0-7.2-0.8-8.9-2.4c-1.8-1.6-2.7-3.8-2.7-6.6c-0.1-2.8,0.3-6.1,1.2-9.9c0.6-3.3,1.6-6.3,2.8-9
				c1.2-2.7,3-4.9,5.5-6.5c2.4-1.6,5.8-2.5,10.1-2.5c4.4,0,7.5,0.9,9.2,2.7c1.8,1.7,2.6,4.1,2.6,7.1C196.4,62.5,195.9,66,194.9,69.8
				z"/>
			<path class="st4" d="M200.6,50.4h9.4l-1,4.6h0.1c1.4-2,2.9-3.4,4.7-4.2c1.8-0.8,3.7-1.1,5.7-1.1l-1.9,8.9c-2.8-0.1-5,0.2-6.4,1
				c-1.4,0.8-2.4,1.9-3,3.2c-0.6,1.3-1,2.6-1.2,3.8L203,85.9H193L200.6,50.4z"/>
		</g>
		<g>
			<path class="st3" d="M48.6,74.2l1.4-6.5c-2.1,0-4.3,0.1-6.7,0.3c-2.4,0.2-4.5,0.8-6.4,2c-1.9,1.1-3.2,3.1-3.9,5.9
				c-0.4,2.1-0.3,3.8,0.5,5.2c0.8,1.4,2.2,2.1,4.4,2.2c2.5-0.1,4.8-1,6.8-2.8C46.7,78.7,48,76.6,48.6,74.2z M46.4,85.9l0.9-4.4h-0.1
				c-3,3.4-6.7,5.1-11.2,5.1c-3.2,0-5.4-1-6.7-2.9c-1.3-1.9-1.6-4.4-0.9-7.6c0.7-3.1,1.9-5.4,3.6-7c1.7-1.6,3.6-2.7,5.8-3.3
				c2.2-0.6,4.4-1,6.7-1.1c2.3-0.1,4.3-0.2,6.2-0.3l0.6-3c0.6-2.6,0.6-4.7-0.2-6.1c-0.7-1.5-2.5-2.2-5.2-2.2c-2,0-3.7,0.5-5.3,1.5
				c-1.5,1-2.5,2.5-3,4.6h-4.5c1-3.4,2.7-5.8,5.3-7.3c2.5-1.5,5.4-2.2,8.6-2.2c1.3-0.1,2.7,0.1,4.4,0.4c1.6,0.3,3,1.2,4,2.5
				c1,1.3,1.3,3.5,0.7,6.5L52.2,77c-0.3,1.2-0.5,2.5-0.8,3.9c-0.2,1.4-0.5,3.1-0.7,5.1H46.4z"/>
			<path class="st3" d="M61,65l-1.3,6.3c-0.8,4-0.7,7.1,0.4,9c1.1,2,2.6,3,4.6,2.9c3.4,0,5.9-1.4,7.5-4.1c1.6-2.7,2.9-6.4,3.7-11.1
				c0.7-3.1,1.1-5.8,1.2-8c0.1-2.3-0.3-4-1.2-5.2c-0.9-1.2-2.5-1.8-4.8-1.9c-1,0-2.1,0.4-3.4,1.1c-1.3,0.8-2.6,2-3.8,3.8
				C62.6,59.7,61.7,62.1,61,65z M64,50.4l-0.9,4.3l0.2-0.1c1.5-1.7,3.2-3,4.9-3.8c1.7-0.8,3.3-1.2,4.8-1.2c3.6,0.1,6,1,7.3,2.7
				c1.2,1.7,1.8,3.7,1.7,5.9c-0.1,2.2-0.4,4.1-0.8,5.8l-1.7,8c-0.9,4.7-2.6,8.2-5,10.8c-2.4,2.5-5.9,3.8-10.4,3.9
				c-1.3,0-2.5-0.3-3.6-1.1c-1.1-0.7-2-1.9-2.8-3.6L57.4,82l-3.7,17.5h-4.2l10.4-49H64z"/>
			<path class="st3" d="M87,65l-1.3,6.3c-0.8,4-0.7,7.1,0.4,9c1.1,2,2.6,3,4.6,2.9c3.4,0,5.9-1.4,7.5-4.1c1.6-2.7,2.9-6.4,3.8-11.1
				c0.7-3.1,1.1-5.8,1.2-8c0.1-2.3-0.3-4-1.2-5.2c-0.9-1.2-2.5-1.8-4.8-1.9c-1,0-2.1,0.4-3.4,1.1c-1.3,0.8-2.6,2-3.8,3.8
				C88.6,59.7,87.7,62.1,87,65z M90,50.4l-0.9,4.3l0.2-0.1c1.5-1.7,3.2-3,4.9-3.8c1.7-0.8,3.3-1.2,4.8-1.2c3.6,0.1,6,1,7.3,2.7
				c1.2,1.7,1.8,3.7,1.7,5.9c-0.1,2.2-0.4,4.1-0.8,5.8l-1.7,8c-0.9,4.7-2.6,8.2-5,10.8c-2.4,2.5-5.9,3.8-10.4,3.9
				c-1.3,0-2.5-0.3-3.6-1.1c-1.1-0.7-2-1.9-2.8-3.6L83.4,82l-3.7,17.5h-4.2l10.4-49H90z"/>
		</g>
		<g>
			<path class="st4" d="M215.9,79.2c2,0,3.7,1.7,3.7,3.7c0,2.1-1.6,3.7-3.7,3.7c-2,0-3.7-1.6-3.7-3.7
				C212.2,80.9,213.8,79.2,215.9,79.2L215.9,79.2z M215.9,79.8c-1.6,0-3,1.4-3,3.2c0,1.8,1.3,3.2,3,3.2c1.7,0,3-1.4,3-3.2
				C218.9,81.2,217.5,79.8,215.9,79.8L215.9,79.8z M215.2,85.1h-0.7V81c0.3,0,0.7-0.1,1.2-0.1c0.6,0,1,0.1,1.3,0.3
				c0.2,0.2,0.4,0.5,0.4,0.9c0,0.5-0.4,0.9-0.8,1v0c0.4,0.1,0.6,0.4,0.7,1c0.1,0.6,0.2,0.9,0.3,1h-0.7c-0.1-0.1-0.2-0.5-0.3-1.1
				c-0.1-0.5-0.4-0.7-0.9-0.7h-0.5V85.1z M215.2,82.8h0.5c0.5,0,1-0.2,1-0.7c0-0.4-0.3-0.7-1-0.7c-0.2,0-0.4,0-0.5,0V82.8z"/>
		</g>
	</g>
</g>
<g id="Layer_3" class="st0">
	<g class="st2">
		<path class="st5" d="M104.9,59.7c-6.4,0-11,4.5-11,11.1c0,6.7,4.9,11.1,12,11.1c2.1,0,4-0.4,5.6-1l3-5l-0.4-0.2
			c-2.6,1.4-5.3,2.1-7.8,2.1c-3.6,0-6.8-1.9-7.2-5h16.1v-1.5C115.3,63.8,110.9,59.7,104.9,59.7z M99.2,68.7c0.4-3,2.3-5,5.5-5
			c3.3,0,5.3,1.9,5.4,5H99.2z M214.9,59.7c-6.4,0-11.1,4.5-11.1,11.1c0,6.7,4.9,11.1,12,11.1c2.1,0,4-0.4,5.6-1l3-5l-0.4-0.2
			c-2.6,1.4-5.3,2.1-7.8,2.1c-3.6,0-6.8-1.9-7.2-5h16.1C226,64.4,221.5,59.7,214.9,59.7z M209.1,68.7c0.4-3,2.3-5,5.5-5
			c3.3,0,5.3,1.9,5.4,5H209.1z M140.9,59.7c-6.4,0-11,4.5-11,11.1c0,6.7,4.9,11.1,12,11.1c2.1,0,4-0.4,5.7-1l3-5l-0.4-0.2
			c-2.6,1.4-5.3,2.1-7.8,2.1c-3.6,0-6.8-1.9-7.2-5h16.1C152,64.4,147.6,59.7,140.9,59.7z M135.2,68.7c0.4-3,2.3-5,5.5-5
			c3.3,0,5.3,1.9,5.4,5H135.2z M31.6,64.9L31.6,64.9c3.2-1.1,5.4-3.4,5.4-6.9c0-5.7-4.9-7.8-9.6-7.8H16.1v0h-4.5v0.5l1.6,1.4
			c1.9,1.6,2.2,1.9,2.2,3.3v26.1h11.3c5.9,0,11.8-2.1,11.8-8.9C38.4,68.5,35.5,65.4,31.6,64.9z M20.9,54.9h4.6c3.1,0,4.1,0.4,5,1.3
			c0.7,0.7,1,1.6,1,2.7c0,1-0.3,1.9-1.1,2.6c-0.9,0.9-2.2,1.3-4.5,1.3h-5.1V54.9z M26,76.6h-5.1v-9h5.3c4.5,0,6.6,1.1,6.6,4.4
			C32.8,76.1,28.8,76.6,26,76.6z M48.9,53c0,1.8-1.5,3.2-3.4,3.2c-1.9,0-3.4-1.5-3.4-3.2c0-1.7,1.4-3.2,3.4-3.2
			C47.4,49.9,48.9,51.2,48.9,53z M40,60.2h8.1v21.2h-5.3V64.7h0c0-1.7-0.1-2-2-3.5L40,60.6V60.2z M82.1,49.2l1.7,1.1
			c1.5,1,1.7,1.4,1.7,2.8v9.8h-0.1c-1.1-1.4-3.2-3.2-7.2-3.2c-6,0-10.2,4.8-10.2,11.1c0,6.3,3.9,11.1,10.5,11.1c3,0,5.7-1.1,7.3-3.7
			h0.1l0.6,3.2h4.5V48.9h-8.7V49.2z M79.5,77.2c-3.9,0-6.2-3-6.2-6.3c0-3.3,2.3-6.4,6.2-6.4c3.9,0,6.2,3,6.2,6.4
			C85.7,74.1,83.3,77.2,79.5,77.2z M191.8,49.2l0.7,0.5c2.6,1.6,2.9,2.1,2.9,4.8v8.3h-0.1c-1.1-1.4-3.2-3.2-7.2-3.2
			c-6,0-10.2,4.8-10.2,11.1c0,6.3,3.9,11.1,10.4,11.1c3,0,5.7-1.1,7.3-3.7h0.1l0.6,3.2h4.5V48.9h-8.9V49.2z M189.4,77.2
			c-3.9,0-6.2-3-6.2-6.3c0-3.3,2.3-6.4,6.2-6.4c3.9,0,6.2,3,6.2,6.4C195.6,74.1,193.3,77.2,189.4,77.2z M242.2,60v5.1
			c-0.9-0.2-1.7-0.4-2.6-0.4c-5,0-5.7,4.2-5.7,5.3v11.3h-5.3V65.7c0-2.7-0.1-3.1-2.3-4.4l-1.3-0.9l0-0.2h8.9v3.4h0.1
			c1.1-2.4,3.5-3.9,6.3-3.9C241,59.7,241.6,59.8,242.2,60z M124.7,60.1h4.9v4.5h-4.9v16.7h-5.3V66.5c0-1.8-0.4-2.2-2.5-3.8l-2.7-2.2
			v-0.3h5.2v-3.9c0-5.7,3.7-9.4,11.9-7.8l1.2,4.5l-0.3,0.2c-4.2-1.7-7.5-0.6-7.5,3.1V60.1z M174.9,68v13.4h-5.3V69.6
			c0-2.3-0.6-5.2-4.3-5.2c-3.5,0-4.8,2.6-4.8,5.4v11.6h-5.3V65.7c0-2.7-0.1-3.1-2.3-4.4l-1.3-0.9v-0.2h4.1v0h4.5v3.2h0.1
			c1.7-2.6,4.4-3.8,6.7-3.8C172,59.7,174.9,63.1,174.9,68z M66.3,77.1l0.2,0.1c0,0-2.6,4.2-2.6,4.2c-4.3,1.2-9.2-0.1-9.2-7v-9.7
			l0,1.2c0-1.4-0.2-1.3-3.2-3.7l-1.9-1.7v-0.3h5.1l1.9-6.1H60v6.1h5.7v4.5H60v9.6C60,78.1,62.6,78.2,66.3,77.1z"/>
		<g>
			<path class="st5" d="M243.5,49.7h-1.3v4h0.1v-1.9h1.2c0,0,0,0,0.1,0l0,0l0,0l1.2,1.9h0.2l-1.2-1.9l0,0c0.1,0,0.3,0,0.4-0.1
				c0.1,0,0.2-0.1,0.3-0.2c0.1-0.1,0.2-0.2,0.2-0.3c0.1-0.1,0.1-0.3,0.1-0.4c0-0.3-0.1-0.6-0.3-0.8
				C244.2,49.7,243.9,49.7,243.5,49.7z M244.6,50.7c0,0.2,0,0.4-0.1,0.5c-0.1,0.1-0.2,0.2-0.3,0.3c-0.1,0.1-0.3,0.1-0.4,0.1
				c-0.1,0-0.3,0-0.4,0h-1v-1.8h1.1c0.1,0,0.3,0,0.4,0c0.1,0,0.3,0.1,0.4,0.1c0.1,0.1,0.2,0.2,0.3,0.3
				C244.6,50.4,244.6,50.5,244.6,50.7z"/>
			<path class="st5" d="M246.5,53c0.2-0.4,0.3-0.9,0.3-1.4c0-0.5-0.1-0.9-0.3-1.4c-0.2-0.4-0.4-0.8-0.7-1.1
				c-0.3-0.3-0.7-0.6-1.1-0.7c-0.4-0.2-0.9-0.3-1.4-0.3c-0.5,0-0.9,0.1-1.4,0.3c-0.4,0.2-0.8,0.4-1.1,0.7c-0.3,0.3-0.6,0.7-0.7,1.1
				c-0.2,0.4-0.3,0.9-0.3,1.4c0,0.5,0.1,0.9,0.3,1.4c0.2,0.4,0.4,0.8,0.7,1.1c0.3,0.3,0.7,0.6,1.1,0.7c0.4,0.2,0.9,0.3,1.4,0.3
				c0.5,0,0.9-0.1,1.4-0.3c0.4-0.2,0.8-0.4,1.1-0.7C246.1,53.7,246.4,53.4,246.5,53z M244.6,54.7c-0.4,0.2-0.8,0.3-1.3,0.3
				c-0.5,0-0.9-0.1-1.3-0.3c-0.4-0.2-0.8-0.4-1.1-0.7c-0.3-0.3-0.5-0.7-0.7-1.1c-0.2-0.4-0.3-0.9-0.3-1.3c0-0.5,0.1-0.9,0.3-1.3
				c0.2-0.4,0.4-0.8,0.7-1.1c0.3-0.3,0.7-0.5,1.1-0.7c0.4-0.2,0.8-0.3,1.3-0.3c0.5,0,0.9,0.1,1.3,0.3c0.4,0.2,0.8,0.4,1.1,0.7
				c0.3,0.3,0.5,0.7,0.7,1.1c0.2,0.4,0.3,0.8,0.3,1.3c0,0.5-0.1,0.9-0.3,1.3c-0.2,0.4-0.4,0.8-0.7,1.1
				C245.4,54.3,245,54.5,244.6,54.7z"/>
		</g>
	</g>
</g>
<g id="Layer_4" class="st0">
	<g class="st2">
		<g>
			<path class="st6" d="M55.1,58.9c-2-3.4-5.8-5.5-10.1-5.5c-6.7,0-11.8,4.8-11.8,11.9c0,7,5.2,11.9,11.8,11.9
				c4.6,0,8.6-2.5,10.5-6.3l2.2,0.6c-2.2,4.8-7,7.9-12.7,7.9c-7.8,0-14.1-5.9-14.1-14.1c0-8.2,6.3-14.1,14.1-14.1
				c5.3,0,9.9,2.8,12.3,7.1L55.1,58.9z"/>
			<path class="st6" d="M77.3,76.8v2.1H59.5V51.8h17.6V54H61.7v9.4h12.4v2.1H61.7v11.3H77.3z"/>
			<path class="st6" d="M102.3,51.8v27.1h-2.1L86.4,60.3c-2.3-3.2-3.5-4.9-3.5-4.9h0c0,0,0.1,3.2,0.1,7v16.5h-2.2V51.8h2.1
				l13.8,18.5c2.1,2.9,3.5,4.8,3.6,4.8h0c0,0-0.1-3.3-0.1-6.9V51.8H102.3z"/>
			<path class="st6" d="M122,59.1c-0.6-3.6-3.6-5.8-7.4-5.8c-4,0-6.9,1.9-6.9,5.1c0,3.3,4,4.3,7.7,5.3c3.8,1,9.1,2.6,9.1,8
				c0,4.5-3.9,7.7-9.7,7.7c-5.8,0-9.4-3.5-10-7.9l2.1-0.6c0.3,3.5,3.1,6.5,7.9,6.5c4.5,0,7.3-2.4,7.3-5.7c0-4.5-5.1-5.3-8.9-6.5
				c-3.1-0.9-7.9-2.2-7.9-6.9c0-4.2,3.9-7.2,9.3-7.2c4.8,0,8.6,2.8,9.4,7.2L122,59.1z"/>
			<path class="st6" d="M139.3,51.3c7.8,0,14.1,5.9,14.1,14.1c0,8.2-6.3,14.1-14.1,14.1c-7.8,0-14.1-5.9-14.1-14.1
				C125.3,57.2,131.6,51.3,139.3,51.3z M139.3,77.3c6.6,0,11.8-4.9,11.8-11.9c0-7.1-5.2-11.9-11.8-11.9c-6.6,0-11.8,4.8-11.8,11.9
				C127.6,72.4,132.7,77.3,139.3,77.3z"/>
			<path class="st6" d="M171.9,78.9l-6.5-10.6c-0.6,0.1-1.2,0.1-1.8,0.1h-5.5v10.5h-2.2V51.8h7.7c6.2,0,9.9,3.2,9.9,8.4
				c0,3.9-2.2,6.7-5.9,7.7l6.7,11H171.9z M163.7,66.5c4.9,0,7.5-2.6,7.5-6.3c0-4-2.9-6.2-7.5-6.2h-5.6v12.5H163.7z"/>
		</g>
		<g>
			<path class="st7" d="M200.3,51.8v27.1h-5.1l-7.7-10.5c-2.4-3.3-5.4-7.6-5.5-7.6h0c0,0,0,3.9,0,9.3v8.7h-5.4V51.8h5.1l7.9,10.6
				c1.9,2.4,5.3,7.3,5.3,7.3h0c0,0,0-4.4,0-9v-8.9H200.3z"/>
			<path class="st7" d="M222.3,73.9v5h-19.4V51.8H222v5h-13.8v5.8h10.9v4.7h-10.9v6.5H222.3z"/>
			<path class="st7" d="M246.4,51.8v5h-8.5v22.1h-5.4V56.9h-8.4v-5H246.4z"/>
		</g>
		<path class="st7" d="M34.4,82.7V96c3.2,1,6.6,1.6,10.2,1.6c2.4,0,4.8-0.3,7-0.8V84.2c-2.2,0.8-4.6,1.2-7,1.2
			C40.8,85.4,37.4,84.4,34.4,82.7z M44.5,32.4c-18,0-32.6,14.6-32.6,32.6c0,10.3,4.7,19.4,12.2,25.4l0-25.4
			c0-11.3,9.1-20.4,20.4-20.4c2.5,0,4.8,0.4,7,1.2V33.2C49.3,32.7,46.9,32.4,44.5,32.4z"/>
	</g>
</g>
<g id="Layer_5" class="st0">
	<g class="st2">
		<g>
			<path class="st8" d="M58,51.1h10.6c2,0,3.7,0.3,5.1,1c1.4,0.7,2.6,1.6,3.5,2.8c0.9,1.2,1.6,2.5,2,4.1c0.4,1.6,0.7,3.2,0.7,5
				c0,1.8-0.2,3.4-0.7,5c-0.4,1.6-1.1,2.9-2,4.1c-0.9,1.2-2.1,2.1-3.5,2.8c-1.4,0.7-3.1,1-5.1,1H58V51.1z M62.5,73.1h4.4
				c1.7,0,3.2-0.2,4.3-0.7c1.1-0.5,2-1.1,2.6-1.9c0.6-0.8,1.1-1.8,1.3-2.9c0.2-1.1,0.3-2.3,0.3-3.6s-0.1-2.5-0.3-3.6
				c-0.2-1.1-0.7-2.1-1.3-2.9c-0.6-0.8-1.5-1.5-2.6-1.9c-1.1-0.5-2.5-0.7-4.3-0.7h-4.4V73.1z"/>
			<path class="st8" d="M98.9,72.7c0,0.5,0.1,0.9,0.2,1.1c0.1,0.2,0.4,0.3,0.8,0.3c0.1,0,0.3,0,0.4,0c0.2,0,0.4,0,0.6-0.1v2.8
				c-0.1,0-0.3,0.1-0.6,0.2c-0.2,0.1-0.5,0.1-0.7,0.2c-0.2,0-0.5,0.1-0.7,0.1c-0.2,0-0.4,0-0.6,0c-0.8,0-1.5-0.2-2.1-0.5
				c-0.6-0.3-0.9-0.9-1.1-1.8c-0.8,0.8-1.8,1.4-3,1.7c-1.2,0.4-2.3,0.5-3.4,0.5c-0.8,0-1.6-0.1-2.4-0.3c-0.8-0.2-1.4-0.6-2-1
				c-0.6-0.4-1.1-1-1.4-1.7c-0.3-0.7-0.5-1.5-0.5-2.4c0-1.2,0.2-2.1,0.6-2.8c0.4-0.7,1-1.3,1.7-1.7c0.7-0.4,1.5-0.7,2.3-0.9
				c0.9-0.2,1.7-0.3,2.6-0.4c0.7-0.1,1.5-0.2,2.1-0.3c0.7-0.1,1.3-0.2,1.8-0.3c0.5-0.1,0.9-0.4,1.2-0.7c0.3-0.3,0.4-0.7,0.4-1.3
				c0-0.5-0.1-1-0.4-1.3c-0.3-0.3-0.6-0.6-0.9-0.8c-0.4-0.2-0.8-0.3-1.2-0.4c-0.5-0.1-0.9-0.1-1.3-0.1c-1.2,0-2.1,0.2-2.8,0.7
				s-1.2,1.2-1.3,2.2H83c0.1-1.2,0.4-2.2,0.9-3c0.5-0.8,1.1-1.4,1.9-1.9c0.8-0.5,1.7-0.8,2.6-1c1-0.2,2-0.3,3-0.3
				c0.9,0,1.8,0.1,2.7,0.3c0.9,0.2,1.7,0.5,2.4,0.9c0.7,0.4,1.3,1,1.7,1.7s0.6,1.5,0.6,2.5V72.7z M94.8,67.5
				c-0.6,0.4-1.4,0.7-2.3,0.7c-0.9,0.1-1.8,0.2-2.7,0.4c-0.4,0.1-0.9,0.2-1.3,0.3c-0.4,0.1-0.8,0.3-1.1,0.5
				c-0.3,0.2-0.6,0.5-0.7,0.9s-0.3,0.8-0.3,1.3c0,0.5,0.1,0.8,0.4,1.2c0.3,0.3,0.6,0.6,1,0.7c0.4,0.2,0.8,0.3,1.2,0.4
				c0.4,0.1,0.8,0.1,1.2,0.1c0.5,0,0.9-0.1,1.5-0.2c0.5-0.1,1-0.3,1.5-0.6c0.5-0.3,0.9-0.7,1.2-1.1c0.3-0.4,0.5-1,0.5-1.6V67.5z"/>
			<path class="st8" d="M101.5,58.2h3.1v-5.6h4.1v5.6h3.7v3.1h-3.7v9.9c0,0.4,0,0.8,0.1,1.1c0,0.3,0.1,0.6,0.3,0.8
				c0.1,0.2,0.3,0.4,0.6,0.5c0.3,0.1,0.6,0.2,1.1,0.2c0.3,0,0.6,0,0.9,0c0.3,0,0.6-0.1,0.9-0.1v3.2c-0.5,0-0.9,0.1-1.3,0.1
				c-0.4,0-0.9,0.1-1.3,0.1c-1.1,0-1.9-0.1-2.6-0.3c-0.7-0.2-1.2-0.5-1.5-0.9c-0.4-0.4-0.6-0.9-0.8-1.5s-0.2-1.3-0.2-2v-11h-3.1
				V58.2z"/>
			<path class="st8" d="M130.9,72.7c0,0.5,0.1,0.9,0.2,1.1c0.1,0.2,0.4,0.3,0.8,0.3c0.1,0,0.3,0,0.4,0c0.2,0,0.4,0,0.6-0.1v2.8
				c-0.1,0-0.3,0.1-0.6,0.2c-0.2,0.1-0.5,0.1-0.7,0.2c-0.2,0-0.5,0.1-0.7,0.1c-0.2,0-0.4,0-0.6,0c-0.8,0-1.5-0.2-2.1-0.5
				c-0.6-0.3-0.9-0.9-1.1-1.8c-0.8,0.8-1.8,1.4-3,1.7c-1.2,0.4-2.3,0.5-3.4,0.5c-0.8,0-1.6-0.1-2.4-0.3c-0.8-0.2-1.4-0.6-2-1
				c-0.6-0.4-1.1-1-1.4-1.7c-0.3-0.7-0.5-1.5-0.5-2.4c0-1.2,0.2-2.1,0.6-2.8c0.4-0.7,1-1.3,1.7-1.7c0.7-0.4,1.5-0.7,2.3-0.9
				c0.9-0.2,1.7-0.3,2.6-0.4c0.7-0.1,1.5-0.2,2.1-0.3c0.7-0.1,1.3-0.2,1.8-0.3c0.5-0.1,0.9-0.4,1.2-0.7c0.3-0.3,0.4-0.7,0.4-1.3
				c0-0.5-0.1-1-0.4-1.3c-0.3-0.3-0.6-0.6-0.9-0.8c-0.4-0.2-0.8-0.3-1.2-0.4c-0.5-0.1-0.9-0.1-1.3-0.1c-1.2,0-2.1,0.2-2.8,0.7
				s-1.2,1.2-1.3,2.2H115c0.1-1.2,0.4-2.2,0.9-3c0.5-0.8,1.1-1.4,1.9-1.9c0.8-0.5,1.7-0.8,2.6-1c1-0.2,2-0.3,3-0.3
				c0.9,0,1.8,0.1,2.7,0.3c0.9,0.2,1.7,0.5,2.4,0.9c0.7,0.4,1.3,1,1.7,1.7s0.6,1.5,0.6,2.5V72.7z M126.8,67.5
				c-0.6,0.4-1.4,0.7-2.3,0.7c-0.9,0.1-1.8,0.2-2.7,0.4c-0.4,0.1-0.9,0.2-1.3,0.3c-0.4,0.1-0.8,0.3-1.1,0.5
				c-0.3,0.2-0.6,0.5-0.7,0.9s-0.3,0.8-0.3,1.3c0,0.5,0.1,0.8,0.4,1.2c0.3,0.3,0.6,0.6,1,0.7c0.4,0.2,0.8,0.3,1.2,0.4
				c0.4,0.1,0.8,0.1,1.2,0.1c0.5,0,0.9-0.1,1.5-0.2c0.5-0.1,1-0.3,1.5-0.6c0.5-0.3,0.9-0.7,1.2-1.1c0.3-0.4,0.5-1,0.5-1.6V67.5z"/>
			<path class="st9" d="M135.9,51.1h17.7V55h-13.2v6.7H152v3.7h-11.6v11.4h-4.5V51.1z"/>
			<path class="st9" d="M165.2,77.3c-1.5,0-2.8-0.2-4-0.7c-1.2-0.5-2.1-1.2-2.9-2c-0.8-0.9-1.4-1.9-1.8-3.1c-0.4-1.2-0.6-2.5-0.6-4
				c0-1.4,0.2-2.7,0.6-3.9c0.4-1.2,1-2.2,1.8-3.1c0.8-0.9,1.8-1.5,2.9-2c1.2-0.5,2.5-0.7,4-0.7c1.5,0,2.8,0.2,4,0.7
				c1.2,0.5,2.1,1.2,2.9,2c0.8,0.9,1.4,1.9,1.8,3.1c0.4,1.2,0.6,2.5,0.6,3.9c0,1.4-0.2,2.8-0.6,4c-0.4,1.2-1,2.2-1.8,3.1
				c-0.8,0.9-1.8,1.5-2.9,2C168,77.1,166.7,77.3,165.2,77.3z M165.2,74.1c0.9,0,1.7-0.2,2.4-0.6c0.7-0.4,1.2-0.9,1.7-1.5
				c0.4-0.6,0.7-1.3,1-2.1c0.2-0.8,0.3-1.6,0.3-2.4c0-0.8-0.1-1.6-0.3-2.4c-0.2-0.8-0.5-1.5-1-2.1s-1-1.1-1.7-1.5
				c-0.7-0.4-1.5-0.6-2.4-0.6c-0.9,0-1.7,0.2-2.4,0.6c-0.7,0.4-1.2,0.9-1.7,1.5s-0.7,1.3-1,2.1c-0.2,0.8-0.3,1.6-0.3,2.4
				c0,0.8,0.1,1.6,0.3,2.4c0.2,0.8,0.5,1.5,1,2.1c0.4,0.6,1,1.1,1.7,1.5S164.3,74.1,165.2,74.1z"/>
			<path class="st9" d="M178,58.2h3.8v3.6h0.1c0.1-0.5,0.4-1,0.7-1.5c0.3-0.5,0.8-0.9,1.3-1.3s1-0.7,1.6-1c0.6-0.2,1.2-0.4,1.8-0.4
				c0.5,0,0.8,0,1,0c0.2,0,0.4,0,0.6,0.1v4c-0.3,0-0.6-0.1-0.9-0.1c-0.3,0-0.6-0.1-0.9-0.1c-0.7,0-1.3,0.1-2,0.4
				c-0.6,0.3-1.1,0.7-1.6,1.2c-0.5,0.5-0.8,1.2-1.1,2c-0.3,0.8-0.4,1.7-0.4,2.7v8.8H178V58.2z"/>
			<path class="st9" d="M190.6,58.2h3.1v-5.6h4.1v5.6h3.7v3.1h-3.7v9.9c0,0.4,0,0.8,0.1,1.1c0,0.3,0.1,0.6,0.3,0.8
				c0.1,0.2,0.3,0.4,0.6,0.5c0.3,0.1,0.6,0.2,1.1,0.2c0.3,0,0.6,0,0.9,0c0.3,0,0.6-0.1,0.9-0.1v3.2c-0.5,0-0.9,0.1-1.3,0.1
				c-0.4,0-0.9,0.1-1.3,0.1c-1.1,0-1.9-0.1-2.6-0.3c-0.7-0.2-1.2-0.5-1.5-0.9c-0.4-0.4-0.6-0.9-0.8-1.5c-0.1-0.6-0.2-1.3-0.2-2v-11
				h-3.1V58.2z"/>
			<path class="st9" d="M204.4,58.2h3.8v3.6h0.1c0.1-0.5,0.4-1,0.7-1.5c0.3-0.5,0.8-0.9,1.3-1.3s1-0.7,1.6-1
				c0.6-0.2,1.2-0.4,1.8-0.4c0.5,0,0.8,0,1,0c0.2,0,0.4,0,0.6,0.1v4c-0.3,0-0.6-0.1-0.9-0.1c-0.3,0-0.6-0.1-0.9-0.1
				c-0.7,0-1.3,0.1-2,0.4c-0.6,0.3-1.1,0.7-1.6,1.2c-0.5,0.5-0.8,1.2-1.1,2c-0.3,0.8-0.4,1.7-0.4,2.7v8.8h-4.1V58.2z"/>
			<path class="st9" d="M219.6,68.6c0,0.7,0.1,1.4,0.3,2.1c0.2,0.7,0.5,1.3,0.9,1.8c0.4,0.5,0.9,0.9,1.5,1.2
				c0.6,0.3,1.4,0.5,2.2,0.5c1.2,0,2.2-0.3,2.9-0.8c0.7-0.5,1.3-1.3,1.6-2.3h3.9c-0.2,1-0.6,1.9-1.1,2.7s-1.2,1.5-1.9,2
				c-0.7,0.5-1.6,0.9-2.5,1.2s-1.9,0.4-2.9,0.4c-1.5,0-2.8-0.2-3.9-0.7c-1.1-0.5-2.1-1.2-2.9-2c-0.8-0.9-1.4-1.9-1.8-3.1
				s-0.6-2.5-0.6-4c0-1.3,0.2-2.6,0.6-3.8c0.4-1.2,1-2.2,1.8-3.1s1.7-1.6,2.8-2.1s2.3-0.8,3.7-0.8c1.5,0,2.8,0.3,3.9,0.9
				c1.2,0.6,2.1,1.4,2.9,2.4c0.8,1,1.3,2.2,1.7,3.5s0.4,2.7,0.3,4H219.6z M229.2,65.9c0-0.6-0.2-1.3-0.4-1.9
				c-0.2-0.6-0.5-1.1-0.9-1.6c-0.4-0.4-0.9-0.8-1.4-1.1c-0.6-0.3-1.2-0.4-1.9-0.4c-0.7,0-1.4,0.1-2,0.4c-0.6,0.3-1.1,0.6-1.5,1
				c-0.4,0.4-0.8,1-1,1.6c-0.3,0.6-0.4,1.2-0.4,1.9H229.2z"/>
			<path class="st9" d="M239.5,70.8c0.1,1.2,0.6,2,1.4,2.5c0.8,0.5,1.7,0.7,2.8,0.7c0.4,0,0.8,0,1.3-0.1c0.5-0.1,1-0.2,1.4-0.3
				c0.4-0.2,0.8-0.4,1.1-0.7c0.3-0.3,0.4-0.7,0.4-1.3c0-0.5-0.2-1-0.6-1.3s-0.8-0.6-1.4-0.8s-1.2-0.4-1.9-0.5
				c-0.7-0.1-1.5-0.3-2.2-0.5c-0.8-0.2-1.5-0.4-2.2-0.6c-0.7-0.2-1.3-0.6-1.9-1c-0.6-0.4-1-0.9-1.3-1.6c-0.3-0.6-0.5-1.4-0.5-2.4
				c0-1,0.2-1.9,0.7-2.5c0.5-0.7,1.1-1.2,1.9-1.7c0.8-0.4,1.6-0.7,2.5-0.9c0.9-0.2,1.8-0.3,2.6-0.3c1,0,1.9,0.1,2.8,0.3
				s1.7,0.5,2.4,1c0.7,0.5,1.3,1,1.8,1.8c0.5,0.7,0.8,1.6,0.9,2.6h-4.3c-0.2-1-0.6-1.6-1.3-2c-0.7-0.3-1.5-0.5-2.4-0.5
				c-0.3,0-0.6,0-1,0.1c-0.4,0-0.8,0.1-1.1,0.3c-0.3,0.1-0.6,0.3-0.9,0.6c-0.2,0.3-0.4,0.6-0.4,1c0,0.5,0.2,0.9,0.5,1.2
				c0.3,0.3,0.8,0.6,1.4,0.8c0.6,0.2,1.2,0.4,1.9,0.5c0.7,0.1,1.5,0.3,2.2,0.5c0.7,0.2,1.5,0.4,2.2,0.6c0.7,0.2,1.4,0.6,1.9,1
				c0.6,0.4,1,0.9,1.4,1.5s0.5,1.4,0.5,2.3c0,1.1-0.3,2-0.8,2.8c-0.5,0.8-1.2,1.4-2,1.9s-1.7,0.8-2.7,1c-1,0.2-2,0.3-2.9,0.3
				c-1.2,0-2.3-0.1-3.3-0.4s-1.9-0.7-2.6-1.2c-0.7-0.5-1.3-1.2-1.7-2c-0.4-0.8-0.6-1.8-0.7-2.9H239.5z"/>
			<path class="st9" d="M258.2,70.8c0.1,1.2,0.6,2,1.4,2.5c0.8,0.5,1.7,0.7,2.8,0.7c0.4,0,0.8,0,1.3-0.1c0.5-0.1,1-0.2,1.4-0.3
				c0.4-0.2,0.8-0.4,1.1-0.7c0.3-0.3,0.4-0.7,0.4-1.3c0-0.5-0.2-1-0.6-1.3s-0.8-0.6-1.4-0.8s-1.2-0.4-1.9-0.5
				c-0.7-0.1-1.5-0.3-2.2-0.5c-0.8-0.2-1.5-0.4-2.2-0.6c-0.7-0.2-1.3-0.6-1.9-1c-0.6-0.4-1-0.9-1.3-1.6c-0.3-0.6-0.5-1.4-0.5-2.4
				c0-1,0.2-1.9,0.7-2.5c0.5-0.7,1.1-1.2,1.9-1.7c0.8-0.4,1.6-0.7,2.5-0.9c0.9-0.2,1.8-0.3,2.6-0.3c1,0,1.9,0.1,2.8,0.3
				s1.7,0.5,2.4,1c0.7,0.5,1.3,1,1.8,1.8c0.5,0.7,0.8,1.6,0.9,2.6h-4.3c-0.2-1-0.6-1.6-1.3-2c-0.7-0.3-1.5-0.5-2.4-0.5
				c-0.3,0-0.6,0-1,0.1c-0.4,0-0.8,0.1-1.1,0.3c-0.3,0.1-0.6,0.3-0.9,0.6c-0.2,0.3-0.4,0.6-0.4,1c0,0.5,0.2,0.9,0.5,1.2
				c0.3,0.3,0.8,0.6,1.4,0.8c0.6,0.2,1.2,0.4,1.9,0.5c0.7,0.1,1.5,0.3,2.2,0.5c0.7,0.2,1.5,0.4,2.2,0.6c0.7,0.2,1.4,0.6,1.9,1
				c0.6,0.4,1,0.9,1.4,1.5s0.5,1.4,0.5,2.3c0,1.1-0.3,2-0.8,2.8c-0.5,0.8-1.2,1.4-2,1.9s-1.7,0.8-2.7,1c-1,0.2-2,0.3-2.9,0.3
				c-1.2,0-2.3-0.1-3.3-0.4s-1.9-0.7-2.6-1.2c-0.7-0.5-1.3-1.2-1.7-2c-0.4-0.8-0.6-1.8-0.7-2.9H258.2z"/>
		</g>
		<g>
			<linearGradient id="SVGID_1_" gradientUnits="userSpaceOnUse" x1="25.7992" y1="63.993" x2="43.4778" y2="63.993">
				<stop  offset="0" style="stop-color:#F7AC00"/>
				<stop  offset="6.370012e-02" style="stop-color:#F4A502"/>
				<stop  offset="0.1594" style="stop-color:#EC9006"/>
				<stop  offset="0.2751" style="stop-color:#DF6E0E"/>
				<stop  offset="0.4054" style="stop-color:#CD4018"/>
				<stop  offset="0.5091" style="stop-color:#BD1622"/>
				<stop  offset="0.5297" style="stop-color:#C3241E"/>
				<stop  offset="0.5847" style="stop-color:#D24515"/>
				<stop  offset="0.6442" style="stop-color:#DD600D"/>
				<stop  offset="0.7087" style="stop-color:#E77507"/>
				<stop  offset="0.7807" style="stop-color:#ED8403"/>
				<stop  offset="0.8662" style="stop-color:#F18C01"/>
				<stop  offset="1" style="stop-color:#F28F00"/>
			</linearGradient>
			<polygon class="st10" points="43.6,67.7 25,67.7 25,60.3 43.6,60.3 43.6,67.7 			"/>
			<linearGradient id="SVGID_2_" gradientUnits="userSpaceOnUse" x1="37.8745" y1="51.746" x2="45.7248" y2="44.4163">
				<stop  offset="0" style="stop-color:#FFDD00"/>
				<stop  offset="0.5607" style="stop-color:#FEE104"/>
				<stop  offset="1" style="stop-color:#FCEA0D"/>
			</linearGradient>
			<path class="st11" d="M38.4,54.1c0-3.4,2.9-5.2,5.7-5.2h7v-7.4h-7C36.8,41.5,31,47,31,54.1H38.4z"/>
			<linearGradient id="SVGID_3_" gradientUnits="userSpaceOnUse" x1="19.5182" y1="73.1772" x2="31.0128" y2="73.6364">
				<stop  offset="0" style="stop-color:#F7A807"/>
				<stop  offset="0.4138" style="stop-color:#F8AC06"/>
				<stop  offset="0.8609" style="stop-color:#FAB902"/>
				<stop  offset="1" style="stop-color:#FBBF00"/>
			</linearGradient>
			<path class="st12" d="M38.4,73.4c0,7.2-5.9,13.1-13.1,13.1l0,0c-7.2,0-13.1-5.9-13.1-13.1c0-7.2,5.9-13.1,13.1-13.1l0,0v7.4l0,0
				c-3.2,0-5.7,2.6-5.7,5.7c0,3.2,2.6,5.7,5.7,5.7c3.2,0,5.7-2.6,5.7-5.7H38.4z"/>
			<linearGradient id="SVGID_4_" gradientUnits="userSpaceOnUse" x1="34.1977" y1="69.6379" x2="35.3648" y2="55.4844">
				<stop  offset="0" style="stop-color:#FBBF00"/>
				<stop  offset="0.3591" style="stop-color:#FCC300"/>
				<stop  offset="0.7472" style="stop-color:#FDD000"/>
				<stop  offset="1" style="stop-color:#FFDD00"/>
			</linearGradient>
			<rect x="31" y="54.1" class="st13" width="7.4" height="19.4"/>
		</g>
	</g>
</g>
<g id="Layer_7" class="st0">
	<g class="st2">
		<path class="st14" d="M166.2,56L166,56v-9.7c0-0.2-0.2-0.4-0.4-0.4l-2.7,0.4c-0.2,0-0.3,0.2-0.3,0.4v28.2c0,0.2,0.1,0.3,0.3,0.4
			c2.3,0.5,5.3,0.7,7.1,0.7c7.7,0,8.8-3.7,8.8-7.7v-7.4c0-4.3-2-6.4-6-6.4C169.9,54.5,167.5,55.3,166.2,56z M175.3,60.8v7.7
			c0,2.8-0.9,4.6-5.1,4.6c-1.4,0-2.8-0.1-4.1-0.3l-0.1,0V59.1l0.1,0c1.2-0.6,3.8-1.6,5.8-1.6C174.3,57.5,175.3,58.5,175.3,60.8z"/>
		<path class="st14" d="M183.2,54.9h-2.6c-0.3,0-0.4,0.2-0.4,0.5l6.5,19.9c0,0.2,0.2,0.3,0.4,0.3h0.8c0.3,0,0.4,0.3,0.4,0.5
			l-2.6,7.4c-0.1,0.2,0.1,0.5,0.4,0.5h2.4c0.2,0,0.3-0.1,0.4-0.2l2.8-8.1l6.7-20.2c0.1-0.2-0.1-0.5-0.4-0.5h-2.6
			c-0.2,0-0.3,0.1-0.4,0.3L189.6,72c-0.1,0.3-0.6,0.3-0.7,0l-5.3-16.8C183.5,55,183.4,54.9,183.2,54.9z"/>
		<path class="st14" d="M215.2,62.2v6.2c0,5.2,2.6,7.6,8.2,7.6c2.4,0,5-0.4,7-1.1c0.2-0.1,0.3-0.2,0.2-0.4l-0.3-2
			c0-0.2-0.2-0.4-0.5-0.3c-2.3,0.6-4.3,0.9-6.1,0.9c-4.3,0-5.1-1.5-5.1-4.7v-1.5c0-0.2,0.2-0.4,0.4-0.4h11.7c0.2,0,0.4-0.2,0.4-0.4
			v-3.9c0-5.2-2.5-7.8-7.7-7.8C217.9,54.5,215.2,57.1,215.2,62.2z M218.6,61.9c0-3.2,1.4-4.6,4.7-4.6c3.2,0,4.5,1.3,4.5,4.6v1.4
			c0,0.2-0.2,0.4-0.4,0.4h-8.4c-0.2,0-0.4-0.2-0.4-0.4V61.9z"/>
		<path class="st14" d="M241,63.8c-3.5-0.9-3.6-1.3-3.6-3.7c0-2,0.5-2.7,3.6-2.7c1.5,0,3.5,0.2,5.3,0.5c0.2,0,0.4-0.1,0.4-0.3l0.2-2
			c0-0.2-0.1-0.3-0.3-0.4c-1.6-0.4-3.6-0.6-5.5-0.6c-5.2,0-7.1,1.5-7.1,5.5c0,4.3,0.5,5.3,5.6,6.6c4.1,1,4.4,1.3,4.4,3.6
			c0,2.2-0.5,2.9-3.9,2.9c-1.6,0-3.7-0.3-5.5-0.7c-0.2-0.1-0.4,0.1-0.5,0.3l-0.3,1.9c0,0.2,0.1,0.4,0.2,0.4c1.7,0.6,4.3,1,6.2,1
			c6,0,7.1-2,7.1-5.9C247.4,65.7,246.6,65.2,241,63.8z"/>
		<g>
			<path class="st14" d="M83.1,75.4l-3.7-20.1c0-0.2,0.1-0.4,0.4-0.4h4.1c0.2,0,0.3,0.1,0.4,0.3l2.2,12.1c0.1,0.4,0.6,0.4,0.7,0
				l3.6-12.2c0-0.2,0.2-0.3,0.4-0.3h4.9c0.2,0,0.3,0.1,0.4,0.3l3.6,12.2c0.1,0.4,0.7,0.3,0.7,0l2.2-12.1c0-0.2,0.2-0.3,0.4-0.3h4.1
				c0.2,0,0.4,0.2,0.4,0.4l-3.7,20.1c0,0.2-0.2,0.3-0.4,0.3h-5.4c-0.2,0-0.3-0.1-0.4-0.3l-4-13.5c-0.1-0.4-0.6-0.4-0.7,0l-4,13.5
				c0,0.2-0.2,0.3-0.4,0.3h-5.4C83.3,75.7,83.1,75.6,83.1,75.4z"/>
		</g>
		<path class="st14" d="M77.1,71.8c-1.9,0-2.4-0.8-2.4-3.2V53.6v-5.9c0-0.2-0.2-0.4-0.4-0.4l-4.5,0.6c-0.2,0-0.3,0.2-0.3,0.4v0.2
			v5.1v15.7c0,4.7,2.9,6.8,6.7,6.8c0.4,0,1.8-0.1,2.5-0.1c0.2,0,0.3-0.2,0.3-0.4v-3.3c0-0.2-0.2-0.4-0.4-0.4
			C78.1,71.8,77.4,71.8,77.1,71.8z"/>
		<g>
			<path class="st14" d="M140.3,59.3c-1.8,0.8-3.4,1.7-5.1,2.8c-0.1,0.1-0.2,0.2-0.2,0.3v12.9c0,0.2-0.2,0.4-0.4,0.4h-4.5
				c-0.2,0-0.4-0.2-0.4-0.4V55.9c0-0.2,0.1-0.3,0.3-0.4l3.7-0.6c0.2,0,0.4,0.1,0.4,0.3l0.2,1.4c0,0.3,0.3,0.4,0.6,0.3
				c1.2-0.7,3-1.8,4.6-2.3c0.2-0.1,0.5,0.1,0.5,0.3l0.4,4.1C140.6,59.1,140.5,59.3,140.3,59.3z"/>
		</g>
		<path class="st14" d="M209.8,73.2c-2.1,0-2.2-1-2.2-2.4V58.1c0-0.2,0.2-0.4,0.4-0.4h4.9c0.2,0,0.4-0.1,0.4-0.3l0.2-2.1
			c0-0.2-0.1-0.4-0.4-0.4h-5.1c-0.2,0-0.4-0.2-0.4-0.4v-4.8c0-0.2-0.2-0.4-0.4-0.4l-2.7,0.4c-0.2,0-0.3,0.2-0.3,0.4v4.5
			c0,0.2-0.2,0.4-0.4,0.4h-2.9c-0.2,0-0.4,0.2-0.4,0.4v2.1c0,0.2,0.2,0.4,0.4,0.4h2.9c0.2,0,0.4,0.2,0.4,0.4v13.2
			c0,3.3,1.5,4.7,5.1,4.7c0.8,0,1.6-0.1,2.5-0.2c0.2,0,0.3-0.2,0.3-0.4v-2c0-0.2-0.2-0.4-0.4-0.4C210.9,73.1,210.3,73.2,209.8,73.2z
			"/>
		<path class="st15" d="M152,58.6c-0.3,0-0.5-0.1-0.9-0.1c-2.6,0-3.5,1.4-3.5,3.3v1.8h0h6.6c0.2,0,0.4-0.2,0.4-0.4v-1.5
			C154.7,60.1,153.9,58.9,152,58.6z"/>
		<path class="st14" d="M155.4,55c-1.1-0.5-2.5-0.8-4.3-0.8c-2,0-3.6,0.3-4.9,0.9c-2.8,1.4-3.8,4.1-3.8,7.2v5.5c0,4.9,2.2,7.9,8.4,8
			c0.5,0,1,0,1.4,0c1.7,0,3.4-0.2,5.1-0.4c0.2,0,0.3-0.2,0.3-0.4l0-0.2l-0.4-2.8l0,0c-1.6,0.2-3,0.2-4.5,0.2l0,0c-3.8,0-5-1.1-5-3.4
			v-0.7c0,0,0,0,0,0v-1h0h11.2c0.2,0,0.4-0.2,0.4-0.4v-1.6v-2.6C159.3,59.3,158.5,56.4,155.4,55z M154.7,63.3c0,0.2-0.2,0.4-0.4,0.4
			h-6.6h0v-1.8c0-2,0.9-3.3,3.5-3.3c0.3,0,0.6,0,0.9,0.1c1.9,0.3,2.7,1.5,2.7,3.3V63.3z"/>
		<path class="st14" d="M27.7,79.2c0,0,0.1,0,0.1,0c0.2,0,0.4-0.2,0.4-0.4c0-0.2-0.1-0.4-0.3-0.4l-0.1,0l-0.3,0
			c-4.7-0.9-8.2-5.1-8.2-10.1c0-2.1,0.6-4.1,1.7-5.7c0.2-0.2,0.5-0.4,0.8-0.1l7.4,7.6c0.1,0.1,0.2,0.1,0.3,0.1c0.1,0,0.2,0,0.3-0.1
			l7.5-7.5c0.3-0.3,0.5-0.2,0.7,0.1c1.1,1.6,1.7,3.6,1.7,5.7c0,2.6-1,5-2.6,6.8c-0.1,0.1-0.1,0.1-0.2,0.2c0,0.1,0,0.1,0,0.2
			c0,0.2,0.2,0.4,0.4,0.4c0,0,0,0,0.1,0c0.1,0,0.1,0,0.2-0.1c9.9-4.2,9.5-14.1,9.5-14.1c0-5.7-2.7-10.7-6.8-14
			c-0.2-0.1-0.4-0.1-0.6,0l-9.9,9.9c-0.2,0.2-0.5,0.2-0.6,0l-9.9-9.9c-0.2-0.2-0.4-0.2-0.6,0c-4.2,3.2-6.8,8.3-6.8,14v0
			C11.9,70.8,18.8,78.3,27.7,79.2"/>
		<path class="st14" d="M56,54.4c-1.8,0-3.7,0.1-5.5,0.4c-0.2,0-0.3,0.2-0.3,0.4l0.4,3.2c0,0.2,0.2,0.4,0.4,0.4
			c1.7-0.2,2.8-0.2,4.5-0.2c3.8,0,5,1.1,5,3.4v1.4c0,0.2-0.2,0.4-0.4,0.4h-4.8c-4.3,0-6.8,2.1-6.8,6.1c0,3.6,2.8,6.2,7,6.2
			c2.7,0,3.7-0.4,4.5-1.2c0.2-0.2,0.6-0.1,0.6,0.3l0,0.3c0,0.2,0.2,0.4,0.4,0.4h4.3c0.2,0,0.4-0.2,0.4-0.4V62.1
			C65.8,56.9,62.2,54.4,56,54.4z M60.6,67.9c0,2.6-1.8,4.4-4.5,4.4c-2.1,0-3.3-0.8-3.3-2.5c0-1.9,1.2-2.6,3.3-2.6h4.2
			c0.2,0,0.4,0.2,0.4,0.4V67.9z"/>
		<path class="st14" d="M116.5,54.4c-1.8,0-3.7,0.1-5.5,0.4c-0.2,0-0.3,0.2-0.3,0.4l0.4,3.2c0,0.2,0.2,0.4,0.4,0.4
			c1.7-0.2,2.8-0.2,4.5-0.2c3.8,0,5,1.1,5,3.4v1.4c0,0.2-0.2,0.4-0.4,0.4h-4.8c-4.3,0-6.8,2.1-6.8,6.1c0,3.6,2.8,6.2,7,6.2
			c2.7,0,3.7-0.4,4.5-1.2c0.2-0.2,0.6-0.1,0.6,0.3l0,0.3c0,0.2,0.2,0.4,0.4,0.4h4.3c0.2,0,0.4-0.2,0.4-0.4V62.1
			C126.2,56.9,122.6,54.4,116.5,54.4z M121,67.9c0,2.6-1.8,4.4-4.5,4.4c-2.1,0-3.3-0.8-3.3-2.5c0-1.9,1.2-2.6,3.3-2.6h4.2
			c0.2,0,0.4,0.2,0.4,0.4V67.9z"/>
	</g>
</g>
<g id="Layer_8" class="st0">
	<g class="st2">
		<path class="st16" d="M73.8,70.2c0-1.2-0.5-2.2-1.4-3c-0.9-0.8-2.5-1.5-4.8-2c-2.8-0.7-5-1.6-6.5-2.9c-1.6-1.3-2.3-2.9-2.3-4.9
			c0-2,0.8-3.7,2.5-5.1c1.7-1.4,3.9-2.1,6.5-2.1c2.9,0,5.2,0.8,6.9,2.4c1.7,1.6,2.5,3.4,2.5,5.5l0,0.1h-3.4c0-1.5-0.5-2.8-1.5-3.7
			c-1-0.9-2.5-1.4-4.4-1.4c-1.8,0-3.1,0.4-4.1,1.2c-0.9,0.8-1.4,1.8-1.4,3.1c0,1.1,0.5,2.1,1.5,2.9c1,0.8,2.7,1.4,5,2
			c2.8,0.7,4.9,1.7,6.3,3c1.4,1.3,2.2,3,2.2,5c0,2.1-0.9,3.8-2.6,5.1c-1.7,1.3-4,1.9-6.8,1.9c-2.6,0-5-0.7-7-2.1
			c-2-1.4-3-3.3-2.9-5.7l0-0.1h3.4c0,1.7,0.6,3,1.9,3.8c1.2,0.9,2.8,1.3,4.6,1.3c1.8,0,3.2-0.4,4.3-1.1
			C73.3,72.5,73.8,71.5,73.8,70.2z"/>
		<path class="st16" d="M84.2,52.7v4.7h3.7V60h-3.7v11.8c0,0.9,0.2,1.6,0.6,1.9c0.4,0.4,0.9,0.6,1.5,0.6c0.2,0,0.4,0,0.7-0.1
			c0.3,0,0.5-0.1,0.7-0.2l0.5,2.4c-0.3,0.2-0.6,0.4-1.2,0.5c-0.5,0.1-1,0.2-1.5,0.2c-1.4,0-2.6-0.4-3.5-1.3
			c-0.9-0.9-1.3-2.2-1.3-4.1V60h-3.1v-2.6h3.1v-4.7H84.2z"/>
		<path class="st16" d="M92.2,67.3c0,2.1,0.4,3.8,1.3,5.1c0.9,1.3,2.2,2,3.9,2c1.7,0,3-0.7,3.9-2c0.9-1.3,1.3-3,1.3-5.1v-0.4
			c0-2-0.4-3.7-1.3-5.1c-0.9-1.4-2.2-2-3.9-2c-1.7,0-3,0.7-3.9,2c-0.9,1.4-1.3,3-1.3,5.1L92.2,67.3L92.2,67.3z M88.6,66.9
			c0-2.9,0.8-5.2,2.3-7.1c1.6-1.9,3.7-2.8,6.4-2.8c2.7,0,4.9,0.9,6.4,2.8c1.6,1.9,2.4,4.2,2.4,7.1v0.4c0,2.9-0.8,5.3-2.3,7.1
			c-1.6,1.9-3.7,2.8-6.4,2.8c-2.7,0-4.8-0.9-6.4-2.8c-1.6-1.9-2.4-4.2-2.4-7.1V66.9z"/>
		<path class="st16" d="M117.3,60.5l-1.8-0.1c-0.9,0-1.7,0.2-2.4,0.7c-0.6,0.4-1.2,1.1-1.5,1.9v13.9H108V57.4h3.2l0.3,2.8
			c0.5-1,1.2-1.8,2.1-2.4c0.8-0.6,1.8-0.9,2.8-0.9c0.3,0,0.5,0,0.8,0.1c0.3,0,0.4,0.1,0.6,0.1L117.3,60.5z"/>
		<path class="st16" d="M123.1,74.2c1.3,0,2.4-0.3,3.5-1c1-0.7,1.7-1.4,2-2.3v-3.2h-4c-1.4,0-2.6,0.4-3.5,1.1
			c-0.9,0.7-1.3,1.6-1.3,2.5c0,0.9,0.3,1.5,0.8,2C121.3,74,122.1,74.2,123.1,74.2z M129.1,76.8c-0.1-0.6-0.2-1.1-0.3-1.6
			c-0.1-0.5-0.1-0.9-0.1-1.4c-0.7,0.9-1.5,1.7-2.6,2.4c-1.1,0.6-2.2,0.9-3.5,0.9c-2,0-3.6-0.5-4.6-1.6c-1.1-1-1.6-2.5-1.6-4.3
			c0-1.9,0.8-3.3,2.3-4.4c1.5-1,3.6-1.6,6.2-1.6h3.9v-1.9c0-1.1-0.4-2-1-2.7c-0.7-0.7-1.7-1-3-1c-1.2,0-2.1,0.3-2.8,0.9
			c-0.7,0.6-1.1,1.3-1.1,2.1h-3.4l0-0.1c-0.1-1.4,0.6-2.7,2-3.9c1.4-1.2,3.2-1.8,5.5-1.8c2.2,0,4,0.6,5.4,1.7c1.3,1.1,2,2.7,2,4.9
			v9.4c0,0.7,0,1.4,0.1,2c0.1,0.6,0.2,1.3,0.4,1.9L129.1,76.8L129.1,76.8z"/>
		<path class="st16" d="M137.6,67.8c0,2,0.4,3.5,1.3,4.7c0.8,1.2,2.1,1.8,3.8,1.8c1.1,0,2-0.2,2.7-0.7c0.7-0.5,1.3-1.2,1.8-2.1v-9
			c-0.5-0.8-1-1.5-1.8-2c-0.7-0.5-1.6-0.7-2.7-0.7c-1.7,0-3,0.7-3.8,2.1c-0.8,1.4-1.3,3.2-1.3,5.5L137.6,67.8L137.6,67.8z
			 M134.1,67.5c0-3.1,0.7-5.6,2.1-7.6c1.4-1.9,3.3-2.9,5.7-2.9c1.2,0,2.3,0.2,3.3,0.7c0.9,0.5,1.7,1.2,2.3,2.1l0.4-2.5h2.8v19.6
			c0,2.5-0.7,4.4-2.2,5.7c-1.5,1.3-3.6,2-6.3,2c-0.9,0-1.9-0.1-3.1-0.4c-1.1-0.2-2.1-0.6-2.9-1.1l0.9-2.7c0.6,0.4,1.4,0.6,2.3,0.9
			c0.9,0.2,1.8,0.3,2.7,0.3c1.7,0,3-0.4,3.8-1.2c0.8-0.8,1.2-2,1.2-3.6v-2.2c-0.6,0.8-1.4,1.4-2.3,1.9c-0.9,0.4-1.9,0.6-3.1,0.6
			c-2.4,0-4.3-0.9-5.6-2.6c-1.4-1.7-2.1-4-2.1-6.8V67.5z"/>
		<path class="st16" d="M161.2,59.8c-1.2,0-2.2,0.5-3.1,1.5c-0.8,1-1.4,2.2-1.5,3.7l0,0.1h9v-0.5c0-1.4-0.4-2.5-1.1-3.5
			C163.8,60.3,162.7,59.8,161.2,59.8z M161.8,77.2c-2.7,0-4.9-0.9-6.5-2.7c-1.6-1.8-2.4-4.1-2.4-7v-0.8c0-2.8,0.8-5.1,2.5-6.9
			C157,58,159,57,161.2,57c2.6,0,4.6,0.8,6,2.4c1.3,1.6,2,3.7,2,6.3v2.2h-12.7l-0.1,0.1c0,1.9,0.5,3.4,1.4,4.6
			c0.9,1.2,2.2,1.8,3.9,1.8c1.2,0,2.3-0.2,3.2-0.5c0.9-0.3,1.7-0.8,2.4-1.4l1.4,2.3c-0.7,0.7-1.6,1.3-2.8,1.7
			C164.8,77,163.4,77.2,161.8,77.2z"/>
		<path class="st17" d="M192.8,68.4l0,0.1c0,2.5-0.8,4.5-2.6,6.2c-1.8,1.7-4.1,2.5-7.1,2.5c-3,0-5.4-1-7.3-3.1
			c-1.9-2.1-2.8-4.8-2.8-8v-4.6c0-3.2,0.9-5.9,2.8-8c1.9-2.1,4.3-3.2,7.3-3.2c3,0,5.3,0.8,7.1,2.4c1.8,1.6,2.6,3.7,2.6,6.3l0,0.1
			h-3.4c0-1.8-0.5-3.3-1.6-4.4s-2.6-1.6-4.6-1.6c-2,0-3.6,0.8-4.7,2.4c-1.2,1.6-1.8,3.6-1.8,5.9v4.7c0,2.4,0.6,4.4,1.8,6
			c1.2,1.6,2.8,2.4,4.7,2.4c2,0,3.5-0.5,4.6-1.6c1.1-1.1,1.6-2.5,1.6-4.4L192.8,68.4L192.8,68.4z"/>
		<path class="st17" d="M204.7,60.5l-1.8-0.1c-0.9,0-1.7,0.2-2.4,0.7c-0.6,0.4-1.2,1.1-1.5,1.9v13.9h-3.6V57.4h3.2l0.3,2.8
			c0.5-1,1.2-1.8,2.1-2.4c0.8-0.6,1.8-0.9,2.8-0.9c0.3,0,0.5,0,0.8,0.1c0.3,0,0.4,0.1,0.6,0.1L204.7,60.5z"/>
		<path class="st17" d="M211.9,74.2c1.3,0,2.4-0.3,3.5-1c1-0.7,1.7-1.4,2-2.3v-3.2h-4c-1.4,0-2.6,0.4-3.5,1.1
			c-0.9,0.7-1.3,1.6-1.3,2.5c0,0.9,0.3,1.5,0.8,2C210,74,210.8,74.2,211.9,74.2z M217.8,76.8c-0.1-0.6-0.2-1.1-0.3-1.6
			c-0.1-0.5-0.1-0.9-0.1-1.4c-0.7,0.9-1.5,1.7-2.6,2.4c-1.1,0.6-2.2,0.9-3.5,0.9c-2,0-3.6-0.5-4.6-1.6c-1.1-1-1.6-2.5-1.6-4.3
			c0-1.9,0.8-3.3,2.3-4.4c1.5-1,3.6-1.6,6.2-1.6h3.9v-1.9c0-1.1-0.4-2-1-2.7c-0.7-0.7-1.7-1-3-1c-1.2,0-2.1,0.3-2.8,0.9
			c-0.7,0.6-1.1,1.3-1.1,2.1h-3.4l0-0.1c-0.1-1.4,0.6-2.7,2-3.9c1.4-1.2,3.2-1.8,5.5-1.8c2.2,0,4,0.6,5.4,1.7c1.3,1.1,2,2.7,2,4.9
			v9.4c0,0.7,0,1.4,0.1,2c0.1,0.6,0.2,1.3,0.4,1.9L217.8,76.8L217.8,76.8z"/>
		<path class="st17" d="M226.1,76.8V60h-3v-2.6h3.1v-2.5c0-2.1,0.5-3.7,1.6-4.8c1.1-1.1,2.6-1.7,4.6-1.7c0.4,0,0.8,0,1.2,0.1
			c0.4,0.1,0.9,0.2,1.4,0.3l-0.4,2.7c-0.2,0-0.5-0.1-0.8-0.1c-0.3,0-0.6-0.1-1-0.1c-1,0-1.8,0.3-2.3,0.9c-0.5,0.6-0.8,1.5-0.8,2.7
			v2.5h4.1V60h-4.1v16.8L226.1,76.8L226.1,76.8z"/>
		<path class="st17" d="M239.9,52.7v4.7h3.7V60h-3.7v11.8c0,0.9,0.2,1.6,0.6,1.9c0.4,0.4,0.9,0.6,1.5,0.6c0.2,0,0.4,0,0.7-0.1
			c0.3,0,0.5-0.1,0.7-0.2l0.5,2.4c-0.3,0.2-0.6,0.4-1.2,0.5c-0.5,0.1-1,0.2-1.5,0.2c-1.4,0-2.6-0.4-3.5-1.3
			c-0.9-0.9-1.3-2.2-1.3-4.1V60h-3.1v-2.6h3.1v-4.7H239.9z"/>
		<path class="st17" d="M22.7,58.3l5.4,3.1c0.4,0.2,1,0.2,1.4,0l1.2-0.7c0.5-0.3,1-0.3,1.5,0l9.7,5.5c1.3,0.7,1.7,1.8,1.7,2.7v0.4
			c0,1.2-0.5,2.4-1.8,3.1c0,0-8.7,5-9.6,5.5c-1.7,1-2.5,0.9-4.1,0c-0.8-0.5-16.2-9.3-16.2-9.3v3.2c0,1.5,0.8,2.9,2.1,3.6L28,83.6
			c1.3,0.7,2.9,0.7,4.2,0l13.4-7.7c1.7-1,2.8-2.8,2.8-4.8v-3.5c0-1.9-1-3.7-2.7-4.7l-14.8-8.5c-0.5-0.3-1-0.3-1.5,0L22.7,58.3z"/>
		<path class="st17" d="M46.3,52.2l-14-8.1c-1.3-0.7-2.9-0.7-4.2,0l-13.4,7.7c-1.7,1-2.7,2.8-2.7,4.7v3.7c0,1.9,1,3.6,2.7,4.6
			l14.8,8.5c0.5,0.3,1.1,0.3,1.5,0l6.7-3.9l-5.5-3.2c-0.4-0.2-1-0.2-1.4,0l-1.3,0.7c-0.4,0.2-0.9,0.2-1.4,0l-10-5.7
			c-1-0.7-1.4-1.8-1.4-2.8V58c0-1,0.6-2.1,1.4-2.6c0,0,9-5.2,9.9-5.7c1.6-0.9,2.5-0.9,4.1,0c0.9,0.5,16.2,9.3,16.2,9.3v-3.2
			C48.4,54.3,47.6,52.9,46.3,52.2z"/>
		<path class="st17" d="M248,75.2h0.4c0.3,0,0.6,0,0.6-0.4c0-0.3-0.3-0.3-0.5-0.3H248V75.2z M247.7,74.2h0.8c0.5,0,0.8,0.2,0.8,0.6
			c0,0.4-0.3,0.6-0.6,0.6l0.6,1H249l-0.6-0.9h-0.4v0.9h-0.3L247.7,74.2L247.7,74.2z M248.4,76.9c0.9,0,1.5-0.7,1.5-1.6
			c0-0.9-0.7-1.6-1.5-1.6c-0.9,0-1.5,0.7-1.5,1.6C246.9,76.2,247.5,76.9,248.4,76.9z M248.4,73.4c1,0,1.9,0.8,1.9,1.9
			c0,1.1-0.9,1.9-1.9,1.9c-1,0-1.9-0.8-1.9-1.9C246.5,74.3,247.4,73.4,248.4,73.4z"/>
	</g>
</g>
<g id="Layer_6" class="st0">
	<g class="st2">
		<path d="M28.7,65.6c0-2.7,1.8-4.5,4.5-4.5c2.7,0,4.5,1.8,4.5,4.5v28.1h15c2.6,0,4.7,1.3,4.7,3.8s-2.1,3.8-4.7,3.8H34
			c-3.2,0-5.3-1.3-5.3-5.3V65.6z"/>
		<path d="M86.7,93.6c0,3.3,0.8,4.1,0.8,5.4c0,1.8-1.7,3.1-3.6,3.1c-3.5,0-4.6-2.2-4.7-4.7c-3.1,3.5-6.7,4.7-11,4.7
			c-4.5,0-9-3.1-9-8.2c0-6.6,5-8.5,11.2-9.2l4.9-0.5c1.9-0.2,3.5-0.7,3.5-3c0-2.3-2.4-3.3-5-3.3c-5.9,0-6.1,4.4-9.3,4.4
			c-2,0-3.4-1.4-3.4-3.1c0-3.2,4.5-7.2,12.7-7.2c7.7,0,13,2.5,13,8.2V93.6z M78.7,87.8c-0.9,0.8-2.5,1.1-3.5,1.3l-2.9,0.4
			c-3.3,0.5-5.1,1.5-5.1,3.9c0,1.8,1.7,3.3,4.4,3.3c4.4,0,7.1-2.8,7.1-5.8V87.8z"/>
		<path d="M90.4,65.1c0-2.6,1.6-4,4-4c2.4,0,4,1.4,4,4V76h0.1c1.6-2.6,4.3-4.1,7.9-4.1c8.4,0,12.3,7.2,12.3,14.8
			c0,10.4-5.9,15.2-12.5,15.2c-3.9,0-7.1-1.6-8.4-5h-0.1v1.3c0,2.5-1.3,3.8-3.6,3.8c-2.5,0-3.6-1.3-3.6-3.8V65.1z M104.3,78.2
			c-4.9-0.1-6.4,4.8-6.4,8.9c0,4.5,1.8,8.7,6.4,8.7c4.3-0.1,6.4-4,6.4-8.7C110.7,83.3,109.4,78.2,104.3,78.2z"/>
		<path d="M140.8,88.5c0,4.2,2.7,7.3,7.4,7.3c6,0,6-3.9,9.3-3.9c1.9,0,3.3,1.6,3.3,3.1c0,4.8-7.7,7.1-12.5,7.1
			c-11.2,0-15.4-7.6-15.4-14.5c0-9.3,5.6-15.6,15.1-15.6c9.2,0,14.5,6.5,14.5,13.1c0,2.7-0.8,3.5-3.5,3.5H140.8z M154.8,83.9
			c-0.4-3.7-3.2-6.4-6.7-6.4c-4,0-6.4,2.5-7.3,6.4H154.8z"/>
		<path d="M178.9,71.9c6.7,0,11.7,3.8,11.7,7.5c0,2.3-1.7,3.5-3.7,3.5c-3.8,0-2.4-4.7-8.2-4.7c-3.1,0-6.8,2.1-6.8,9.4
			c0,5,2.4,8.2,6.7,8.2c5.6,0,4.4-5.2,8.6-5.2c2,0,3.3,1.5,3.3,3.1c0,3.5-3.9,8.3-12.2,8.3c-9.9,0-14.5-6.1-14.5-14.5
			C163.9,78.3,169.1,71.9,178.9,71.9z"/>
		<path d="M193.9,65.1c0-2.6,1.6-4,4-4c2.4,0,4,1.4,4,4v11h0.1c1.6-2.1,4.4-4.2,8.9-4.2c4.8,0,10.1,2.4,10.1,10.5V98
			c0,2.1-0.9,4-4,4c-3.1,0-4-1.9-4-4V84c0-3.2-1.6-5.5-5-5.5c-2.8,0-6.1,2.3-6.1,6.3V98c0,2.1-0.9,4-4,4c-3.1,0-4-1.9-4-4V65.1z"/>
		<g>
			<path d="M222.6,68.6v-0.8h4.2v0.8h-1.6v4.1h-1v-4.1H222.6z M229.1,67.8l1.3,3.5l1.3-3.5h1.4v4.9h-0.9v-4l-1.4,4h-0.8l-1.4-4v4
				h-0.9v-4.9H229.1z"/>
		</g>
		<path d="M138.5,61.1h-26c-1.8,0-4,0.9-4,3.3c0,2.5,2.2,3.3,4,3.3h9.2v30.4c0,2.5,1.5,4.1,3.8,4.1c2.3,0,3.8-1.6,3.8-4.1V67.8h9.1
			c1.8,0,4-0.9,4-3.3C142.5,62,140.3,61.1,138.5,61.1z"/>
		<g>
			<g>
				<path class="st18" d="M149.2,61.2l-1.1-3.8c-0.8-2.9,1.9-5.2,6.2-5.2h-1c-4.6,0-7.6,2.3-6.7,5.2l1.2,3.8
					c0.9,2.9,4.7,5.2,8.4,5.2h0.7C153.5,66.4,150,64.1,149.2,61.2z"/>
				<path class="st18" d="M183.6,52.2h-1.4c4.2,0,7,2.3,6.3,5.2l-1,3.8c-0.8,2.9-4.2,5.2-7.6,5.2h1.2c3.8,0,7.5-2.3,8.3-5.2l1.1-3.8
					C191.2,54.6,188.2,52.2,183.6,52.2z"/>
			</g>
			<path class="st18" d="M180.7,52.3c-1.3,3.1-2.8,5.8-4.3,8c-2.6,3.5-5.3,5.4-7.9,5.4c0,0,0,0,0,0c0,0,0,0,0,0c0,0,0,0,0,0
				c0,0,0,0,0,0c0,0-0.1,0-0.1,0c-0.1,0-0.2,0-0.3,0c0,0,0,0,0,0l0,0c0,0-0.1,0-0.1,0c0,0,0,0,0,0c-2.5-0.3-5.2-2.2-7.7-5.7
				c-1.5-2.1-3-4.7-4.3-7.7c-3.6,0.1-5.9,2.4-5.2,5.2l0.9,3.8c0.7,2.9,3.7,5.2,6.7,5.2H178c3,0,5.9-2.3,6.6-5.2l0.9-3.8
				C186.1,54.8,184,52.5,180.7,52.3z"/>
			<g>
				<path class="st18" d="M181.9,33.6c0.9,0,1.6,2.1,1.6,4.6c0,2.6-0.7,4.6-1.6,4.6c0,0-0.1-2.8-0.1-5.1
					C181.8,35.6,181.9,33.6,181.9,33.6z"/>
			</g>
			<g>
				<path class="st18" d="M154,33.6c-0.9,0-1.6,2.1-1.6,4.6c0,2.6,0.7,4.6,1.6,4.6c0,0,0.1-2.8,0.1-5.1
					C154.2,35.6,154,33.6,154,33.6z"/>
			</g>
			<g>
				<path class="st18" d="M181.5,43c0,0-0.1-2.4-0.1-4.7l0,0c0,0,0,0,0,0c0,0,0,0,0,0l0,0c0-2.3,0.1-4.7,0.1-4.7
					c0.1-0.2,0.3-0.4,0.5-0.4v-8.1c0.3-0.2,0.4-0.5,0.4-0.8c0-0.5-0.4-1-1-1c-0.5,0-1,0.4-1,1c0,0.3,0.2,0.6,0.4,0.8v5.9
					c0,0,0,0,0,0c-2.3-5-6.9-8.3-12.9-8.3c6.4,0.1,11.2,4.5,12.7,10.8c0,1.7-0.1,3.8-0.1,5.1c0,1,0,2.4,0.1,3.7l-0.1,0.5
					c-2.6,11.3-7.7,19.9-12.2,20.1v0c4.4-0.1,9.4-7.2,12.6-17.2c0.4-0.2,0.8-1,1-2.3C181.8,43.3,181.6,43.2,181.5,43z"/>
			</g>
			<g>
				<path class="st18" d="M180,36.3c-0.7-7.9-5.4-13.7-12.2-13.7l-1.5,0.1c-5.6,0.2-9.4,3.3-11.2,8.2h0l0,0c0,0,0,0,0,0h0l0,0
					c-0.5,0-0.9,0.9-1.2,2.3c0.2,0,0.4,0.1,0.4,0.4c0,0,0.1,2.4,0.1,4.7h0c0,0,0,0,0,0c0,0,0,0,0,0h0c0,2.3-0.1,4.7-0.1,4.7
					c-0.1,0.2-0.3,0.3-0.4,0.4c0.3,1.4,0.7,2.3,1.1,2.3v0h0c0,0,0,0,0,0l0,0c3.3,9.7,8.2,16.6,12.5,17.1c0.2,0,0.3,0,0.5,0
					c0,0,0,0,0,0c0,0,0,0,0,0v0c3.9-0.1,8.4-7.3,10.7-16.7c-0.1,0.5-0.7,1.6-2.6,1.6c-1.1,0-4.6,0-8.1,0v0c-1.1,0-2.2,0-3.3,0
					c-2.6,0-4.7,0-5.5,0c-2.1,0-2.4-1.8-2.4-1.8l-1.1-9.5c0,0,1.2,1.8,3.6,1.8c1.6,0,7.7,0,12.2,0c2.2,0,4.1,0,4.7,0
					c1.9,0,3.5-1.8,3.6-1.8C180,36.4,180,36.4,180,36.3L180,36.3z"/>
				<path class="st18" d="M162.7,45c-1.1,0-2.1-0.8-2.4-1.8c-0.9,0-1.6,0-1.8,0c-0.4,0-0.9-0.3-1.2-0.6l0.3,3.1
					c0,0.2,0.3,1.2,1.7,1.2c0.8,0,2.9,0,5.5,0c4.4,0,9.9,0,11.4,0c1.7,0,1.9-1.1,1.9-1.2l0.9-7.7c-0.7,0.5-1.7,0.9-2.7,0.9
					c-0.6,0-2.1,0-4.7,0c-2.8,0-6.3,0-8.8,0c-1.5,0-2.8,0-3.4,0c-1.1,0-2-0.3-2.7-0.7l0.4,3.2c0.2,0.2,0.6,0.3,0.9,0.3
					c0.2,0,1.1,0,2.3,0c0.4-0.9,1.2-1.5,2.3-1.5c1,0,1.9,0.6,2.3,1.5c2.8,0,5.4,0,5.4,0l0,1.6c0,0-2.5,0-5.3,0
					C164.8,44.3,163.9,45,162.7,45z"/>
			</g>
		</g>
	</g>
</g>
<g id="Layer_9" class="st0">
	<g class="st2">
		<circle class="st19" cx="62.9" cy="65" r="35.1"/>
		<path class="st20" d="M108.6,46.3h19.1v3.9h-7V70h-5.1V50.3h-7V46.3z"/>
		<path class="st20" d="M137.7,50.3h6.3c2.2,0,3.5,0.9,3.5,3c0,2.1-1.3,3.2-3.5,3.2h-6.3V50.3z M137.7,60.6h5.4c0,0,3.3,7.3,3.7,9.4
			h6.2l-4.8-9.7c3.4-0.9,4.3-4.9,4.3-8c0-4.8-5.3-6.1-9.8-6h-10V70h5.1V60.6z"/>
		<path class="st20" d="M159.3,46.3h16.9v3.9h-11.9v5.6h10.9v3.9h-10.9V66h12.2V70h-17.3V46.3z"/>
		<path class="st20" d="M197,70l-8.7-15.7l-0.1,0.1V70h-4.7V46.3h6.3l8.6,15.4l0.1-0.1V46.3h4.7V70H197z"/>
		<path class="st20" d="M215.7,50.5h2.6c6-0.1,6.9,3.9,6.9,7.7c0,3.8-0.9,8-6.9,7.9h-2.6V50.5z M210.6,70h8
			c7.4,0.1,11.9-3.6,11.9-11.8c0-8.2-4.6-11.9-11.9-11.8h-8V70z"/>
		<path class="st20" d="M124.5,89.4H122V79.1l-2.6,10.3h-2.5l-2.6-10.3l0,10.3h-2.5V76.3h4l2.4,8.9l2.4-8.9h4V89.4z"/>
		<path class="st20" d="M144.4,89.4h-2.6V76.3h2.6V89.4z"/>
		<path class="st20" d="M196.6,80.9c-0.2,0.4-0.4,0.6-0.8,0.7c-0.2,0.1-0.5,0.1-0.8,0.1c-0.3,0-0.7,0-1.3,0c-0.1,0-0.2,0-0.3,0h-2
			v-3.3h2.1c1,0,1.6,0,1.8,0c0.3,0,0.5,0.1,0.8,0.3c0.3,0.1,0.4,0.3,0.5,0.6c0.1,0.2,0.2,0.5,0.2,0.8
			C196.7,80.4,196.7,80.7,196.6,80.9z M196.8,83.9c0,0,0.6-0.1,0.8-0.2c0.6-0.3,1.1-0.7,1.5-1.3c0.4-0.6,0.4-1.6,0.4-2.3
			c0-0.7-0.3-1.4-0.6-2c-0.4-0.7-0.9-1.2-1.6-1.4c-0.3-0.1-0.6-0.2-0.9-0.2c-0.5-0.1-1.2-0.1-2.1-0.1h-5.6v13.1h2.6v-5.2l2.5,0
			l2.8,5.2h3.2L196.8,83.9z"/>
		<path class="st20" d="M222.8,86.5c-0.6,0.6-1.4,0.8-2.3,0.8c-0.7,0-1.4-0.2-1.9-0.5c-0.4-0.3-0.8-0.7-1-1.1
			c-0.2-0.4-0.4-0.7-0.5-1.1c-0.1-0.5-0.2-1.1-0.2-1.8c0-1.2,0.2-2.2,0.7-3c0.6-1,1.6-1.5,2.9-1.5c1.4,0,2.4,0.6,3,1.7
			c0.4,0.7,0.6,1.7,0.6,2.8C224.1,84.5,223.7,85.7,222.8,86.5z M225.2,78c-1.1-1.3-2.7-2-4.8-2c-2,0-3.6,0.6-4.7,1.8
			c-1.1,1.2-1.7,2.9-1.7,5c0,1.8,0.4,3.3,1.3,4.5c1.1,1.5,2.8,2.2,5,2.2c2.2,0,3.8-0.7,4.9-2.1c1-1.2,1.4-2.8,1.4-4.7
			C226.8,80.8,226.3,79.2,225.2,78z"/>
		<path class="st20" d="M170.1,80.6c-0.2-0.8-0.6-2.3-2.9-2.3c-1.3,0-3.2,0.9-3.2,4.6c0,2.3,0.9,4.4,3.2,4.4c1.5,0,2.6-0.9,2.9-2.4
			h2.7c-0.5,2.8-2.4,4.8-5.7,4.8c-3.5,0-5.9-2.3-5.9-6.8c0-4.6,2.6-6.9,6-6.9c3.9,0,5.5,2.7,5.6,4.6H170.1z"/>
		<path class="st20" d="M231.6,71.5h-1.4v3.8h-0.6v-3.8h-1.4V71h3.4V71.5z"/>
		<path class="st20" d="M236.3,75.2h-0.5v-3.6l-1.2,3.6H234l-1.2-3.6l0,3.6h-0.5V71h0.8l1,3c0,0,0,0.1,0.1,0.4
			c0,0.1,0.1,0.2,0.1,0.3l0.2-0.7l1-3h0.8V75.2z"/>
		<g>
			<path class="st21" d="M34.2,71.7c0,0,0-0.1,0-0.1c0-0.1,0.1-0.3,0.1-0.4c0-0.1,0.1-0.2,0.1-0.3c0-0.1,0-0.1,0.1-0.2
				c0.7-1.6,1.5-3.3,2.5-5c0.1-0.3,0.3-0.6,0.4-0.8l-4.2,0l1-2.3c3.5-0.9,9.3-2.9,14.8-8.2l0.2,0h2.9l-3.8,8.1l6,0l-1.1,2.4l-6,0
				c0,0-2.8,5.7-3.8,9.7c-0.7,4.5,0,7.9,4,9.2c2.5,0.8,5.6,0.6,9-0.4c7.8-2.4,16.2-7.8,22.3-14.9C88.8,56.8,89,44.8,79.2,41.7
				c-6.3-2-15.2,0.2-23.4,5.1c10.3-6.6,21.5-9.7,29.3-7.3c1.5,0.5,2.7,1.1,3.8,1.9c-6.4-7.1-15.7-11.5-26-11.5
				c-19.4,0-35.1,15.7-35.1,35.1c0,7.2,2.1,13.8,5.8,19.4C32.2,80.9,32.4,76.5,34.2,71.7z"/>
			<path class="st21" d="M92.7,46.4c2.3,6.4-0.6,15.9-8.7,25.3C71.8,85.9,52.5,94.4,41,90.8c-1.4-0.4-2.7-1.1-3.7-1.8
				c6.4,6.8,15.5,11.1,25.6,11.1C82.3,100.1,98,84.4,98,65C98,58.2,96,51.8,92.7,46.4z"/>
		</g>
	</g>
</g>
<g id="Layer_10" class="st0">
	<g class="st2">
		<path class="st22" d="M95.8,65.5c-1.3,3.8-1.3,3.8-1.3,3.8c-0.1,0-0.1,0-0.1,0c-0.1-0.9-0.6-2.2-1.3-3.8
			c-7.3-18.7-7.3-18.7-7.3-18.7c-7.3,0-7.3,0-7.3,0c0,29.7,0,29.7,0,29.7c4.8,0,4.8,0,4.8,0c0-18.2,0-18.2,0-18.2
			c0-1.2,0-2.5-0.1-4.1c0-0.7,0-1.3-0.1-1.9c0.1,0,0.1,0,0.1,0c0.3,1.2,0.6,2.1,0.7,2.6c8.8,21.6,8.8,21.6,8.8,21.6
			c3.4,0,3.4,0,3.4,0c8.8-21.9,8.8-21.9,8.8-21.9c0.3-0.4,0.4-1.5,0.7-2.4l0,0c-0.1,2.2-0.1,4.1-0.1,5.4c0,18.8,0,18.8,0,18.8
			c5,0,5,0,5,0c0-29.7,0-29.7,0-29.7c-6.9,0-6.9,0-6.9,0L95.8,65.5z"/>
		<rect x="115.2" y="55.2" class="st22" width="5" height="21.3"/>
		<path class="st22" d="M117.8,46.2c-0.9,0-1.6,0.3-2.2,0.9c-0.6,0.4-0.9,1.2-0.9,2.1c0,0.7,0.3,1.5,0.9,2.1
			c0.6,0.4,1.3,0.7,2.2,0.7c0.7,0,1.5-0.3,2.1-0.7c0.6-0.6,0.9-1.3,0.9-2.1c0-0.9-0.3-1.5-0.9-2.1C119.3,46.5,118.5,46.2,117.8,46.2
			z"/>
		<path class="st22" d="M137.7,55c-0.9-0.3-1.8-0.3-2.8-0.3c-2.2,0-4.2,0.4-6,1.5c-1.8,0.9-3.1,2.4-4,4.1c-0.9,1.8-1.3,3.8-1.3,6
			c0,2.1,0.4,3.8,1.3,5.4c0.9,1.6,2,2.9,3.7,3.8c1.6,0.9,3.4,1.3,5.4,1.3c2.3,0,4.4-0.4,6-1.3c0.1-0.1,0.1-0.1,0.1-0.1
			c0-4.6,0-4.6,0-4.6c-0.3,0.1-0.3,0.1-0.3,0.1c-0.7,0.6-1.5,1-2.3,1.3c-0.9,0.3-1.8,0.4-2.5,0.4c-1.9,0-3.5-0.6-4.7-1.8
			c-1-1.3-1.6-2.9-1.6-5.1c0-2.1,0.6-3.8,1.8-5.1c1.2-1.3,2.8-1.9,4.7-1.9c1.6,0,3.2,0.6,4.7,1.6c0.3,0.1,0.3,0.1,0.3,0.1
			c0-4.9,0-4.9,0-4.9c-0.1,0-0.1,0-0.1,0C139.5,55.5,138.8,55.2,137.7,55z"/>
		<path class="st22" d="M154.1,54.9c-1.2,0-2.3,0.3-3.2,1.2c-0.9,0.7-1.5,1.6-1.9,2.8c-0.1,0-0.1,0-0.1,0c0-3.7,0-3.7,0-3.7
			c-5,0-5,0-5,0c0,21.3,0,21.3,0,21.3c5,0,5,0,5,0c0-10.9,0-10.9,0-10.9c0-1.9,0.4-3.4,1.3-4.6c0.7-1.2,1.9-1.8,3.2-1.8
			c0.4,0,0.9,0.1,1.5,0.3c0.6,0.1,0.9,0.3,1.2,0.4c0.1,0.1,0.1,0.1,0.1,0.1c0-5,0-5,0-5l0,0C155.8,54.9,155,54.9,154.1,54.9z"/>
		<path class="st22" d="M171.7,71.1c-1,1.2-2.3,1.8-4.2,1.8c-1.8,0-3.2-0.6-4.2-1.8c-1-1.2-1.6-2.9-1.6-5.1c0-2.2,0.6-4,1.6-5.3
			c1-1.2,2.5-1.8,4.2-1.8c1.8,0,3.1,0.6,4.1,1.8c1,1.2,1.5,2.9,1.5,5.1C173,68.1,172.6,69.9,171.7,71.1z M167.8,54.7
			c-3.5,0-6.3,1-8.3,2.9c-1.9,2.1-2.9,4.9-2.9,8.4c0,3.4,1,6,2.9,7.9c1.9,1.9,4.5,2.9,7.8,2.9c3.4,0,6.2-1,8.1-3.1
			c2-2.1,3.1-4.9,3.1-8.2s-1-6-2.8-7.9C173.6,55.6,171,54.7,167.8,54.7z"/>
		<path class="st22" d="M189.3,64c-1.6-0.6-2.6-1.2-2.9-1.6c-0.4-0.3-0.7-0.9-0.7-1.6c0-0.6,0.3-1,0.9-1.5c0.4-0.4,1.2-0.6,2.1-0.6
			c0.9,0,1.8,0.1,2.6,0.3c0.9,0.3,1.6,0.7,2.2,1c0.1,0.1,0.1,0.1,0.1,0.1c0-4.6,0-4.6,0-4.6l0,0c-0.6-0.3-1.3-0.4-2.3-0.7
			c-0.9-0.1-1.8-0.1-2.5-0.1c-2.3,0-4.2,0.6-5.7,1.8c-1.6,1.2-2.3,2.8-2.3,4.7c0,1,0.1,1.9,0.4,2.6c0.4,0.7,0.9,1.5,1.6,1.9
			c0.6,0.6,1.6,1.2,3.1,1.8c1,0.4,1.9,0.9,2.5,1.2c0.6,0.3,0.9,0.6,1.2,1c0.1,0.3,0.3,0.6,0.3,1.2c0,1.3-1,2.1-3.2,2.1
			c-0.9,0-1.8-0.1-2.8-0.4c-1-0.4-2.1-0.9-2.8-1.5c-0.3-0.1-0.3-0.1-0.3-0.1c0,4.9,0,4.9,0,4.9c0.1,0,0.1,0,0.1,0
			c0.6,0.4,1.6,0.6,2.6,0.9c1,0.1,2.1,0.3,2.8,0.3c2.6,0,4.7-0.6,6.2-1.8c1.6-1.3,2.3-2.9,2.3-4.9c0-1.5-0.4-2.6-1.2-3.7
			C192.7,65.6,191.2,64.7,189.3,64z"/>
		<path class="st22" d="M212,71.1c-0.9,1.2-2.3,1.8-4.1,1.8c-1.9,0-3.2-0.6-4.2-1.8c-1-1.2-1.6-2.9-1.6-5.1c0-2.2,0.6-4,1.6-5.3
			c1-1.2,2.3-1.8,4.2-1.8c1.8,0,3.1,0.6,4.1,1.8c1,1.2,1.5,2.9,1.5,5.1C213.5,68.1,213,69.9,212,71.1z M208.1,54.7
			c-3.4,0-6.2,1-8.2,2.9c-1.9,2.1-2.9,4.9-2.9,8.4c0,3.4,1,6,2.9,7.9c1.9,1.9,4.5,2.9,7.8,2.9c3.4,0,6.2-1,8.1-3.1
			c2.1-2.1,2.9-4.9,2.9-8.2s-0.9-6-2.8-7.9C214.1,55.6,211.4,54.7,208.1,54.7z"/>
		<path class="st22" d="M245.3,59.3c0-4.1,0-4.1,0-4.1c-5.1,0-5.1,0-5.1,0c0-6.3,0-6.3,0-6.3c-0.1,0-0.1,0-0.1,0
			c-4.7,1.5-4.7,1.5-4.7,1.5c-0.1,0.1-0.1,0.1-0.1,0.1c0,4.7,0,4.7,0,4.7c-7.5,0-7.5,0-7.5,0c0-2.6,0-2.6,0-2.6
			c0-1.2,0.3-2.2,0.9-2.8c0.4-0.7,1.3-1,2.2-1c0.7,0,1.5,0.1,2.2,0.6c0.3,0,0.3,0,0.3,0c0-4.3,0-4.3,0-4.3c-0.1,0-0.1,0-0.1,0
			c-0.7-0.3-1.6-0.4-2.8-0.4c-1.5,0-2.8,0.4-4,1c-1.2,0.6-2.1,1.5-2.8,2.6c-0.6,1.2-0.9,2.5-0.9,4c0,2.9,0,2.9,0,2.9
			c-3.5,0-3.5,0-3.5,0c0,4.1,0,4.1,0,4.1c3.5,0,3.5,0,3.5,0c0,17.2,0,17.2,0,17.2c5,0,5,0,5,0c0-17.2,0-17.2,0-17.2
			c7.5,0,7.5,0,7.5,0c0,10.9,0,10.9,0,10.9c0,4.6,2.1,6.8,6.3,6.8c0.7,0,1.3,0,2.1-0.1c0.9-0.3,1.3-0.4,1.6-0.6c0.1,0,0.1,0,0.1,0
			c0-4.1,0-4.1,0-4.1c-0.3,0.1-0.3,0.1-0.3,0.1c-0.3,0.1-0.6,0.3-1,0.4c-0.4,0.1-0.7,0.1-1,0.1c-0.9,0-1.6-0.3-2-0.7
			c-0.4-0.6-0.7-1.5-0.7-2.8c0-10,0-10,0-10H245.3z"/>
		<rect x="14.4" y="37" class="st23" width="23.4" height="23.5"/>
		<rect x="40.3" y="37" class="st24" width="23.3" height="23.5"/>
		<rect x="14.4" y="62.8" class="st25" width="23.4" height="23.5"/>
		<rect x="40.3" y="62.8" class="st26" width="23.3" height="23.5"/>
		<rect x="14.5" y="37.1" class="st15" width="231.2" height="49.8"/>
	</g>
</g>
<g id="Layer_11" class="st0">
	<g class="st2">
		<g>
			<path class="st8" d="M53.3,51.5H63c1.8,0,3.3,0.3,4.6,0.9c1.3,0.6,2.4,1.4,3.2,2.5c0.8,1.1,1.4,2.3,1.8,3.7
				c0.4,1.4,0.6,2.9,0.6,4.5s-0.2,3.1-0.6,4.5c-0.4,1.4-1,2.6-1.8,3.7c-0.8,1.1-1.9,1.9-3.2,2.5c-1.3,0.6-2.8,0.9-4.6,0.9h-9.6V51.5
				z M57.4,71.5h4c1.6,0,2.9-0.2,3.9-0.6c1-0.4,1.8-1,2.4-1.8c0.6-0.7,1-1.6,1.2-2.6c0.2-1,0.3-2.1,0.3-3.3c0-1.2-0.1-2.3-0.3-3.3
				c-0.2-1-0.6-1.9-1.2-2.6c-0.6-0.7-1.4-1.3-2.4-1.8c-1-0.4-2.3-0.6-3.9-0.6h-4V71.5z"/>
			<path class="st8" d="M90.4,71c0,0.5,0.1,0.8,0.2,1c0.1,0.2,0.4,0.3,0.7,0.3c0.1,0,0.2,0,0.4,0c0.2,0,0.3,0,0.5-0.1v2.6
				c-0.1,0-0.3,0.1-0.5,0.1c-0.2,0.1-0.4,0.1-0.6,0.1c-0.2,0-0.4,0.1-0.7,0.1c-0.2,0-0.4,0-0.6,0c-0.8,0-1.4-0.2-1.9-0.5
				s-0.8-0.8-1-1.6c-0.7,0.7-1.6,1.2-2.7,1.6c-1.1,0.3-2.1,0.5-3.1,0.5c-0.8,0-1.5-0.1-2.2-0.3c-0.7-0.2-1.3-0.5-1.8-0.9
				c-0.5-0.4-1-0.9-1.3-1.5s-0.5-1.3-0.5-2.2c0-1,0.2-1.9,0.6-2.5c0.4-0.7,0.9-1.2,1.5-1.5c0.6-0.4,1.3-0.6,2.1-0.8
				c0.8-0.2,1.5-0.3,2.3-0.4c0.7-0.1,1.3-0.2,1.9-0.3s1.1-0.1,1.6-0.3c0.5-0.1,0.8-0.3,1.1-0.6c0.3-0.3,0.4-0.7,0.4-1.2
				c0-0.5-0.1-0.9-0.3-1.2s-0.5-0.5-0.8-0.7c-0.3-0.2-0.7-0.3-1.1-0.3c-0.4-0.1-0.8-0.1-1.2-0.1c-1,0-1.9,0.2-2.6,0.7
				c-0.7,0.4-1.1,1.1-1.1,2H76c0.1-1.1,0.3-2,0.8-2.7c0.5-0.7,1-1.3,1.7-1.7c0.7-0.4,1.5-0.7,2.4-0.9c0.9-0.2,1.8-0.3,2.7-0.3
				c0.8,0,1.6,0.1,2.4,0.3c0.8,0.2,1.5,0.5,2.2,0.8s1.2,0.9,1.5,1.5c0.4,0.6,0.6,1.4,0.6,2.3V71z M86.7,66.4
				c-0.6,0.4-1.3,0.6-2.1,0.7c-0.8,0.1-1.7,0.2-2.5,0.3c-0.4,0.1-0.8,0.2-1.1,0.3c-0.4,0.1-0.7,0.3-1,0.5c-0.3,0.2-0.5,0.5-0.7,0.8
				c-0.2,0.3-0.2,0.7-0.2,1.2c0,0.4,0.1,0.8,0.4,1c0.2,0.3,0.5,0.5,0.9,0.7c0.3,0.2,0.7,0.3,1.1,0.3c0.4,0.1,0.8,0.1,1.1,0.1
				c0.4,0,0.9-0.1,1.3-0.2c0.5-0.1,0.9-0.3,1.4-0.6c0.4-0.3,0.8-0.6,1.1-1c0.3-0.4,0.4-0.9,0.4-1.5V66.4z"/>
			<path class="st8" d="M92.8,58h2.8v-5h3.7v5h3.4v2.8h-3.4v9c0,0.4,0,0.7,0,1c0,0.3,0.1,0.5,0.2,0.7c0.1,0.2,0.3,0.3,0.5,0.4
				c0.2,0.1,0.6,0.1,1,0.1c0.3,0,0.5,0,0.8,0s0.5,0,0.8-0.1v2.9c-0.4,0-0.8,0.1-1.2,0.1c-0.4,0-0.8,0.1-1.2,0.1
				c-1,0-1.8-0.1-2.4-0.3c-0.6-0.2-1.1-0.5-1.4-0.8c-0.3-0.4-0.6-0.8-0.7-1.4c-0.1-0.5-0.2-1.2-0.2-1.9v-9.9h-2.8V58z"/>
			<path class="st8" d="M119.4,71c0,0.5,0.1,0.8,0.2,1c0.1,0.2,0.4,0.3,0.7,0.3c0.1,0,0.2,0,0.4,0c0.2,0,0.3,0,0.5-0.1v2.6
				c-0.1,0-0.3,0.1-0.5,0.1c-0.2,0.1-0.4,0.1-0.6,0.1c-0.2,0-0.4,0.1-0.7,0.1c-0.2,0-0.4,0-0.6,0c-0.8,0-1.4-0.2-1.9-0.5
				s-0.8-0.8-1-1.6c-0.7,0.7-1.6,1.2-2.7,1.6c-1.1,0.3-2.1,0.5-3.1,0.5c-0.8,0-1.5-0.1-2.2-0.3c-0.7-0.2-1.3-0.5-1.8-0.9
				c-0.5-0.4-1-0.9-1.3-1.5s-0.5-1.3-0.5-2.2c0-1,0.2-1.9,0.6-2.5c0.4-0.7,0.9-1.2,1.5-1.5c0.6-0.4,1.3-0.6,2.1-0.8
				c0.8-0.2,1.5-0.3,2.3-0.4c0.7-0.1,1.3-0.2,1.9-0.3s1.1-0.1,1.6-0.3c0.5-0.1,0.8-0.3,1.1-0.6c0.3-0.3,0.4-0.7,0.4-1.2
				c0-0.5-0.1-0.9-0.3-1.2s-0.5-0.5-0.8-0.7c-0.3-0.2-0.7-0.3-1.1-0.3c-0.4-0.1-0.8-0.1-1.2-0.1c-1,0-1.9,0.2-2.6,0.7
				c-0.7,0.4-1.1,1.1-1.1,2H105c0.1-1.1,0.3-2,0.8-2.7c0.5-0.7,1-1.3,1.7-1.7c0.7-0.4,1.5-0.7,2.4-0.9c0.9-0.2,1.8-0.3,2.7-0.3
				c0.8,0,1.6,0.1,2.4,0.3c0.8,0.2,1.5,0.5,2.2,0.8s1.2,0.9,1.5,1.5c0.4,0.6,0.6,1.4,0.6,2.3V71z M115.7,66.4
				c-0.6,0.4-1.3,0.6-2.1,0.7c-0.8,0.1-1.7,0.2-2.5,0.3c-0.4,0.1-0.8,0.2-1.1,0.3c-0.4,0.1-0.7,0.3-1,0.5c-0.3,0.2-0.5,0.5-0.7,0.8
				c-0.2,0.3-0.2,0.7-0.2,1.2c0,0.4,0.1,0.8,0.4,1c0.2,0.3,0.5,0.5,0.9,0.7c0.3,0.2,0.7,0.3,1.1,0.3c0.4,0.1,0.8,0.1,1.1,0.1
				c0.4,0,0.9-0.1,1.3-0.2c0.5-0.1,0.9-0.3,1.4-0.6c0.4-0.3,0.8-0.6,1.1-1c0.3-0.4,0.4-0.9,0.4-1.5V66.4z"/>
			<path class="st9" d="M123.9,51.5H140v3.5h-12v6.1h10.5v3.3H128v10.3h-4.1V51.5z"/>
			<path class="st9" d="M150.4,75.3c-1.3,0-2.5-0.2-3.6-0.7c-1.1-0.4-1.9-1.1-2.7-1.8c-0.7-0.8-1.3-1.7-1.7-2.8
				c-0.4-1.1-0.6-2.3-0.6-3.6c0-1.3,0.2-2.5,0.6-3.6c0.4-1.1,0.9-2,1.7-2.8s1.6-1.4,2.7-1.8c1.1-0.4,2.3-0.7,3.6-0.7
				c1.3,0,2.5,0.2,3.6,0.7c1.1,0.4,1.9,1.1,2.7,1.8s1.3,1.7,1.7,2.8c0.4,1.1,0.6,2.3,0.6,3.6c0,1.3-0.2,2.5-0.6,3.6
				c-0.4,1.1-0.9,2-1.7,2.8c-0.7,0.8-1.6,1.4-2.7,1.8C153,75,151.8,75.3,150.4,75.3z M150.4,72.3c0.8,0,1.5-0.2,2.1-0.5
				s1.1-0.8,1.5-1.4s0.7-1.2,0.9-1.9c0.2-0.7,0.3-1.4,0.3-2.2c0-0.7-0.1-1.4-0.3-2.1c-0.2-0.7-0.5-1.4-0.9-1.9
				c-0.4-0.6-0.9-1-1.5-1.4c-0.6-0.3-1.3-0.5-2.1-0.5c-0.8,0-1.5,0.2-2.2,0.5c-0.6,0.3-1.1,0.8-1.5,1.4c-0.4,0.6-0.7,1.2-0.9,1.9
				c-0.2,0.7-0.3,1.4-0.3,2.1c0,0.7,0.1,1.5,0.3,2.2c0.2,0.7,0.5,1.3,0.9,1.9c0.4,0.6,0.9,1,1.5,1.4
				C148.9,72.1,149.6,72.3,150.4,72.3z"/>
			<path class="st9" d="M162,58h3.5v3.3h0.1c0.1-0.5,0.3-0.9,0.6-1.3c0.3-0.4,0.7-0.8,1.1-1.2c0.4-0.4,0.9-0.6,1.5-0.9
				c0.5-0.2,1.1-0.3,1.7-0.3c0.4,0,0.7,0,0.9,0c0.2,0,0.3,0,0.5,0.1v3.6c-0.3,0-0.5-0.1-0.8-0.1c-0.3,0-0.5,0-0.8,0
				c-0.6,0-1.2,0.1-1.8,0.4c-0.6,0.3-1,0.6-1.5,1.1c-0.4,0.5-0.7,1.1-1,1.8c-0.2,0.7-0.4,1.5-0.4,2.5v8H162V58z"/>
			<path class="st9" d="M173.4,58h2.8v-5h3.7v5h3.4v2.8H180v9c0,0.4,0,0.7,0,1c0,0.3,0.1,0.5,0.2,0.7s0.3,0.3,0.5,0.4
				c0.2,0.1,0.6,0.1,1,0.1c0.3,0,0.5,0,0.8,0s0.5,0,0.8-0.1v2.9c-0.4,0-0.8,0.1-1.2,0.1c-0.4,0-0.8,0.1-1.2,0.1
				c-1,0-1.8-0.1-2.4-0.3c-0.6-0.2-1.1-0.5-1.4-0.8s-0.6-0.8-0.7-1.4c-0.1-0.5-0.2-1.2-0.2-1.9v-9.9h-2.8V58z"/>
			<path class="st9" d="M186,58h3.5v3.3h0.1c0.1-0.5,0.3-0.9,0.6-1.3c0.3-0.4,0.7-0.8,1.1-1.2c0.4-0.4,0.9-0.6,1.5-0.9
				c0.5-0.2,1.1-0.3,1.7-0.3c0.4,0,0.7,0,0.9,0c0.2,0,0.3,0,0.5,0.1v3.6c-0.3,0-0.5-0.1-0.8-0.1c-0.3,0-0.5,0-0.8,0
				c-0.6,0-1.2,0.1-1.8,0.4c-0.6,0.3-1,0.6-1.5,1.1c-0.4,0.5-0.7,1.1-1,1.8c-0.2,0.7-0.4,1.5-0.4,2.5v8H186V58z"/>
			<path class="st9" d="M199.8,67.3c0,0.7,0.1,1.3,0.3,1.9c0.2,0.6,0.5,1.1,0.8,1.6c0.4,0.5,0.8,0.8,1.4,1.1s1.2,0.4,2,0.4
				c1.1,0,2-0.2,2.6-0.7c0.7-0.5,1.2-1.2,1.5-2.1h3.5c-0.2,0.9-0.5,1.7-1,2.4s-1.1,1.3-1.7,1.8c-0.7,0.5-1.4,0.9-2.3,1.1
				c-0.8,0.3-1.7,0.4-2.6,0.4c-1.3,0-2.5-0.2-3.5-0.7c-1-0.4-1.9-1-2.6-1.8c-0.7-0.8-1.2-1.7-1.6-2.8s-0.5-2.3-0.5-3.6
				c0-1.2,0.2-2.3,0.6-3.4c0.4-1.1,0.9-2,1.6-2.8s1.6-1.5,2.6-1.9c1-0.5,2.1-0.7,3.4-0.7c1.3,0,2.5,0.3,3.6,0.8s1.9,1.3,2.6,2.2
				c0.7,0.9,1.2,2,1.5,3.1c0.3,1.2,0.4,2.4,0.2,3.7H199.8z M208.4,64.9c0-0.6-0.2-1.2-0.4-1.7c-0.2-0.5-0.5-1-0.8-1.4
				c-0.4-0.4-0.8-0.7-1.3-1c-0.5-0.2-1.1-0.4-1.7-0.4c-0.7,0-1.2,0.1-1.8,0.3s-1,0.5-1.4,0.9s-0.7,0.9-0.9,1.4
				c-0.2,0.5-0.4,1.1-0.4,1.8H208.4z"/>
			<path class="st9" d="M217.8,69.4c0.1,1.1,0.5,1.8,1.2,2.3s1.6,0.7,2.6,0.7c0.3,0,0.7,0,1.2-0.1c0.4-0.1,0.9-0.2,1.3-0.3
				c0.4-0.2,0.7-0.4,1-0.7c0.3-0.3,0.4-0.7,0.3-1.2c0-0.5-0.2-0.9-0.5-1.2c-0.3-0.3-0.7-0.5-1.3-0.7c-0.5-0.2-1.1-0.3-1.7-0.5
				s-1.3-0.3-2-0.4c-0.7-0.2-1.4-0.3-2-0.6c-0.6-0.2-1.2-0.5-1.7-0.9c-0.5-0.4-0.9-0.8-1.2-1.4c-0.3-0.6-0.5-1.3-0.5-2.1
				c0-0.9,0.2-1.7,0.7-2.3c0.4-0.6,1-1.1,1.7-1.5c0.7-0.4,1.4-0.6,2.3-0.8s1.6-0.2,2.4-0.2c0.9,0,1.7,0.1,2.5,0.3s1.5,0.5,2.2,0.9
				c0.6,0.4,1.2,1,1.6,1.6c0.4,0.7,0.7,1.5,0.8,2.4h-3.9c-0.2-0.9-0.6-1.5-1.2-1.8c-0.6-0.3-1.4-0.5-2.2-0.5c-0.3,0-0.6,0-0.9,0.1
				s-0.7,0.1-1,0.2c-0.3,0.1-0.6,0.3-0.8,0.5c-0.2,0.2-0.3,0.5-0.3,0.9c0,0.5,0.2,0.8,0.5,1.1c0.3,0.3,0.7,0.5,1.2,0.7
				c0.5,0.2,1.1,0.3,1.7,0.5c0.7,0.1,1.3,0.3,2,0.4c0.7,0.2,1.3,0.3,2,0.6c0.7,0.2,1.2,0.5,1.7,0.9c0.5,0.4,0.9,0.8,1.2,1.4
				c0.3,0.6,0.5,1.3,0.5,2.1c0,1-0.2,1.8-0.7,2.5s-1.1,1.3-1.8,1.7c-0.7,0.4-1.5,0.8-2.4,0.9s-1.8,0.3-2.6,0.3c-1.1,0-2.1-0.1-3-0.4
				c-0.9-0.2-1.7-0.6-2.4-1.1c-0.7-0.5-1.2-1.1-1.6-1.8c-0.4-0.7-0.6-1.6-0.6-2.6H217.8z"/>
			<path class="st9" d="M234.7,69.4c0.1,1.1,0.5,1.8,1.2,2.3s1.6,0.7,2.6,0.7c0.3,0,0.7,0,1.2-0.1c0.4-0.1,0.9-0.2,1.3-0.3
				c0.4-0.2,0.7-0.4,1-0.7c0.3-0.3,0.4-0.7,0.3-1.2c0-0.5-0.2-0.9-0.5-1.2c-0.3-0.3-0.7-0.5-1.3-0.7c-0.5-0.2-1.1-0.3-1.7-0.5
				s-1.3-0.3-2-0.4c-0.7-0.2-1.4-0.3-2-0.6c-0.6-0.2-1.2-0.5-1.7-0.9c-0.5-0.4-0.9-0.8-1.2-1.4c-0.3-0.6-0.5-1.3-0.5-2.1
				c0-0.9,0.2-1.7,0.7-2.3c0.4-0.6,1-1.1,1.7-1.5c0.7-0.4,1.4-0.6,2.3-0.8s1.6-0.2,2.4-0.2c0.9,0,1.7,0.1,2.5,0.3s1.5,0.5,2.2,0.9
				c0.6,0.4,1.2,1,1.6,1.6c0.4,0.7,0.7,1.5,0.8,2.4h-3.9c-0.2-0.9-0.6-1.5-1.2-1.8c-0.6-0.3-1.4-0.5-2.2-0.5c-0.3,0-0.6,0-0.9,0.1
				s-0.7,0.1-1,0.2c-0.3,0.1-0.6,0.3-0.8,0.5c-0.2,0.2-0.3,0.5-0.3,0.9c0,0.5,0.2,0.8,0.5,1.1c0.3,0.3,0.7,0.5,1.2,0.7
				c0.5,0.2,1.1,0.3,1.7,0.5c0.7,0.1,1.3,0.3,2,0.4c0.7,0.2,1.3,0.3,2,0.6c0.7,0.2,1.2,0.5,1.7,0.9c0.5,0.4,0.9,0.8,1.2,1.4
				c0.3,0.6,0.5,1.3,0.5,2.1c0,1-0.2,1.8-0.7,2.5s-1.1,1.3-1.8,1.7c-0.7,0.4-1.5,0.8-2.4,0.9s-1.8,0.3-2.6,0.3c-1.1,0-2.1-0.1-3-0.4
				c-0.9-0.2-1.7-0.6-2.4-1.1c-0.7-0.5-1.2-1.1-1.6-1.8c-0.4-0.7-0.6-1.6-0.6-2.6H234.7z"/>
		</g>
		<g>
			<linearGradient id="SVGID_5_" gradientUnits="userSpaceOnUse" x1="24.1765" y1="63.1888" x2="40.1919" y2="63.1888">
				<stop  offset="0" style="stop-color:#F7AC00"/>
				<stop  offset="6.370012e-02" style="stop-color:#F4A502"/>
				<stop  offset="0.1594" style="stop-color:#EC9006"/>
				<stop  offset="0.2751" style="stop-color:#DF6E0E"/>
				<stop  offset="0.4054" style="stop-color:#CD4018"/>
				<stop  offset="0.5091" style="stop-color:#BD1622"/>
				<stop  offset="0.5297" style="stop-color:#C3241E"/>
				<stop  offset="0.5847" style="stop-color:#D24515"/>
				<stop  offset="0.6442" style="stop-color:#DD600D"/>
				<stop  offset="0.7087" style="stop-color:#E77507"/>
				<stop  offset="0.7807" style="stop-color:#ED8403"/>
				<stop  offset="0.8662" style="stop-color:#F18C01"/>
				<stop  offset="1" style="stop-color:#F28F00"/>
			</linearGradient>
			<polygon class="st27" points="40.3,66.5 23.5,66.5 23.5,59.9 40.3,59.9 40.3,66.5 			"/>
			<linearGradient id="SVGID_6_" gradientUnits="userSpaceOnUse" x1="35.1157" y1="52.0939" x2="42.2275" y2="45.4538">
				<stop  offset="0" style="stop-color:#FFDD00"/>
				<stop  offset="0.5607" style="stop-color:#FEE104"/>
				<stop  offset="1" style="stop-color:#FCEA0D"/>
			</linearGradient>
			<path class="st28" d="M35.6,54.2c0-3.1,2.6-4.7,5.2-4.7h6.4v-6.7h-6.4c-6.6,0-11.9,5-11.9,11.4H35.6z"/>
			<linearGradient id="SVGID_7_" gradientUnits="userSpaceOnUse" x1="18.4864" y1="71.509" x2="28.8996" y2="71.9249">
				<stop  offset="0" style="stop-color:#F7A807"/>
				<stop  offset="0.4138" style="stop-color:#F8AC06"/>
				<stop  offset="0.8609" style="stop-color:#FAB902"/>
				<stop  offset="1" style="stop-color:#FBBF00"/>
			</linearGradient>
			<path class="st29" d="M35.6,71.7c0,6.5-5.3,11.9-11.9,11.9l0,0c-6.5,0-11.9-5.3-11.9-11.9c0-6.5,5.3-11.9,11.9-11.9l0,0v6.7l0,0
				c-2.9,0-5.2,2.3-5.2,5.2c0,2.9,2.3,5.2,5.2,5.2c2.9,0,5.2-2.3,5.2-5.2H35.6z"/>
			<linearGradient id="SVGID_8_" gradientUnits="userSpaceOnUse" x1="31.7848" y1="68.3027" x2="32.8421" y2="55.4806">
				<stop  offset="0" style="stop-color:#FBBF00"/>
				<stop  offset="0.3591" style="stop-color:#FCC300"/>
				<stop  offset="0.7472" style="stop-color:#FDD000"/>
				<stop  offset="1" style="stop-color:#FFDD00"/>
			</linearGradient>
			<rect x="28.9" y="54.2" class="st30" width="6.7" height="17.6"/>
		</g>
	</g>
</g>
<g id="Layer_12">
	<g>
		<defs>
			<rect id="SVGID_9_" x="15" y="32.3" width="224.4" height="65.5"/>
		</defs>
		<clipPath id="SVGID_10_">
			<use xlink:href="#SVGID_9_"  style="overflow:visible;"/>
		</clipPath>
		<path class="st31" d="M122.6,39.7c-5.7-5-13-7.4-20.6-7.4c-0.2,0-0.4,0-0.6,0c-0.2,0-0.4,0-0.6,0c-7.6,0-14.9,2.4-20.6,7.4
			c-0.4,0.3-1,1-0.8,1.5c0.1,0.5,0.9,0.7,1.4,0.8c6.6,1.3,12.9,3.9,18,6.9c0.7,0.4,1.3,0.8,1.8,1.1c0.2,0.1,0.5,0.2,0.7,0.2
			c0,0,0,0,0,0c0,0,0,0,0,0c0.2,0,0.5-0.1,0.7-0.2c0.5-0.3,1.1-0.7,1.8-1.1c5.1-3,11.5-5.6,18-6.9c0.5-0.1,1.3-0.3,1.4-0.8
			C123.6,40.7,123,40,122.6,39.7"/>
		<path class="st31" d="M73.1,69.6c-0.8,0-1.5-0.1-2.2-0.4c-0.5-0.2-0.8-0.6-0.9-1.1c-0.2-1.5-0.3-3.1-0.4-4.7
			c0-5.1,1.2-10.3,3.5-14.8c0.2-0.5,0.7-0.7,1.2-0.7c0.2,0,0.4,0,0.6,0.1c1,0.5,2,1,2.9,1.6c0.4,0.2,0.6,0.6,0.6,1
			c0,0.4-0.1,0.8-0.4,1.1c-2.4,2.3-3.7,5.6-3.7,8.9c0,2.3,0.6,4.5,1.8,6.4c0.2,0.3,0.3,0.7,0.1,1.1c-0.1,0.4-0.4,0.7-0.7,0.8
			C74.8,69.5,74,69.6,73.1,69.6"/>
		<path class="st31" d="M131.5,43.7c0-0.3-0.3-0.9-1.6-1c0,0-0.1,0-0.1,0h0c-5.9,0-8.6,1-14.1,3c-6.7,2.4-11.6,5.5-13.5,6.8
			c-0.2,0.1-0.5,0.2-0.8,0.2c-0.4,0-0.7-0.2-1-0.4c-2.1-1.4-6.8-4.3-13.3-6.6c-5.5-2-8.1-3-14.1-3h0c0,0-0.1,0-0.1,0
			c-1.3,0.1-1.5,0.7-1.6,1c0,0.1,0,0.1,0,0.2c0,0,0,0,0,0c0,0,0,0.1,0,0.1c0,0,0,0,0,0c0,0,0,0,0,0c0,0.1,0.1,0.2,0.1,0.3
			c0.2,0.3,0.5,0.6,1.3,0.9c0,0,0.1,0,0.1,0c0.1,0,0.2,0.1,0.3,0.1c6.9,2.6,11.3,6.2,15.4,10.1c5.3,5.3,8.8,13.1,10.9,21
			c0.3,0.8,1.1,1.2,1.8,1.2c0,0,0.1,0,0.1,0c0,0,0.1,0,0.1,0h0h0c0,0,0.1,0,0.1,0c0,0,0.1,0,0.1,0c0.7,0,1.5-0.4,1.8-1.2
			c2.1-7.9,5.6-15.7,10.9-21c4-3.9,8.5-7.5,15.4-10.1c0.1,0,0.2-0.1,0.3-0.1c0,0,0.1,0,0.1,0c0.7-0.3,1.1-0.6,1.3-0.9
			c0.1-0.1,0.1-0.2,0.1-0.3v0c0,0,0,0,0,0c0-0.1,0-0.1,0-0.1c0,0,0,0,0,0C131.5,43.8,131.5,43.8,131.5,43.7"/>
		<path class="st31" d="M90.5,61.5c-0.6,1.7-2.3,3-4.2,3c-2.5,0-4.5-2-4.5-4.5c0-2.2,1.5-4,3.6-4.4C84,54.3,82.5,53,81,51.9
			c-2.7,1.8-4.5,4.9-4.5,8.4c0,5.6,4.6,10.2,10.2,10.2c2.8,0,5.6-1.4,7.4-3.2C93.1,65.3,91.9,63.4,90.5,61.5"/>
		<path class="st32" d="M237,77.1c1.3,0,2.3,1,2.3,2.3c0,1.3-1,2.3-2.3,2.3c-1.3,0-2.3-1-2.3-2.3C234.7,78.1,235.7,77.1,237,77.1
			L237,77.1z M237,77.5c-1,0-1.7,0.8-1.7,1.8c0,1,0.7,1.8,1.8,1.8c1,0,1.7-0.8,1.7-1.8C238.8,78.3,238,77.5,237,77.5L237,77.5z
			 M236.7,80.5h-0.5v-2.3c0.2,0,0.5-0.1,0.9-0.1c0.4,0,0.6,0.1,0.8,0.2c0.1,0.1,0.2,0.3,0.2,0.5c0,0.3-0.2,0.5-0.5,0.5v0
			c0.2,0.1,0.3,0.2,0.4,0.6c0.1,0.3,0.1,0.5,0.2,0.6h-0.6c-0.1-0.1-0.1-0.3-0.2-0.5c0-0.2-0.2-0.4-0.5-0.4h-0.2V80.5z M236.7,79.2
			h0.2c0.3,0,0.5-0.1,0.5-0.3c0-0.2-0.2-0.3-0.5-0.3c-0.1,0-0.2,0-0.3,0V79.2z"/>
		<path class="st32" d="M28.1,69.6c7,0,10.9,4.4,10.9,7c0,1.7-0.9,2.8-2.8,2.8c-3.5,0-2.5-4.9-8.1-4.9c-3.8,0-7,3.3-7,9.2
			c0,4.9,1.9,9.2,7.2,9.2c4.8,0,4.7-5.2,7.7-5.2c1.5,0,3,0.9,3,2.4c0,3.9-4.7,7.7-10.6,7.7C20,97.7,15,92.9,15,83.6
			C15,76.1,19.5,69.6,28.1,69.6"/>
		<path class="st32" d="M50,77.1c6.6,0,10.1,4.5,10.1,10.2c0,5.5-2.7,10.3-10.1,10.3c-7.4,0-10.1-4.8-10.1-10.3
			C39.9,81.6,43.4,77.1,50,77.1 M50,93.5c3.2,0,4.6-2.9,4.6-6.2c0-3.5-1.5-6.2-4.6-6.2c-3.2,0-4.6,2.7-4.6,6.2
			C45.4,90.6,46.7,93.5,50,93.5"/>
		<path class="st32" d="M61.4,79.8c0-1.6,0.7-2.7,2.5-2.7c1.7,0,2.5,1.1,2.5,2.7v0.7h0.1c1.5-2,3.5-3.4,6.6-3.4
			c3.3,0,6.9,1.6,6.9,7.2v10.6c0,1.5-0.6,2.7-2.7,2.7c-2.1,0-2.7-1.3-2.7-2.7v-9.5c0-2.2-1.1-3.8-3.4-3.8c-1.9,0-4.1,1.6-4.1,4.3v9
			c0,1.5-0.6,2.7-2.7,2.7c-2.1,0-2.7-1.3-2.7-2.7V79.8z"/>
		<path class="st32" d="M81.7,79.8c0-1.6,0.7-2.7,2.5-2.7c1.7,0,2.5,1.1,2.5,2.7v0.7h0.1c1.5-2,3.5-3.4,6.6-3.4
			c3.3,0,6.9,1.6,6.9,7.2v10.6c0,1.5-0.6,2.7-2.7,2.7c-2.1,0-2.7-1.3-2.7-2.7v-9.5c0-2.2-1.1-3.8-3.4-3.8c-1.9,0-4.1,1.6-4.1,4.3v9
			c0,1.5-0.6,2.7-2.7,2.7c-2.1,0-2.7-1.3-2.7-2.7V79.8z"/>
		<path class="st32" d="M107,88.4c0,2.9,1.9,5,5,5c4.1,0,4.1-2.7,6.3-2.7c1.3,0,2.2,1.1,2.2,2.1c0,3.3-5.3,4.8-8.6,4.8
			c-7.6,0-10.5-5.2-10.5-9.9c0-6.3,3.8-10.6,10.3-10.6c6.3,0,9.9,4.4,9.9,8.9c0,1.9-0.6,2.4-2.4,2.4H107z M116.6,85.2
			c-0.3-2.5-2.2-4.3-4.6-4.3c-2.7,0-4.4,1.7-5,4.3H116.6z"/>
		<path class="st32" d="M132.6,77.1c4.6,0,8,2.6,8,5.1c0,1.6-1.2,2.4-2.5,2.4c-2.6,0-1.6-3.2-5.6-3.2c-2.1,0-4.6,1.5-4.6,6.4
			c0,3.4,1.6,5.6,4.6,5.6c3.8,0,3-3.5,5.9-3.5c1.4,0,2.3,1,2.3,2.1c0,2.4-2.7,5.7-8.3,5.7c-6.7,0-9.9-4.1-9.9-9.9
			C122.4,81.4,125.9,77.1,132.6,77.1"/>
		<path class="st32" d="M144.2,81.1h-0.9c-1.5,0-2.2-0.6-2.2-1.8c0-1.2,0.6-1.8,2.2-1.8h0.9v-3.3c0-1.8,1.1-2.7,2.7-2.7
			c1.6,0,2.7,0.9,2.7,2.7v3.3h1.6c1.6,0,2.5,0.5,2.5,1.8c0,1.3-0.9,1.8-2.5,1.8h-1.6v10.9c0,0.8,0.4,1.3,1.4,1.3h0.8
			c1.2,0,1.9,0.7,1.9,1.8c0,1.6-1.3,2.4-4,2.4c-4,0-5.6-1.6-5.6-4.9V81.1z"/>
		<path class="st32" d="M182.1,94.7c-0.6,2.1-1.5,2.9-3.7,2.9c-2.3,0-3.1-1-3.7-3l-4-16.4h-0.1l-4,16.4c-0.5,2.1-1.3,3-3.7,3
			c-2.2,0-3.1-0.8-3.7-2.9l-5.3-20.4c-0.1-0.6-0.3-1.2-0.3-1.8c0-1.9,1.5-2.8,3-2.8c1.6,0,2.5,0.7,2.9,2.5l3.6,17.9h0.1l4.2-18.1
			c0.3-1.5,0.9-2.3,3.2-2.3c2.6,0,3.1,1.2,3.5,2.9l4.1,17.4h0.1l3.7-17.9c0.4-1.8,1.3-2.5,2.8-2.5c1.4,0,2.9,0.9,2.9,2.8
			c0,0.6-0.1,1.2-0.3,1.8L182.1,94.7z"/>
		<path class="st32" d="M191.5,69.6c1.6,0,2.8,1.3,2.8,2.8c0,1.6-1.3,2.8-2.8,2.8c-1.6,0-2.8-1.3-2.8-2.8
			C188.7,70.8,190,69.6,191.5,69.6 M188.8,79.8c0-1.5,0.6-2.7,2.7-2.7c2.1,0,2.7,1.3,2.7,2.7v15.1c0,1.5-0.6,2.7-2.7,2.7
			c-2.1,0-2.7-1.3-2.7-2.7V79.8z"/>
		<path class="st32" d="M203.7,77.1c4.1,0,8.3,1.6,8.3,4.1c0,1.3-0.9,2.4-2.3,2.4c-2.1,0-2.2-2.5-5.6-2.5c-1.9,0-3.1,0.5-3.1,1.7
			c0,1.3,1.2,1.6,2.9,1.9l2.3,0.5c3.1,0.7,6.8,2,6.8,5.8c0,4.4-4.3,6.5-8.4,6.5c-4.9,0-9-2.2-9-4.9c0-1.2,0.7-2.3,2.2-2.3
			c2.4,0,2.6,3.4,6.6,3.4c1.9,0,3.2-0.9,3.2-2c0-1.4-1.2-1.6-3.1-2.1l-3.2-0.8c-3.2-0.8-5.6-2.1-5.6-5.8
			C195.5,78.7,199.9,77.1,203.7,77.1"/>
		<path class="st32" d="M219.2,88.4c0,2.9,1.9,5,5,5c4.1,0,4.1-2.7,6.3-2.7c1.3,0,2.2,1.1,2.2,2.1c0,3.3-5.3,4.8-8.6,4.8
			c-7.6,0-10.5-5.2-10.5-9.9c0-6.3,3.8-10.6,10.3-10.6c6.3,0,9.9,4.4,9.9,8.9c0,1.9-0.6,2.4-2.4,2.4H219.2z M228.8,85.2
			c-0.3-2.5-2.2-4.3-4.6-4.3c-2.7,0-4.4,1.7-5,4.3H228.8z"/>
	</g>
	<g>
	</g>
	<g>
	</g>
	<g>
	</g>
	<g>
	</g>
	<g>
	</g>
	<g>
	</g>
	<g>
	</g>
	<g>
	</g>
	<g>
	</g>
	<g>
	</g>
	<g>
	</g>
	<g>
	</g>
	<g>
	</g>
	<g>
	</g>
	<g>
	</g>
</g>
</svg>
