<?xml version="1.0" encoding="utf-8"?>
<!-- Generator: Adobe Illustrator 18.1.1, SVG Export Plug-In . SVG Version: 6.00 Build 0)  -->
<svg version="1.1" id="Layer_1" xmlns="http://www.w3.org/2000/svg" xmlns:xlink="http://www.w3.org/1999/xlink" x="0px" y="0px"
	 viewBox="425 298.7 542.6 197.3" enable-background="new 425 298.7 542.6 197.3" xml:space="preserve">
<g>
	<defs>
		<path id="SVGID_1_" d="M1842.7,355.4H1808v-8.9h78.7v8.9h-34.1l-0.1,98.6h-9.5L1842.7,355.4z"/>
	</defs>
	<clipPath id="SVGID_2_">
		<use xlink:href="#SVGID_1_"  overflow="visible"/>
	</clipPath>
	<path clip-path="url(#SVGID_2_)" fill="#796E65" d="M994.2,454.1V346.5h15.5l40.4,93.7l41.3-93.7h14.8v107.6h-9.7v-99.4h-0.3
		l-41.2,99.4h-9.7l-41.1-98.9h-0.3v98.9H994.2z"/>
	<path clip-path="url(#SVGID_2_)" fill="#796E65" d="M1115.8,454.1l42.6-107.6h11.3l42.9,107.6H1202l-11.5-29.1H1137l-11.3,29.1
		H1115.8z M1187.1,416.1l-23.2-60.6l-23.7,60.6H1187.1z"/>
	<path clip-path="url(#SVGID_2_)" fill="#796E65" d="M1223.8,454.1v-108h9.7v108H1223.8z"/>
	<path clip-path="url(#SVGID_2_)" fill="#796E65" d="M1257,346.5h11l59.3,94.6h0.3v-94.6h9.7v107.6h-12.2l-58.1-93h-0.3v93h-9.7
		V346.5z"/>
	<path clip-path="url(#SVGID_2_)" fill="#796E65" d="M1421.1,456.3c-17.1,0-31.6-12.5-32-30.2h10.4c0.3,16.5,12.5,21.3,27,21.3
		c12.1,0,25.9-7,25.9-20.7c0-10.7-7.7-15.8-16.8-18.8c-17.4-5.8-44-11.3-44-34.6c0-18.8,17.3-29.1,34.3-29.1
		c14.2,0,32.6,4.9,35,25.6h-10.4c-0.3-13.3-12.4-16.7-23.4-16.7c-11.2,0-25,5.7-25,18.8c0,30.5,60.8,16.7,60.8,53.8
		C1462.8,449.2,1442.7,456.3,1421.1,456.3z"/>
	<path clip-path="url(#SVGID_2_)" fill="#796E65" d="M1502.3,355.4h-34.7v-8.9h78.7v8.9h-34.1l-0.1,98.6h-9.5L1502.3,355.4z"/>
	<path clip-path="url(#SVGID_2_)" fill="#796E65" d="M1567.4,454.1h-9.7V346.5h35.2c9.4,0,17.1,0.6,25.3,5.7
		c7.5,4.5,11,12.2,11,22.5c0,11.6-8.2,20-20.7,23.1v0.3c13.7,2.2,16.7,11.5,18,24c1.9,17.4,1.3,25.5,5.7,32H1621
		c-2.5-7.2-3.1-14.8-3.7-22.4c-2.2-24.6-3.7-28.9-23.2-28.9h-26.7L1567.4,454.1L1567.4,454.1z M1588.1,393.9
		c13.7,0,30.7-0.9,30.7-19.2c0-20.7-19.4-19.2-29.7-19.2h-21.8v38.4H1588.1z"/>
	<path clip-path="url(#SVGID_2_)" fill="#796E65" d="M1651,454.1V346.5h63.9v8.9h-54.2V394h52.2v8.9h-52.2v42.2h56.5v8.9H1651V454.1
		z"/>
	<path clip-path="url(#SVGID_2_)" fill="#796E65" d="M1736,454.1V346.5h63.9v8.9h-54.2V394h52.2v8.9h-52.2v42.2h56.5v8.9H1736V454.1
		z"/>
</g> 
<path fill="#FAAB18" d="M791.6,433.9c0,7.2,0.2,14.3,0.8,20.6h-22.9c-0.6-5.3-0.8-10.5-0.8-15.5c-12.4,15.3-27.2,19.6-47.6,19.6
	c-30.4,0-46.6-16-46.6-34.6c0-26.9,22.1-36.4,60.5-37.2c10.5-0.2,22.3-0.3,32-0.3v-2.6c0-18-11.5-25.4-31.5-25.4
	c-14.8,0-25.8,6.1-26.9,16.8h-25.9c2.7-26.5,30.5-33.2,55-33.2c29.3,0,54,10.4,54,41.4v50.4H791.6z M736.6,403.3
	c-22.4,0.7-36.3,4.8-36.3,19.5c0,9.5,7.6,19.9,26.9,19.9c25.9,0,39.7-14.1,39.7-37.2V403C757.9,402.9,746.7,403,736.6,403.3"/>
<path fill="#EE3E42" d="M450.1,406.6c1.3,22.4,16.8,35.6,38,35.6c14.7,0,27.8-6,32.2-19h25.4c-4.9,26.4-33.1,35.4-57.2,35.4
	c-44,0-63.5-24.2-63.5-56.9c0-36,20.2-59.6,63.9-59.6c34.8,0,60.3,18.2,60.3,58v6.6h-99.1V406.6z M523.3,390.2
	c-1-23.1-17.6-31.7-35.4-31.7c-19.2,0-34.5,9.7-37.2,31.7H523.3z"/>
<path fill="#0074BB" d="M549.2,298.7h24.7v62c12.1-14.4,28.7-18.6,45.1-18.6c27.5,0,58,18.5,58,58.6c0,33.5-24.3,58-58.5,58
	c-17.9,0-34.7-6.4-45.1-19.1c0,5.1-0.3,10.2-0.8,15h-24.2c0.4-7.8,0.8-17.6,0.8-25.5V298.7z M612.4,441.7
	c22.9,0,38.6-16.5,38.6-41.4s-15.7-41.4-38.6-41.4c-22.8,0-38.6,16.5-38.6,41.4S589.6,441.7,612.4,441.7"/>
<polygon fill="#7DC142" points="917.2,346.2 840.9,496 813.3,496 835.2,454.4 777.9,346.2 806.7,346.2 848.9,430.7 891.1,346.2 "/>
<path fill="#231F20" d="M929.8,345.7h2.1v2.8h3.1v1.4h-3.1v6.1c0,1.1,0.3,1.7,1.6,1.7c0.4,0,1,0,1.6-0.1v1.4c-0.7,0.1-1.4,0.1-2,0.1
	c-2.1,0-3.3-0.7-3.3-3v-6.3H927v-1.4h2.8V345.7z"/>
<path fill="#231F20" d="M937.7,350.9c0-0.8,0-1.6-0.1-2.4h1.9c0,0.5,0.1,1.1,0.1,1.9l0,0c1.2-1.6,2.7-2.3,4.5-2.3s3.2,0.9,3.9,2.7
	c0.8-1.5,2.4-2.7,4.4-2.7c3,0,4.9,1.5,4.9,4.9v6.1h-2.1v-5.3c0-2.6-0.7-4.3-3-4.3c-1.8,0-3.7,1.3-3.7,4.7v4.8h-2.1v-5.3
	c0-2.8-1-4.1-2.9-4.1c-1.8,0-3.8,1.3-3.8,4.4v5.1h-2.1L937.7,350.9L937.7,350.9z"/>
</svg>
