<?xml version="1.0" encoding="utf-8"?>
<!-- Generator: Adobe Illustrator 20.0.0, SVG Export Plug-In . SVG Version: 6.00 Build 0)  -->
<svg version="1.1" id="Layer_1" xmlns="http://www.w3.org/2000/svg" xmlns:xlink="http://www.w3.org/1999/xlink" x="0px" y="0px"
	 width="390px" height="153px" viewBox="0 0 390 153" style="enable-background:new 0 0 390 153;" xml:space="preserve">
<style type="text/css">
	.st0{fill:#677178;}
	.st1{fill:#FFFFFF;}
</style>
<circle class="st0" cx="76.5" cy="77" r="75.5"/>
<circle class="st0" cx="313.5" cy="77" r="75.5"/>
<rect x="102" y="72" class="st0" width="114.5" height="10"/>
<polygon class="st0" points="209.5,90.5 209.5,63.5 231,77 "/>
<g>
	<g>
		<path id="s_2_" class="st1" d="M59.7,76.2c-0.8-0.4-1.2-0.8-1.2-1.3c0-0.7,0.6-1.1,1.5-1.1c1.1,0,2,0.4,2,0.4l0.7-2.3
			c0,0-0.7-0.5-2.7-0.5c-2.8,0-4.7,1.6-4.7,3.9c0,1.3,0.9,2.3,2.1,2.9c1,0.6,1.3,1,1.3,1.5c0,0.6-0.5,1.1-1.4,1.1
			c-1.3,0-2.6-0.7-2.6-0.7l-0.8,2.3c0,0,1.2,0.8,3.2,0.8c2.9,0,4.9-1.4,4.9-4C62,77.9,60.9,76.9,59.7,76.2z"/>
		<path id="h_2_" class="st1" d="M71.1,71.4c-1.4,0-2.5,0.7-3.4,1.7l0,0l1.2-6.4h-3.2L62.6,83h3.2l1.1-5.6c0.4-2.1,1.5-3.4,2.5-3.4
			c0.7,0,1,0.5,1,1.2c0,0.4,0,1-0.1,1.4L69.1,83h3.2l1.3-6.6c0.1-0.7,0.2-1.5,0.2-2.1C73.8,72.5,72.8,71.4,71.1,71.4z"/>
		<path id="o_1_" class="st1" d="M81,71.4c-3.9,0-6.4,3.5-6.4,7.4c0,2.5,1.5,4.5,4.4,4.5c3.8,0,6.3-3.4,6.3-7.4
			C85.4,73.6,84,71.4,81,71.4z M79.4,80.8c-1.1,0-1.6-0.9-1.6-2.1c0-1.8,1-4.8,2.7-4.8c1.1,0,1.5,1,1.5,1.9
			C82.1,77.8,81.1,80.8,79.4,80.8z"/>
		<path id="p_1_" class="st1" d="M93.6,71.4c-2.2,0-3.4,1.9-3.4,1.9h0l0.2-1.7h-2.8c-0.1,1.2-0.4,2.9-0.7,4.3l-2.2,11.7h3.2l0.9-4.7
			h0.1c0,0,0.7,0.4,1.9,0.4c3.8,0,6.2-3.9,6.2-7.8C96.9,73.3,95.9,71.4,93.6,71.4z M90.5,80.8c-0.8,0-1.3-0.5-1.3-0.5l0.5-3
			c0.4-2,1.4-3.3,2.5-3.3c1,0,1.3,0.9,1.3,1.8C93.5,77.9,92.3,80.8,90.5,80.8z"/>
		<path id="dot_2_" class="st1" d="M101.4,66.8c-1,0-1.8,0.8-1.8,1.9c0,1,0.6,1.6,1.5,1.6h0c1,0,1.9-0.7,1.9-1.9
			C103,67.5,102.4,66.8,101.4,66.8z"/>
		<polygon id="i_2_" class="st1" points="96.9,83 100.2,83 102.3,71.7 99.1,71.7 		"/>
		<path id="f_2_" class="st1" d="M110.5,71.6h-2.2l0.1-0.5c0.2-1.1,0.8-2.1,1.9-2.1c0.6,0,1,0.2,1,0.2l0.6-2.5c0,0-0.6-0.3-1.7-0.3
			c-1.1,0-2.3,0.3-3.1,1.1c-1.1,0.9-1.6,2.3-1.9,3.6l-0.1,0.5h-1.5l-0.5,2.4h1.5l-1.7,9h3.2l1.7-9h2.2L110.5,71.6z"/>
		<path id="y_2_" class="st1" d="M118.2,71.7c0,0-2,5-2.9,7.8h0c-0.1-0.9-0.8-7.8-0.8-7.8h-3.4l1.9,10.4c0,0.2,0,0.4-0.1,0.5
			c-0.4,0.7-1,1.4-1.7,1.9c-0.6,0.4-1.3,0.7-1.8,0.9l0.9,2.7c0.7-0.1,2-0.7,3.1-1.7c1.5-1.4,2.8-3.5,4.2-6.4l3.9-8.4H118.2z"/>
	</g>
	<g>
		<path class="st1" d="M42.2,87.5l7.9-1.7c0,0-2.9-19.3-2.9-19.5c0-0.1-0.1-0.2-0.2-0.2c-0.1,0-2.1-0.2-2.1-0.2s-1.4-1.4-1.6-1.6
			c0,0-0.1-0.1-0.1-0.1L42.2,87.5z"/>
		<path class="st1" d="M42.9,64.3C42.8,64.3,42.8,64.3,42.9,64.3c-0.1,0-0.4,0.1-0.9,0.3c-0.5-1.4-1.3-2.6-2.8-2.6c0,0-0.1,0-0.1,0
			c-0.4-0.5-0.9-0.8-1.4-0.8c-3.4,0-5,4.3-5.5,6.4c-1.3,0.4-2.3,0.7-2.4,0.7c-0.7,0.2-0.8,0.3-0.9,1c-0.1,0.5-2,15.5-2,15.5
			l14.9,2.8L42.9,64.3z M39,65.3c0,0.1,0,0.1,0,0.1c-0.8,0.3-1.7,0.5-2.6,0.8c0.5-2,1.5-2.9,2.3-3.3C38.9,63.6,39,64.3,39,65.3z
			 M37.7,62.1c0.1,0,0.3,0,0.4,0.1c-1.1,0.5-2.3,1.8-2.8,4.4c-0.7,0.2-1.4,0.4-2.1,0.6C33.8,65.3,35.2,62.1,37.7,62.1z M38.2,73.6
			c0,0-0.9-0.5-2-0.5c-1.6,0-1.7,1-1.7,1.2c0,1.4,3.6,1.9,3.6,5.1c0,2.5-1.6,4.1-3.7,4.1c-2.6,0-3.9-1.6-3.9-1.6l0.7-2.3
			c0,0,1.4,1.2,2.5,1.2c0.7,0,1.1-0.6,1.1-1c0-1.8-2.9-1.9-2.9-4.8c0-2.5,1.8-4.8,5.3-4.8c1.4,0,2.1,0.4,2.1,0.4L38.2,73.6z
			 M39.6,62.9c0.8,0.1,1.3,1,1.6,1.9c-0.4,0.1-0.8,0.2-1.3,0.4c0-0.1,0-0.2,0-0.3C39.9,64.1,39.8,63.4,39.6,62.9z"/>
	</g>
</g>
<g>
	<g>
		<g>
			<circle class="st1" cx="296.6" cy="86.1" r="1.9"/>
		</g>
		<g>
			<circle class="st1" cx="285.4" cy="86.1" r="1.9"/>
		</g>
		<g>
			<g>
				<path class="st1" d="M300.3,66.6L300.3,66.6l-17,0l-0.7-3.5c-0.1-0.9-0.8-1.6-1.6-1.6l-3.5,0c-0.9,0-1.6,0.8-1.6,1.9
					c0,1,0.7,1.9,1.6,1.9l1.8,0l2.2,11l1,4.9c0,0,0,0,0,0l0,0.2l0,0c0.2,0.8,0.7,1.4,1.4,1.4l13.5,0c2.3,0,2.5-3.9,2.5-3.9l-14.3,0
					l-0.4-2.3l13.9,0c0.7,0,1.2-0.5,1.4-1.3l0,0l0,0c0,0,0,0,0,0l1.5-6.2c0-0.1,0-0.1,0-0.2l0,0l0,0c0-0.1,0-0.2,0-0.3
					C302.2,67.4,301.4,66.6,300.3,66.6z M297.6,72.8l-13,0l-0.5-2.4h14L297.6,72.8z"/>
			</g>
		</g>
		<g>
			<path class="st1" d="M346,69.9V69v-0.3v-0.2c0-1.1-0.9-1.9-1.9-1.9c-0.3,0-0.6,0.1-0.9,0.2l0,0l0,0c-0.1,0-0.2,0.1-0.2,0.1
				l-6,3.6l-0.2-0.1l-5.9-3.6c0,0,0,0,0,0c0,0-0.1,0-0.1,0c0,0-0.1,0-0.1,0c0,0-0.1,0-0.1,0c0,0-0.1,0-0.1,0c0,0-0.1,0-0.1,0
				c0,0-0.1,0-0.1,0c0,0-0.1,0-0.1,0c0,0-0.1,0-0.1,0c0,0-0.1,0-0.1,0c0,0-0.1,0-0.1,0c-0.1,0-0.3,0-0.4,0c0,0-0.1,0-0.1,0
				c0,0-0.1,0-0.1,0c0,0-0.1,0-0.1,0c0,0-0.1,0-0.1,0c0,0-0.1,0-0.1,0c0,0-0.1,0-0.1,0c0,0-0.1,0-0.1,0c0,0,0,0-0.1,0
				c0,0-0.1,0-0.1,0.1c0,0,0,0-0.1,0c0,0-0.1,0.1-0.1,0.1c0,0,0,0,0,0c-0.1,0.1-0.2,0.2-0.3,0.3c0,0,0,0,0,0c0,0-0.1,0.1-0.1,0.1
				c0,0,0,0,0,0c0,0,0,0.1-0.1,0.1c0,0,0,0,0,0.1c0,0,0,0.1-0.1,0.1c0,0,0,0,0,0.1c0,0,0,0.1,0,0.1c0,0,0,0,0,0c0,0,0,0.1,0,0.1
				c0,0,0,0,0,0c0,0,0,0.1,0,0.1c0,0,0,0,0,0.1c0,0,0,0.1,0,0.1v0.2V69v11.3v0.5v0h0c0,1,0.9,1.9,1.9,1.9c1,0,1.9-0.8,1.9-1.9h0v0
				v-0.5v-3.5V73v-0.8l4.2,2.5l0,0c0.3,0.2,0.6,0.3,1,0.3c0.4,0,0.7-0.1,1-0.3l0,0l4.2-2.5v8.1v0.5v0h0c0,1,0.9,1.9,1.9,1.9
				c1,0,1.9-0.8,1.9-1.9h0v0v-0.5v-3.5V73V69.9L346,69.9L346,69.9z"/>
		</g>
		<g>
			<path class="st1" d="M323.5,79.5L323.5,79.5L323.5,79.5c-0.1-0.1-0.1-0.1-0.2-0.2l-7-5.8l6.6-3.3c0.1,0,0.2-0.1,0.3-0.1l0,0l0,0
				c0.5-0.3,0.9-0.9,0.9-1.6c0-1-0.8-1.9-1.9-1.9c-0.3,0-0.6,0.1-0.9,0.2l0,0l-11.4,5.8V69v-0.3v-0.2c0-1.1-0.9-1.9-1.9-1.9
				c-1.1,0-1.9,0.9-1.9,1.9v0.2V69v11.3v0.5v0h0c0,1,0.9,1.9,1.9,1.9c1,0,1.9-0.8,1.9-1.9h0v0v-0.5v-3.5l3.1-1.6l7.9,6.9
				c0.1,0.1,0.2,0.2,0.3,0.2l0,0l0,0c0.3,0.2,0.7,0.3,1.1,0.3c1,0,1.9-0.8,1.9-1.9C324.1,80.3,323.9,79.8,323.5,79.5z"/>
		</g>
	</g>
</g>
</svg>
