<?xml version="1.0" encoding="utf-8"?>
<!-- Generator: Adobe Illustrator 19.1.0, SVG Export Plug-In . SVG Version: 6.00 Build 0)  -->
<svg version="1.1" id="Layer_1" xmlns="http://www.w3.org/2000/svg" xmlns:xlink="http://www.w3.org/1999/xlink" x="0px" y="0px"
	 viewBox="-284 371 43 52" style="enable-background:new -284 371 43 52;" xml:space="preserve">
<style type="text/css">
	.st0{fill:#0494CD;}
</style>
<path class="st0" d="M-269,400.8v-13.7h28v13.7H-269z M-258.9,391c-0.5-0.6-1.4-0.8-2.6-0.8h-1.6c-0.2,0-0.3,0.1-0.3,0.3v6.9
	c0,0.2,0.1,0.3,0.3,0.3h1.1c0.2,0,0.3-0.1,0.3-0.3v-2.2h0.6c1.6,0,2.9-0.9,2.9-2.6C-258.4,392.1-258.6,391.5-258.9,391z
	 M-255.3,390.2h-1.7c-0.3,0-0.3,0.1-0.3,0.3v6.8c0,0.3,0.1,0.3,0.3,0.3h2.2c2.1,0,3.8-1.1,3.8-3.7
	C-251,391.1-252.7,390.2-255.3,390.2z M-245.4,390.2h-4.2c-0.2,0-0.3,0.1-0.3,0.3v6.9c0,0.3,0.1,0.3,0.3,0.3h1
	c0.2,0,0.3-0.1,0.3-0.3v-2.8h2.4c0.2,0,0.3-0.1,0.3-0.3v-0.8c0-0.2-0.1-0.3-0.3-0.3h-2.4v-1.6h2.6c0.3,0,0.4,0,0.4-0.3l0.1-0.9
	C-245.1,390.3-245.1,390.2-245.4,390.2z M-254.9,396.3h-0.8v-4.6h0.6c1.5,0,2.3,0.7,2.3,2.3C-252.8,395.8-253.8,396.3-254.9,396.3z
	 M-261.4,393.9h-0.4v-2.4h0.5c0.8,0,1.3,0.3,1.3,1.2C-260.1,393.6-260.6,393.9-261.4,393.9z M-249.1,374.4h-31.5v45.1h23.5l0.1-0.1
	v-7.3h7.9l-0.1-9.8h3.4v10.8c0,0.5-0.2,0.9-0.5,1.2l-9,8.1c-0.3,0.3-0.7,0.4-1.2,0.4h-25.9c-1,0-1.7-0.8-1.7-1.7v-48.6
	c0-1,0.7-1.7,1.7-1.7h34.9c1,0,1.7,0.8,1.7,1.7v12.8h-3.4V374.4z"/>
</svg>
