<?xml version="1.0" encoding="utf-8"?>
<!-- Generator: Adobe Illustrator 18.0.0, SVG Export Plug-In . SVG Version: 6.00 Build 0)  -->
<!DOCTYPE svg PUBLIC "-//W3C//DTD SVG 1.1//EN" "http://www.w3.org/Graphics/SVG/1.1/DTD/svg11.dtd">
<svg version="1.1" id="Layer_1" xmlns="http://www.w3.org/2000/svg" xmlns:xlink="http://www.w3.org/1999/xlink" x="0px" y="0px"
	 viewBox="0 0 611.5 131.5" enable-background="new 0 0 611.5 131.5" xml:space="preserve">
<path fill="#7E8082" d="M11.5,74.1c0,0.2,0,0.3,0,0.4c0,2.3,1.8,3.9,4.5,3.9s4.2-1.3,4.2-3.6c0-3.4-3.3-3.2-8.5-4.8
	C4.5,67.7,1,63.9,1,57.7c0-8.1,5.9-13.8,15.8-13.8c8.5,0,14,4.8,14.5,12.7h-11c-0.5-2.7-1.5-3.8-3.6-3.8c-2.4,0-3.8,1.4-3.8,3.4
	c0,2.8,2.5,3.5,6.8,4.7c8.5,2.3,12.7,5.5,12.7,12.4c0,8.3-6.5,14.3-16.5,14.3c-9.2,0-14.9-5-15.8-13.4H11.5z"/>
<path fill="#7E8082" d="M78.1,74.4c-4,8.6-10.8,13-20.1,13c-6.3,0-11.4-2.2-15.6-6.6c-4-4.2-6.1-9.5-6.1-15.3
	c0-5.8,2.2-11.1,6.3-15.1c4.2-4.2,9.6-6.5,15.2-6.5C71,43.9,80,53.4,80,68.7c0,0.4,0,0.8,0,1.3H48.8c1.1,4.4,4.2,6.7,9.5,6.7
	c2.5,0,4.5-0.7,6.3-2.3H78.1z M67.7,61.4c-1.5-4.2-4.9-6.5-9.8-6.5c-5.1,0-8.7,2.6-9.5,6.5H67.7z"/>
<path fill="#7E8082" d="M127,71.7c-3.1,9.9-11.1,15.8-21.1,15.8c-6.3,0-11.4-2.2-15.6-6.6c-4-4.2-6.1-9.6-6.1-15.4
	c0-5.8,2.2-11,6.3-15.1c4.2-4.3,9.3-6.5,15.2-6.5c10.4,0,18,5.7,21.3,16.1h-12.8c-1.7-2.8-4.5-4.4-8.5-4.4c-5.5,0-9.5,4.2-9.5,9.8
	c0,6.3,4,10.2,9.8,10.2c3.3,0,6-1.4,8-4.1H127z"/>
<path fill="#7E8082" d="M171.1,45.1v41.3h-11.3v-5.5c-2.6,4.3-6.5,6.3-11.8,6.3c-8.5,0-14.1-5.4-14.1-14.8V45.1H146v22.4
	c0,5.8,1.2,8.4,5.9,8.4c4.8,0,7.2-2.8,7.2-8.4V45.1H171.1z"/>
<path fill="#7E8082" d="M243.5,74.4c-4,8.6-10.8,13-20.1,13c-6.3,0-11.4-2.2-15.6-6.6c-4-4.2-6.1-9.5-6.1-15.3
	c0-5.8,2.2-11.1,6.3-15.1c4.2-4.2,9.6-6.5,15.2-6.5c13.1,0,22.1,9.5,22.1,24.8c0,0.4,0,0.8,0,1.3h-31.1c1.1,4.4,4.2,6.7,9.5,6.7
	c2.5,0,4.5-0.7,6.3-2.3H243.5z M233.2,61.4c-1.5-4.2-4.9-6.5-9.8-6.5c-5.1,0-8.7,2.6-9.5,6.5H233.2z"/>
<path fill="#7E8082" d="M344.5,54.2l2.8-9.1h5.2V31.7h12.3v13.4h5.5v9.1h-5.5v32.2h-12.3V54.2H344.5z"/>
<path fill="#7E8082" d="M434,81.8c-3.6,3.5-7.3,4.8-12.2,4.8c-5,0-9.3-1.6-12.9-4.8c-4.8-4.2-7.2-9.8-7.2-16.2
	c0-5.9,2.3-11.2,6.6-15.4c3.8-3.8,8.5-5.7,13.8-5.7c5,0,8.8,1.7,11.6,5.2v-4.6h12.2v41.3H434V81.8z M424.5,75.7
	c5.2,0,9.6-4.3,9.6-10c0-5.9-4.4-10.4-10.1-10.4c-5.8,0-10.2,4.7-10.2,10.2C413.8,71.3,418.3,75.7,424.5,75.7z"/>
<path fill="#7E8082" d="M484.4,81.8c-3.6,3.5-7.3,4.8-12.2,4.8c-5,0-9.3-1.6-12.9-4.8c-4.8-4.2-7.2-9.8-7.2-16.2
	c0-5.9,2.3-11.2,6.6-15.4c3.8-3.8,8.5-5.7,13.8-5.7c5,0,8.8,1.7,11.6,5.2v-18h12.2v54.7h-11.8V81.8z M474.8,75.7
	c5.2,0,9.6-4.3,9.6-10c0-5.9-4.4-10.4-10.1-10.4c-5.8,0-10.2,4.7-10.2,10.2C464.1,71.3,468.6,75.7,474.8,75.7z"/>
<polygon fill="#7E8082" points="504.9,41.4 507.5,31.7 519.6,31.7 517,41.4 "/>
<rect x="504.9" y="45.1" fill="#7E8082" width="12.1" height="41.3"/>
<path fill="#7E8082" d="M524.6,86.4V45.1h11.5l-0.2,5.5c2.5-4.2,6.4-6.3,11.8-6.3c8.5,0,14.1,5.4,14.1,14.8v27.2h-12.2V64
	c0-5.8-1.2-8.4-5.9-8.4c-4.8,0-7.3,2.8-7.3,8.4v22.4H524.6z"/>
<path fill="#7E8082" d="M588.6,86.7c-11.1,0-19.5-9.1-19.5-21.1c0-5.9,2.2-11.2,6.3-15.4c3.8-3.8,8.2-5.7,13.2-5.7
	c4.8,0,8.5,1.8,11.2,5.2v-4.6h11.7v37.1c0,5.5,0,9.8-3.2,14.1c-3.9,5.1-9.8,7.6-17.5,7.6c-10.9,0-18.5-5.5-20-14.1h13.5
	c0.8,2.6,3.2,4.2,6.8,4.2c5.4,0,8.6-3.5,8.6-9.8c0-0.7,0-1.4-0.1-2.1C596.3,85.2,592.9,86.7,588.6,86.7z M590.6,75.8
	c5.4,0,9.6-4.4,9.6-10.2c0-6-4.4-10.3-9.3-10.3c-6,0-10.2,4.5-10.2,10.2C580.7,71.3,585.1,75.8,590.6,75.8z"/>
<path fill="#7E8082" d="M202.3,44.7c-0.7-0.1-1.4-0.2-2.2-0.2v0c0,0,0,0,0,0c0,0,0,0,0,0v0c-4.9,0-8.3,2.1-10.3,6.2v-5.6h-11.5v41.3
	h12.3V66c0-7.3,1.5-10,8.4-10.2L202.3,44.7z"/>
<path fill="#7E8082" d="M400.6,44.7c-0.7-0.1-1.4-0.2-2.2-0.2v0c0,0,0,0,0,0c0,0,0,0,0,0v0c-4.9,0-8.3,2.1-10.3,6.2v-5.6h-11.5v41.3
	h12.3V66c0-7.3,1.5-10,8.4-10.2L400.6,44.7z"/>
<g>
	<path fill="#7E8082" d="M352.9,113.9l-1-2.5h-5.6l-1,2.5h-1.6l4.6-11.3h1.8l4.6,11.3H352.9z M349.1,104l-2.4,6.1h4.8L349.1,104z"/>
	<path fill="#7E8082" d="M362.4,109.5v-6.9h1.4v6.9c0,2.1,1.1,3.4,3.2,3.4s3.2-1.3,3.2-3.4v-6.9h1.4v6.9c0,2.8-1.5,4.6-4.6,4.6
		S362.4,112.3,362.4,109.5z"/>
	<path fill="#7E8082" d="M374.8,108.3c0-3.5,2.6-5.9,5.8-5.9c2,0,3.4,1,4.3,2.2l-1.2,0.7c-0.6-1-1.8-1.6-3.1-1.6
		c-2.5,0-4.4,1.9-4.4,4.6c0,2.7,1.9,4.6,4.4,4.6c1.3,0,2.5-0.7,3.1-1.6l1.2,0.7c-1,1.3-2.3,2.2-4.3,2.2
		C377.4,114.1,374.8,111.7,374.8,108.3z"/>
	<path fill="#7E8082" d="M392.6,108.3c0-3.5,2.6-5.9,5.8-5.9c2,0,3.4,0.9,4.4,2.1l-1.1,0.7c-0.7-0.9-1.9-1.6-3.3-1.6
		c-2.5,0-4.4,1.9-4.4,4.6c0,2.7,1.9,4.6,4.4,4.6c1.4,0,2.5-0.7,3-1.2v-2.3h-3.9v-1.3h5.3v4.1c-1.1,1.2-2.6,2-4.5,2
		C395.2,114.1,392.6,111.8,392.6,108.3z"/>
	<path fill="#7E8082" d="M412.8,113.9l-2.9-4.5h-2.3v4.5h-1.4v-11.3h4.6c2.1,0,3.6,1.3,3.6,3.4c0,2-1.4,3.2-2.9,3.3l3.1,4.6H412.8z
		 M412.9,106c0-1.3-0.9-2.2-2.3-2.2h-3v4.3h3C411.9,108.2,412.9,107.3,412.9,106z"/>
	<path fill="#7E8082" d="M417.1,108.3c0-3.3,2.3-5.9,5.6-5.9c3.3,0,5.6,2.5,5.6,5.9c0,3.3-2.3,5.9-5.6,5.9
		C419.3,114.1,417.1,111.6,417.1,108.3z M426.9,108.3c0-2.7-1.6-4.6-4.2-4.6c-2.5,0-4.2,2-4.2,4.6c0,2.6,1.6,4.6,4.2,4.6
		C425.2,112.9,426.9,110.9,426.9,108.3z"/>
	<path fill="#7E8082" d="M431.5,109.5v-6.9h1.4v6.9c0,2.1,1.1,3.4,3.2,3.4s3.2-1.3,3.2-3.4v-6.9h1.4v6.9c0,2.8-1.5,4.6-4.6,4.6
		C433.1,114.1,431.5,112.3,431.5,109.5z"/>
	<path fill="#7E8082" d="M444.4,113.9v-11.3h4.6c2.3,0,3.6,1.6,3.6,3.4c0,1.9-1.3,3.4-3.6,3.4h-3.1v4.5H444.4z M451.1,106
		c0-1.3-0.9-2.2-2.3-2.2h-3v4.3h3C450.1,108.2,451.1,107.3,451.1,106z"/>
	<path fill="#7E8082" d="M460.3,108.3c0-3.5,2.6-5.9,5.8-5.9c2,0,3.4,1,4.3,2.2l-1.2,0.7c-0.6-1-1.8-1.6-3.1-1.6
		c-2.5,0-4.4,1.9-4.4,4.6c0,2.7,1.9,4.6,4.4,4.6c1.3,0,2.5-0.7,3.1-1.6l1.2,0.7c-1,1.3-2.3,2.2-4.3,2.2
		C462.8,114.1,460.3,111.7,460.3,108.3z"/>
	<path fill="#7E8082" d="M472.8,108.3c0-3.3,2.3-5.9,5.6-5.9c3.3,0,5.6,2.5,5.6,5.9c0,3.3-2.3,5.9-5.6,5.9
		C475,114.1,472.8,111.6,472.8,108.3z M482.6,108.3c0-2.7-1.6-4.6-4.2-4.6c-2.5,0-4.2,2-4.2,4.6c0,2.6,1.6,4.6,4.2,4.6
		C480.9,112.9,482.6,110.9,482.6,108.3z"/>
	<path fill="#7E8082" d="M496.9,113.9v-9.3l-3.9,9.3h-0.6l-3.8-9.3v9.3h-1.4v-11.3h2l3.5,8.5l3.5-8.5h2v11.3H496.9z"/>
	<path fill="#7E8082" d="M501.9,113.9v-11.3h4.6c2.3,0,3.6,1.6,3.6,3.4c0,1.9-1.3,3.4-3.6,3.4h-3.1v4.5H501.9z M508.6,106
		c0-1.3-0.9-2.2-2.3-2.2h-3v4.3h3C507.7,108.2,508.6,107.3,508.6,106z"/>
	<path fill="#7E8082" d="M519.7,113.9l-1-2.5H513l-1,2.5h-1.6l4.6-11.3h1.8l4.6,11.3H519.7z M515.9,104l-2.4,6.1h4.8L515.9,104z"/>
	<path fill="#7E8082" d="M531.8,113.9l-6.6-9v9h-1.4v-11.3h1.4l6.5,8.9v-8.9h1.4v11.3H531.8z"/>
	<path fill="#7E8082" d="M540.1,113.9v-4.8l-4.5-6.5h1.6l3.5,5.3l3.5-5.3h1.6l-4.5,6.5v4.8H540.1z"/>
</g>
<polygon fill="#7E8082" points="341.8,0 322,0 281.3,131.5 301,131.5 "/>
<polygon fill="#7E8082" points="305.9,0 286.1,0 245.4,131.5 265.1,131.5 "/>
</svg>
