<?xml version="1.0" encoding="utf-8"?>
<!-- Generator: Adobe Illustrator 20.1.0, SVG Export Plug-In . SVG Version: 6.00 Build 0)  -->
<svg version="1.1" id="Layer_1" xmlns="http://www.w3.org/2000/svg" xmlns:xlink="http://www.w3.org/1999/xlink" x="0px" y="0px"
	 viewBox="0 0 457.704 98" style="enable-background:new 0 0 457.704 98;" xml:space="preserve">
<style type="text/css">
	.st0{fill:#FF6600;}
	.st1{fill:#15263F;}
</style>
<g>
	<path class="st0" d="M43.579,70.384c-10.037,0-18.173-8.136-18.173-18.171s8.136-18.171,18.173-18.171
		c10.035,0,18.171,8.136,18.171,18.171S53.614,70.384,43.579,70.384 M86.214,34.579c-0.694-2.603-1.684-5.17-2.998-7.654
		C73.874,9.233,51.956,2.464,34.264,11.809c-0.665,0.35-1.312,0.722-1.949,1.108C25.2,17.249,20.068,23.708,17.3,31.027
		c-2.138,5.663-2.864,11.841-1.987,17.954c0.571,4.011,1.835,7.992,3.835,11.782c9.342,17.691,31.259,24.46,48.954,15.116
		c5.064-2.675,9.234-6.383,12.385-10.725c1.051-1.446,1.987-2.964,2.807-4.537C87.404,52.733,88.567,43.443,86.214,34.579"/>
	<path class="st1" d="M110.475,66.362c-2.106,0-4.994-0.155-7.491-1.015V40.375c3.355-1.013,6.633-1.248,8.272-1.248
		c6.242,0,9.988,4.448,9.988,13.578C121.244,62.616,116.953,66.362,110.475,66.362 M112.739,31.323
		c-2.809,0-6.712,0.469-9.754,1.406V17.588c0-1.248-0.312-1.403-1.482-1.403h-6.087c-1.17,0-1.561,0.234-1.561,1.403v51.816
		c0,0.936,0.234,1.484,1.17,1.875c4.682,2.106,10.536,2.809,15.842,2.809c13.812,0,19.742-9.287,19.742-21.774
		C130.608,40.141,125.223,31.323,112.739,31.323"/>
	<path class="st1" d="M169.354,31.274h-6.009c-1.015,0-1.482,0.157-1.482,1.327v40.126c0,1.17,0.467,1.325,1.482,1.325h6.009
		c1.17,0,1.561-0.155,1.561-1.325V32.601C170.915,31.432,170.524,31.274,169.354,31.274"/>
	<path class="st1" d="M169.354,16.184h-6.009c-1.015,0-1.482,0.157-1.482,1.327v5.805c0,1.17,0.467,1.327,1.482,1.327h6.009
		c1.17,0,1.561-0.157,1.561-1.327v-5.805C170.915,16.341,170.524,16.184,169.354,16.184"/>
	<path class="st1" d="M237.286,31.323c-2.809,0-6.712,0.469-9.754,1.482V17.512c0-1.172-0.312-1.327-1.482-1.327h-6.087
		c-1.015,0-1.482,0.155-1.482,1.327v55.216c0,1.17,0.467,1.325,1.482,1.325h6.087c1.17,0,1.482-0.155,1.482-1.325V40.453
		c2.185-0.936,5.385-1.248,8.115-1.248c6.555,0,9.13,3.745,9.13,10.848v22.674c0,1.17,0.469,1.325,1.484,1.325h6.164
		c1.17,0,1.561-0.155,1.561-1.325V49.429C253.985,38.114,248.834,31.323,237.286,31.323"/>
	<path class="st1" d="M280.447,66.752c-0.079-0.703-0.312-1.015-1.327-0.779c-1.561,0.234-1.873,0.234-3.2,0.234
		c-3.2,0-4.76-1.015-4.76-4.37V39.205h6.017c1.17,0,1.248-0.391,1.248-1.327V32.54c0-0.703-0.079-1.248-1.248-1.248h-6.017V17.505
		c0-1.17-0.537-1.333-1.406-1.333l-6.506,0.013c-0.839,0-1.13,0.151-1.13,1.316l-0.013,13.784l-4.323,0.006
		c-1.011,0-1.312,0.2-1.312,1.117v5.47c0,0.86,0.079,1.327,1.248,1.327h4.387v23.802c0,7.491,3.2,11.081,11.706,11.081
		c1.951,0,3.221,0.038,6.79-0.858c0.936-0.391,0.781-0.86,0.703-1.484L280.447,66.752z"/>
	<path class="st1" d="M303.068,66.206c-2.106,0-4.448-0.236-7.648-1.093V40.298c1.873-0.624,5.151-1.093,7.257-1.093
		c6.712,0,10.848,3.512,10.848,13.423C313.525,62.773,309.077,66.206,303.068,66.206 M304.004,31.401
		c-5.23,0-11.236,0.703-16.466,2.966c-1.015,0.546-1.248,0.936-1.248,1.873v51.504c0,1.17,0.467,1.325,1.482,1.325h6.166
		c1.17,0,1.482-0.155,1.482-1.325V72.918c3.667,0.858,6.476,1.091,9.287,1.091c12.251,0,18.26-9.676,18.26-21.303
		C322.967,40.765,317.504,31.401,304.004,31.401"/>
	<path class="st1" d="M336.539,48.881c0.234-5.227,3.745-9.988,9.209-9.988c7.022,0,8.739,4.448,8.739,9.988H336.539z
		 M345.59,31.323c-10.848,0-18.651,7.882-18.651,21.617c0,14.67,6.867,21.148,19.432,21.148c4.291,0,9.206-0.781,13.188-3.2
		c0.703-0.391,0.936-0.936,0.546-1.796l-2.106-4.446c-0.312-0.703-0.86-0.86-1.718-0.469c-2.418,1.17-5.775,2.106-9.13,2.106
		c-6.009,0-10.691-2.731-10.924-10.846h20.757c3.512,0,6.242-1.484,6.242-6.869C363.226,37.878,355.992,31.323,345.59,31.323"/>
	<path class="st1" d="M391.474,65.504c-2.733,1.091-6.633,1.248-8.117,1.248c-4.994,0-8.27-1.561-8.27-6.009
		c0-6.242,5.461-6.712,8.894-6.712h7.493V65.504z M384.996,31.323c-4.603,0-10.145,0.624-14.515,2.263
		c-0.703,0.234-0.936,0.779-0.703,1.639l1.093,4.448c0.234,0.936,0.624,1.091,1.794,0.779c2.576-0.858,7.336-1.561,10.848-1.561
		c6.633,0,8.037,2.888,8.037,6.867v1.327h-8.739c-12.487,0-17.012,6.712-17.012,13.969c0,7.1,3.667,13.033,17.479,13.033
		c4.996,0,11.317-0.626,15.92-2.733c1.015-0.467,1.482-1.327,1.482-2.576V45.369C400.681,36.239,395.844,31.323,384.996,31.323"/>
	<path class="st1" d="M441.031,16.184h-6.164c-1.015,0-1.484,0.155-1.484,1.327v55.25c0,1.17,0.469,1.327,1.484,1.327h6.164
		c1.17,0,1.561-0.157,1.561-1.327v-55.25C442.592,16.339,442.201,16.184,441.031,16.184"/>
	<path class="st1" d="M155.044,31.274h-0.002c-6.421,0.208-12.916,1.601-19.303,4.14c-0.556,0.221-0.917,0.752-0.917,1.355v35.824
		c0,0.805,0.654,1.459,1.461,1.459h6.124c0.805,0,1.461-0.654,1.461-1.459V41.681c0-0.255,0.174-0.473,0.425-0.533
		c2.542-0.605,6.489-1.37,10.854-1.584c0.783-0.038,1.397-0.677,1.397-1.454v-5.374C156.543,31.93,155.891,31.274,155.044,31.274"/>
	<path class="st1" d="M427.113,31.274h-0.002c-6.414,0.208-12.905,1.601-19.288,4.136c-0.556,0.221-0.917,0.752-0.917,1.355v35.864
		c0,0.805,0.656,1.459,1.459,1.459h6.121c0.805,0,1.459-0.654,1.459-1.459V41.672c0-0.255,0.174-0.473,0.425-0.533
		c2.539-0.603,6.484-1.367,10.846-1.582c0.783-0.038,1.395-0.677,1.395-1.454v-5.368C428.61,31.928,427.96,31.274,427.113,31.274"/>
	<path class="st1" d="M185.239,52.705c0-9.909,4.291-13.578,10.767-13.578c2.108,0,4.917,0.312,7.414,1.015v24.66
		c-3.355,0.936-6.555,1.17-8.194,1.17C188.984,65.971,185.239,61.835,185.239,52.705 M212.629,60.338V36.084
		c0-0.858-0.234-1.327-1.248-1.873c-4.682-2.106-10.457-2.733-15.763-2.733c-13.657,0-19.744,9.13-19.744,21.617
		c0,12.173,5.542,20.681,17.793,20.681c2.888,0,6.633-0.469,9.676-1.406l0.223-0.096v2.975c0,1.24,0.002,2.641-1.055,3.771
		c-1.384,1.476-4.314,2.225-8.703,2.225c-2.953,0-6.011-0.408-9.088-1.21l-1.138-0.297l-2.123,8.412l1.089,0.31
		c3.939,1.119,7.833,1.665,11.903,1.665c6.76,0,11.754-1.643,14.844-4.884c2.391-2.512,3.603-5.888,3.603-10.035
		C212.896,75.207,212.807,68.147,212.629,60.338"/>
</g>
</svg>
