<?xml version="1.0" encoding="utf-8"?>
<!-- Generator: Adobe Illustrator 18.1.1, SVG Export Plug-In . SVG Version: 6.00 Build 0)  -->
<!DOCTYPE svg PUBLIC "-//W3C//DTD SVG 1.1//EN" "http://www.w3.org/Graphics/SVG/1.1/DTD/svg11.dtd">
<svg version="1.1" id="logo" xmlns="http://www.w3.org/2000/svg" xmlns:xlink="http://www.w3.org/1999/xlink" x="0px" y="0px"
	 viewBox="0 0 160 47" enable-background="new 0 0 160 47" xml:space="preserve">
<g>
	<g>
		<g>
			<path fill="#45B7E9" d="M67.9,34.2c-1.7,1-3.6,1.5-5.9,1.5c-6.6,0-10.5-4.6-10.5-12.4c0-5.5,2.1-9.2,4.9-11.1
				c1.6-1.1,3.9-1.8,6-1.8c1.6,0,3.3,0.4,4.6,1.1c0.9,0.5,1.3,0.8,2.3,1.7l-3.1,4.1c-1.3-1.2-2.6-1.9-3.8-1.9
				c-2.8,0-4.1,2.4-4.1,8.1c0,3.1,0.4,5,1.2,6.1c0.7,0.8,1.7,1.4,2.8,1.4c1.5,0,2.8-0.6,4.3-2l0.4-0.3l2.9,3.8
				C69.2,33.4,68.8,33.7,67.9,34.2z"/>
			<path fill="#45B7E9" d="M88.9,32.4c-1.8,2.1-4.2,3.3-7.9,3.3c-6.5,0-10.8-4.9-10.8-12.4c0-7.6,4.3-12.6,10.8-12.6
				c3.4,0,6.1,1.2,8.2,3.6c1.9,2.3,2.8,4.9,2.8,8.8C91.9,27.2,90.9,30,88.9,32.4z M83.8,16.6c-0.6-0.8-1.6-1.3-2.7-1.3
				c-1.5,0-2.7,0.9-3.2,2.4c-0.4,1.3-0.7,3-0.7,5.4c0,2.8,0.3,4.8,0.8,6.1c0.6,1.3,2,2,3.2,2c2.7,0,3.9-2.4,3.9-8.1
				C85,19.8,84.6,17.7,83.8,16.6z"/>
			<path fill="#45B7E9" d="M109.6,35.8c-0.8-0.6-1.5-1.4-1.9-2.3c-1.5,1.5-3.8,2.3-6.3,2.3c-3.4,0-6.3-1.6-7.1-3.9
				c-0.4-1.1-0.5-2.3-0.5-4.8V11.7l6.2-1.2V26c0,2.2,0.2,3.3,0.5,3.9c0.3,0.7,1.3,1.1,2.2,1.1c1.5,0,3.4-1.1,3.9-2.3V11.8l6-1.3
				v18.4c0,1.6,0.5,3.2,1.5,4.4L109.6,35.8z"/>
			<path fill="#45B7E9" d="M134.2,33c-1.6,1.7-3.8,2.7-6.4,2.7c-1.9,0-3.7-0.5-5-1.3c0.1,0.6,0.1,1.3,0.1,2v7.5l-6.1,1.6V17.7
				c0-3.1,0-4-0.4-6.1l5.6-1c0.2,0.8,0.4,1.5,0.4,2.3c1.1-1.3,3.5-2.3,5.9-2.3c1.7,0,3.4,0.6,4.7,1.5c2.6,1.7,4.5,4.8,4.5,10.4
				C137.6,27.7,136.7,30.3,134.2,33z M130.1,17.8c-0.5-1.3-1.5-2-3-2c-1.5,0-3.1,0.7-4.2,1.8v11.7c0.8,0.7,2.2,1.4,3.5,1.4
				c3.1,0,4.3-2.1,4.3-7.6C130.7,20.8,130.5,19,130.1,17.8z"/>
			<path fill="#45B7E9" d="M156.7,36.4c-1.5-0.6-2.8-1.7-3.4-2.9c-0.5,0.5-1,0.9-1.5,1.3c-1.2,0.8-2.9,1.3-4.8,1.3
				c-5.4,0-8.3-2.7-8.3-7.5c0-5.6,3.9-8.3,11.5-8.3c0.5,0,0.9,0,1.4,0v-1c0-2.7-0.5-3.6-2.8-3.6c-2,0-4.4,1-6.9,2.7l-2.7-4.5
				c1.3-0.8,2.2-1.3,3.9-2c2.3-1,4.4-1.4,6.6-1.4c4,0,6.8,1.5,7.7,4.2c0.3,1,0.5,1.7,0.4,4.3l-0.1,8.1c0,2.6,0.1,3.8,2.3,5.4
				L156.7,36.4z M151.3,24.7c-4.4,0-5.9,0.8-5.9,3.7c0,1.9,1.2,3.1,2.8,3.1c1.2,0,2.3-0.6,3.3-1.6l0.1-5.2H151.3z"/>
		</g>
		<g>
			<path fill="none" d="M44.9,23.1c1.6-0.3,3-0.8,3.8-1.7c0.4-0.5,0.6-1.1,0.5-1.7c-0.2-1.5-2.2-2.6-4.3-3.4c0.9-0.6,1.5-1.3,1.8-2
				c0.3-0.7,0.2-1.3-0.1-1.9c-0.7-1.1-2.4-1.7-5.2-1.7c0,0,0,0,0,0c0.5-0.9,0.9-1.8,0.9-2.6c0-0.7-0.3-1.3-0.8-1.7
				C41,6.2,40.4,6,39.5,6c-0.7,0-1.6,0.2-2.6,0.5c0.1-0.8,0-1.5-0.2-2.1c-0.3-0.9-0.9-1.3-1.3-1.5c-0.3-0.1-0.6-0.2-1-0.2
				c-1,0-2.2,0.6-3.5,1.6c-0.6-2-1.6-3.2-2.9-3.3c-0.1,0-0.2,0-0.3,0c-1.1,0-2.2,0.8-3.1,2.3c-1.1-1.3-2.3-2.2-3.5-2.2
				c-0.1,0-0.3,0-0.4,0c-0.5,0.1-1.2,0.3-1.7,1.2c-0.4,0.6-0.6,1.4-0.7,2.4c-1.5-0.9-2.9-1.4-4-1.4c-0.5,0-0.9,0.1-1.2,0.3
				c-0.6,0.3-1,0.8-1.2,1.5c-0.2,0.8-0.1,1.6,0.2,2.5c-1-0.2-1.9-0.3-2.7-0.3c-1.3,0-2.2,0.3-2.8,0.9C6.3,8.6,6.1,9.3,6.2,10
				C6.3,10.9,7,11.9,8,12.9c-2.7,0.3-5.6,1-6.3,2.7c-0.3,0.6-0.2,1.3,0.1,1.8c0.5,1,1.8,1.7,3.2,2.3c-2.8,1.4-5.1,3-5,4.8
				c0,1.2,1,2.7,5.5,2.7c0.4,0,0.8,0,1.1,0c-2.5,2.5-4.8,5.6-3.6,7.6c0.3,0.5,1,1.2,2.5,1.2c1.3,0,3.1-0.5,5.3-1.5
				c-1,2.5-1.4,4.7-1.1,6.3c0.2,1,0.8,1.6,1.2,1.8c0.4,0.2,0.8,0.4,1.3,0.4c1.9,0,4.5-2,6.9-4.8c0.2,3,0.7,5.7,2,7.1
				c0.7,0.8,1.4,1,1.9,1c0,0,0.1,0,0.1,0c2.5,0,4.1-3.4,5.2-6.7c1.7,2.9,3.6,4.9,5.4,4.9c0.3,0,0.6-0.1,0.9-0.2
				c2.2-0.9,2.4-4.5,1.9-8.5c2.2,1.6,4.2,2.5,5.6,2.5c0,0,0,0,0,0c1,0,1.6-0.5,2-0.8c1.3-1.6,0.3-4.4-1.2-6.9
				c0.9,0.2,1.8,0.3,2.5,0.3c0,0,0,0,0,0c2.3,0,3-1,3.3-1.8C49.1,27.1,47.3,25,44.9,23.1z"/>
		</g>
	</g>
	<path fill="#45B7E9" d="M37.5,20c-0.8-0.4-1.6-0.7-2.4-1.1c0.8-0.2,1.6-0.3,2.3-0.6c5.5-1.5,8.9-3.8,8.1-5.3
		c-0.8-1.4-5.4-1.5-10.6-0.3c-0.8,0.2-1.5,0.4-2.2,0.6c0.4-0.5,0.7-1.1,1-1.7C36,7.8,36.5,4.5,35,3.9c-1.4-0.6-4.4,1.5-6.9,5.2
		c-0.4,0.5-0.7,1.1-1,1.6c-0.2-0.6-0.4-1.2-0.6-1.8C25,4.8,22.6,2,21.1,2.2c-1.6,0.3-2.1,3.6-0.9,8c0.2,0.6,0.4,1.3,0.6,1.9
		c-0.6-0.4-1.3-0.7-2-1.1c-5-2.4-9.9-3.3-11.2-2.1c-1.3,1.3,1.8,4.5,7.1,7.1c0.8,0.4,1.5,0.7,2.3,1.1c-0.9,0.2-1.8,0.3-2.7,0.6
		c-7.1,1.7-13.1,4.7-13.1,6.7c0.1,2.1,6.7,2.1,14.3,0c1-0.3,2-0.6,2.9-0.9c-0.6,0.7-1.2,1.5-1.8,2.4c-4.6,6.8-7.3,14.2-5.1,15.5
		c2.2,1.3,8-4.5,12.1-11.8c0.5-0.9,1-1.8,1.4-2.7c0.2,0.9,0.4,1.9,0.7,2.8c2.2,7.7,6.2,14.1,8.5,13.1c2.3-1,1.7-8.4-0.9-15.6
		c-0.3-0.9-0.7-1.8-1-2.6c0.8,0.5,1.6,0.9,2.5,1.3c6.4,3.2,12.3,4.3,12.8,2.4C48.1,26.7,43.5,22.8,37.5,20z"/>
	<g id="Layer_2_3_">
		<path fill="#268ECD" d="M20.2,22.2c-0.7,0.2-1.4,0.5-2.2,0.7c-2.3,0.6-4.4,1-6.2,1.1C6.6,28,3,32.4,4,34.1c1,1.7,6.1-0.1,11.6-3.7
			c0.7-1.9,1.8-4.1,3.3-6.3C19.3,23.4,19.8,22.8,20.2,22.2z"/>
		<path fill="#268ECD" d="M19,17.3c-0.6-0.2-1.2-0.5-1.8-0.8c-1.7-0.9-3.2-1.8-4.2-2.7C7.7,13.7,3.3,14.5,2.7,16
			c-0.6,1.5,2.7,3.1,7.8,4c1.7-0.8,3.9-1.6,6.3-2.2C17.6,17.6,18.3,17.4,19,17.3z"/>
		<path fill="#268ECD" d="M21.9,13.3c-0.2-0.5-0.4-1-0.5-1.5C21,10.3,20.8,9,20.8,7.9c-2.9-2.6-5.8-4-7.1-3.3
			c-1.3,0.6-0.7,3.1,1.4,6.1c1.5,0.3,3.3,1,5.2,1.8C20.9,12.7,21.4,13,21.9,13.3z"/>
		<path fill="#268ECD" d="M31.4,14.3c0.6-0.2,1.1-0.3,1.7-0.5c1.7-0.4,3.3-0.6,4.7-0.7c2.8-2.5,3.9-4.9,2.9-5.7
			c-1-0.8-3.7-0.2-6.9,1.6c-0.2,1.1-0.8,2.5-1.6,4C32,13.4,31.7,13.9,31.4,14.3z"/>
		<path fill="#268ECD" d="M25.3,24.9c-0.3,0.6-0.7,1.3-1.1,2c-1.2,2-2.5,3.9-3.9,5.3C19.8,39,20.8,44.8,23.1,45
			c2.2,0.1,4.4-5.1,5.4-11.5c-1-1.7-2-4-2.7-6.5C25.6,26.2,25.4,25.5,25.3,24.9z"/>
		<path fill="#268ECD" d="M26.9,12.2c0.2-0.4,0.5-0.9,0.8-1.3c0.8-1.2,1.7-2.3,2.6-3.1c-0.1-3.3-1-5.6-2.4-5.8
			c-1.3-0.1-2.7,1.8-3.5,4.8c0.7,1,1.5,2.3,2,3.9C26.6,11.2,26.8,11.7,26.9,12.2z"/>
		<path fill="#268ECD" d="M48.1,19.9c-0.2-1.4-3.6-2.8-8.1-3.6c-1.2,0.7-2.9,1.4-4.9,2c-0.6,0.2-1.3,0.3-1.9,0.4
			c0.6,0.2,1.2,0.5,1.8,0.8c1.8,0.9,3.5,1.9,4.8,2.8C44.8,22.5,48.3,21.5,48.1,19.9z"/>
		<path fill="#268ECD" d="M30.8,23.2c0.3,0.6,0.5,1.3,0.8,2c0.7,2.1,1.2,4.1,1.5,5.9c4.4,4.4,8.9,6.9,10.2,5.4
			c1.2-1.4-0.9-5.7-4.4-10c-1.7-0.4-3.9-1.1-6.1-2.3C32.1,23.9,31.4,23.6,30.8,23.2z"/>
	</g>
	<path fill="#FFFFFF" d="M39.8,22.4c-1.3-1-2.9-2-4.8-2.8c-0.6-0.3-1.2-0.6-1.8-0.8c0.6-0.1,1.2-0.3,1.9-0.4c2-0.5,3.7-1.2,4.9-2
		c1.4-0.8,2-1.6,1.7-2.3c-0.4-0.7-1.8-1-3.8-0.9c-1.4,0-3,0.3-4.7,0.7c-0.6,0.1-1.2,0.3-1.7,0.5c0.3-0.4,0.6-0.9,0.9-1.3
		c0.9-1.5,1.4-2.9,1.6-4c0.3-1.3,0.1-2.2-0.5-2.5c-0.7-0.3-1.8,0.2-3,1.3c-0.9,0.8-1.8,1.8-2.6,3.1c-0.3,0.4-0.6,0.9-0.8,1.3
		c-0.1-0.5-0.3-1-0.5-1.5c-0.6-1.6-1.3-2.9-2-3.9c-0.9-1.1-1.7-1.8-2.4-1.6c-0.8,0.1-1.2,1.2-1.2,2.7c0,1.1,0.2,2.4,0.6,3.9
		c0.2,0.5,0.3,1,0.5,1.5c-0.5-0.3-1.1-0.6-1.6-0.8c-1.8-0.9-3.6-1.5-5.2-1.8c-1.8-0.4-3.2-0.4-3.7,0.2c-0.6,0.6,0.1,1.7,1.6,3
		c1,0.9,2.5,1.8,4.2,2.7c0.6,0.3,1.2,0.6,1.8,0.8c-0.7,0.1-1.4,0.3-2.1,0.4c-2.4,0.6-4.6,1.4-6.3,2.2c-2.1,1-3.4,2.1-3.3,2.9
		c0.1,0.9,1.9,1.3,4.6,1.1c1.8-0.1,3.9-0.5,6.2-1.1c0.8-0.2,1.5-0.4,2.2-0.7c-0.4,0.6-0.9,1.2-1.3,1.8c-1.5,2.2-2.6,4.4-3.3,6.3
		c-0.9,2.4-1,4.2-0.1,4.7c1,0.6,2.9-0.7,4.9-2.9c1.3-1.4,2.7-3.3,3.9-5.3c0.4-0.7,0.7-1.3,1.1-2c0.1,0.7,0.3,1.4,0.5,2.1
		c0.7,2.5,1.7,4.8,2.7,6.5c1.3,2.1,2.6,3.3,3.5,2.9c1-0.4,1.3-2.5,1-5.2c-0.2-1.8-0.7-3.8-1.5-5.9c-0.2-0.7-0.5-1.3-0.8-2
		c0.6,0.3,1.2,0.7,1.9,1c2.2,1.1,4.3,1.9,6.1,2.3c2,0.4,3.5,0.3,3.8-0.4C42.8,25.2,41.7,23.8,39.8,22.4z"/>
</g>
</svg>
