<?xml version="1.0" encoding="utf-8"?>
<!-- Generator: Adobe Illustrator 19.0.1, SVG Export Plug-In . SVG Version: 6.00 Build 0)  -->
<svg version="1.1" id="Layer_3" xmlns="http://www.w3.org/2000/svg" xmlns:xlink="http://www.w3.org/1999/xlink" x="0px" y="0px"
	 viewBox="0 0 108.007 35.232" style="enable-background:new 0 0 108.007 35.232;" xml:space="preserve">
<style type="text/css">
	.st0{fill:#545454;}
</style>
<path class="st0" d="M0,13.666C0,6.134,6.333,0,13.865,0c4.167,0,7.133,1.633,9.366,3.766L20.599,6.4
	c-1.601-1.5-3.766-2.667-6.734-2.667c-5.499,0-9.799,4.433-9.799,9.933s4.3,9.933,9.799,9.933c3.567,0,5.6-1.433,6.9-2.734
	c1.067-1.066,1.766-2.6,2.033-4.699h-8.934v-3.734h12.567c0.133,0.667,0.2,1.467,0.2,2.334c0,2.798-0.767,6.265-3.232,8.733
	c-2.401,2.499-5.467,3.833-9.534,3.833C6.333,27.332,0,21.2,0,13.666"/>
<path class="st0" d="M36.788,9.732c-4.867,0-8.832,3.7-8.832,8.801c0,5.066,3.966,8.799,8.832,8.799
	c4.867,0,8.832-3.733,8.832-8.799C45.62,13.432,41.654,9.732,36.788,9.732 M36.788,23.865c-2.667,0-4.967-2.2-4.967-5.332
	c0-3.167,2.3-5.334,4.967-5.334c2.667,0,4.967,2.167,4.967,5.334C41.754,21.666,39.455,23.865,36.788,23.865"/>
<path class="st0" d="M56.056,9.732c-4.867,0-8.832,3.7-8.832,8.801c0,5.066,3.966,8.799,8.832,8.799
	c4.867,0,8.832-3.733,8.832-8.799C64.889,13.432,60.923,9.732,56.056,9.732 M56.056,23.865c-2.667,0-4.967-2.2-4.967-5.332
	c0-3.167,2.3-5.334,4.967-5.334c2.667,0,4.967,2.167,4.967,5.334C61.023,21.666,58.723,23.865,56.056,23.865"/>
<path class="st0" d="M79.707,10.266v1.433h-0.133c-0.866-1.033-2.532-1.967-4.632-1.967c-4.4,0-8.433,3.867-8.433,8.834
	c0,4.933,4.034,8.766,8.433,8.766c2.1,0,3.766-0.933,4.632-2h0.133v1.267c0,3.367-1.799,5.166-4.699,5.166
	c-2.368,0-3.834-1.699-4.433-3.133l-3.367,1.4c0.966,2.333,3.533,5.199,7.8,5.199c4.533,0,8.365-2.667,8.365-9.167V10.266H79.707z
	 M75.275,23.865c-2.667,0-4.9-2.233-4.9-5.299c0-3.101,2.233-5.367,4.9-5.367c2.634,0,4.7,2.266,4.7,5.367
	C79.975,21.632,77.908,23.865,75.275,23.865"/>
<rect x="86.042" y="0.933" class="st0" width="3.866" height="25.865"/>
<path class="st0" d="M100.508,23.866c-1.969,0-3.369-0.9-4.268-2.667l11.767-4.867l-0.401-0.999c-0.732-1.967-2.966-5.6-7.534-5.6
	c-4.533,0-8.299,3.567-8.299,8.799c0,4.933,3.733,8.801,8.734,8.801c4.034,0,6.367-2.467,7.333-3.901l-3-2
	C103.84,22.898,102.473,23.866,100.508,23.866 M100.205,13.133c1.533,0,2.836,0.767,3.267,1.867l-7.866,3.266
	C95.506,14.865,98.24,13.133,100.205,13.133"/>
</svg>
