<?xml version="1.0" encoding="UTF-8" standalone="no"?>
<svg width="441px" height="115px" viewBox="0 0 441 115" version="1.1" xmlns="http://www.w3.org/2000/svg" xmlns:xlink="http://www.w3.org/1999/xlink" xmlns:sketch="http://www.bohemiancoding.com/sketch/ns">
    <!-- Generator: Sketch 3.4.4 (17249) - http://www.bohemiancoding.com/sketch -->
    <title>Sage One</title>
    <desc>Created with Sketch.</desc>
    <defs></defs>
    <g id="Page-1" stroke="none" stroke-width="1" fill="none" fill-rule="evenodd" sketch:type="MSPage">
        <g id="Sage-One" sketch:type="MSArtboardGroup">
            <path d="M196.406321,27.1402758 C179.019532,27.1402758 167.685921,38.9890506 167.685921,58.6940782 C167.685921,83.0355829 185.07271,89.9902985 197.436649,89.9902985 C213.149155,89.9902985 222.164527,79.429434 222.164527,79.429434 L214.179483,71.4443902 C209.929379,75.3081211 205.03532,77.4975686 197.694231,77.4975686 C188.034904,77.4975686 181.466561,71.8307633 181.466561,64.1033015 L224.611556,64.1033015 C224.611556,64.1033015 232.081436,27.1402758 196.406321,27.1402758 L196.406321,27.1402758 Z M181.595352,53.671228 C181.595352,43.2391546 189.451605,38.2163044 197.951813,38.2163044 C206.452021,38.2163044 214.179483,43.3679456 214.179483,53.671228 L181.595352,53.671228 Z M152.746162,28.4281861 L152.746162,35.1253197 C148.109685,29.7160964 142.57167,27.0114848 134.972999,27.0114848 C130.465313,27.0114848 126.987956,27.784231 124.025762,29.2009323 C120.934777,30.7464247 118.874121,32.4207081 117.199837,34.2237825 C115.396763,36.155648 113.980062,38.9890506 113.207315,41.8224533 C112.305778,44.6558559 112.048196,50.1938702 112.048196,58.3077051 C112.048196,66.292749 112.434569,71.5731812 113.336106,74.4065839 C114.108853,77.2399865 115.396763,79.6870161 117.199837,81.6188816 C118.874121,83.421956 120.805986,85.2250304 123.76818,86.8993138 C126.730374,88.4448061 130.465313,89.8615075 134.972999,89.7327164 C142.314088,89.7327164 148.496058,86.8993138 152.746162,82.0052546 L152.746162,85.7401945 C152.746162,90.2478806 151.200669,93.0812832 148.367267,95.3995218 C145.533864,97.7177603 141.927715,99.1344616 137.033656,99.1344616 C132.52597,99.1344616 128.275866,96.6874321 125.700045,95.0131487 L116.555882,104.157312 C122.48027,108.92258 129.563776,112.271147 137.291238,112.271147 C145.405073,112.399938 151.973415,109.824117 157.640221,105.445222 C163.178235,101.195118 166.526802,93.0812832 166.526802,84.4522842 L166.526802,28.4281861 L152.746162,28.4281861 Z M152.746162,58.5652872 C152.746162,63.2017643 152.617371,66.550331 152.359789,68.2246144 C151.973415,70.0276889 151.071878,71.5731812 150.04155,72.8610915 C149.011222,73.8914198 147.723311,75.050539 145.920237,75.9520762 C143.988372,76.9824045 141.670133,77.4975686 138.965521,77.4975686 C133.298716,77.4975686 128.79103,74.0202108 127.889493,72.9898825 C126.730374,71.7019722 125.957627,70.1564799 125.571254,68.2246144 C125.184881,66.42154 125.05609,63.2017643 125.05609,58.5652872 C125.05609,53.8000191 125.184881,49.9362882 125.571254,48.1332137 C125.828836,46.3301393 126.730374,44.784647 127.760702,43.6255277 C128.79103,42.5951995 130.07894,41.4360802 132.010806,40.4057519 C133.81388,39.5042147 136.132119,38.9890506 138.83673,38.9890506 C141.541342,38.9890506 143.988372,39.3754237 145.791446,40.4057519 C147.723311,41.4360802 148.882431,42.5951995 149.912759,43.6255277 C151.071878,44.784647 151.844624,46.3301393 152.230998,48.2620048 C152.48858,49.9362882 152.617371,53.413646 152.617371,57.792541 C152.746162,57.921332 152.746162,58.3077051 152.746162,58.5652872 Z M83.3277964,27.1402758 C69.5471562,27.1402758 60.6605751,34.0949915 58.9862918,35.5116928 L67.3577087,43.8831098 C69.0319921,42.5951995 74.6987974,38.6026775 83.4565875,38.6026775 C94.0174519,38.6026775 97.1084366,42.8527815 97.1084366,47.4892586 L97.1084366,53.413646 L78.3049463,53.413646 C71.3502306,53.413646 57.6983815,55.2167204 57.6983815,70.4140619 C57.6983815,81.6188816 64.137933,89.8615075 79.4640655,89.8615075 C87.1915273,89.8615075 92.9871237,87.4144779 96.9796456,82.5204188 L96.9796456,88.5735972 L110.760286,88.5735972 L110.760286,48.2620048 C110.760286,34.4813646 102.131287,27.1402758 83.3277964,27.1402758 Z M97.2372277,66.8079131 C97.2372277,78.3991058 88.9946018,77.8839417 81.524722,77.8839417 C74.0548423,77.8839417 69.2895742,75.8232852 69.2895742,70.671644 C69.2895742,65.7775849 73.1533051,64.2320925 81.26714,64.2320925 L97.3660187,64.2320925 C97.2372277,64.1033015 97.2372277,66.1639579 97.2372277,66.8079131 Z M37.7357718,52.6408998 C32.1977575,51.9969446 16.2276698,52.5121088 16.2276698,45.2998111 C16.2276698,41.0497071 22.9248033,38.6026775 29.1067728,38.6026775 C39.0236821,38.6026775 45.4632336,42.5951995 47.3950991,43.8831098 L55.637725,35.6404838 C53.1906954,33.7086184 44.0465323,27.2690669 29.1067728,27.2690669 C15.4549236,27.2690669 3.21977575,34.3525735 3.21977575,45.8149752 C3.21977575,63.3305553 24.3415047,63.3305553 33.2280857,64.2320925 C38.637309,64.7472566 43.4025771,65.1336297 43.4025771,70.4140619 C43.4025771,75.3081211 35.9326974,78.0127327 30.137101,78.0127327 C20.7353558,78.0127327 15.0685505,74.921748 9.53053622,69.8988978 L0.64395515,78.7854789 C8.75779004,86.6417317 19.1898635,90.1190895 29.3643548,90.1190895 C45.2056515,90.1190895 56.6680532,83.1643739 56.6680532,69.1261516 C56.7968442,59.7244064 50.6148748,54.1863922 37.7357718,52.6408998 Z" id="Shape" fill="#0ADC0A" sketch:type="MSShapeGroup"></path>
            <path d="M292.004,89.368 C285.92397,89.368 280.623023,88.3040106 276.101,86.176 C271.578977,84.0479894 267.836015,81.0650192 264.872,77.227 C261.907985,73.3889808 259.685007,68.8480262 258.203,63.604 C256.720993,58.3599738 255.98,52.6600308 255.98,46.504 C255.98,40.3479692 256.815992,34.667026 258.488,29.461 C260.160008,24.254974 262.591984,19.7710188 265.784,16.009 C268.976016,12.2469812 272.908977,9.30201064 277.583,7.174 C282.257023,5.04598936 287.59597,3.982 293.6,3.982 C299.52803,3.982 304.714978,5.02698955 309.161,7.117 C313.607022,9.20701045 317.292985,12.0949816 320.219,15.781 C323.145015,19.4670184 325.348993,23.7989751 326.831,28.777 C328.313007,33.7550249 329.054,39.0939715 329.054,44.794 C329.054,51.5580338 328.256008,57.6759726 326.66,63.148 C325.063992,68.6200274 322.689016,73.2939806 319.535,77.17 C316.380984,81.0460194 312.505023,84.0479894 307.907,86.176 C303.308977,88.3040106 298.00803,89.368 292.004,89.368 L292.004,89.368 Z M292.46,84.694 C296.944022,84.694 301.066981,83.8770082 304.829,82.243 C308.591019,80.6089918 311.839986,78.1580163 314.576,74.89 C317.312014,71.6219837 319.458992,67.5750241 321.017,62.749 C322.575008,57.9229759 323.354,52.3180319 323.354,45.934 C323.354,40.0059704 322.632007,34.7240232 321.188,30.088 C319.743993,25.4519768 317.692013,21.5570158 315.032,18.403 C312.371987,15.2489842 309.199018,12.8360084 305.513,11.164 C301.826982,9.49199164 297.780022,8.656 293.372,8.656 C288.887978,8.656 284.727019,9.49199164 280.889,11.164 C277.050981,12.8360084 273.707014,15.2869838 270.857,18.517 C268.006986,21.7470161 265.784008,25.7179764 264.188,30.43 C262.591992,35.1420236 261.794,40.5379696 261.794,46.618 C261.794,52.6980304 262.553992,58.0939764 264.074,62.806 C265.594008,67.5180236 267.702987,71.4889838 270.401,74.719 C273.099013,77.9490161 276.328981,80.4189914 280.091,82.129 C283.853019,83.8390085 287.975978,84.694 292.46,84.694 L292.46,84.694 Z M383.894,88 L378.308,88 L378.308,49.24 C378.308,44.4519761 377.377009,40.7280133 375.515,38.068 C373.652991,35.4079867 370.290024,34.078 365.426,34.078 C363.37399,34.078 361.284011,34.381997 359.156,34.99 C357.027989,35.598003 355.014009,36.3579954 353.114,37.27 C351.21399,38.1820046 349.485008,39.1509949 347.927,40.177 C346.368992,41.2030051 345.134005,42.1719954 344.222,43.084 L344.222,88 L338.636,88 L338.636,30.088 L343.538,30.088 L343.88,37.612 C347.300017,35.1799878 350.890981,33.1280084 354.653,31.456 C358.415019,29.7839916 362.347979,28.948 366.452,28.948 C372.608031,28.948 377.053986,30.6579829 379.79,34.078 C382.526014,37.4980171 383.894,42.4759673 383.894,49.012 L383.894,88 Z M417.302,89.368 C412.285975,89.368 408.144016,88.5510082 404.876,86.917 C401.607984,85.2829918 399.00501,83.0600141 397.067,80.248 C395.12899,77.4359859 393.761004,74.2060182 392.963,70.558 C392.164996,66.9099818 391.766,63.0720201 391.766,59.044 C391.766,53.7239734 392.487993,49.164019 393.932,45.364 C395.376007,41.563981 397.332988,38.4480122 399.803,36.016 C402.273012,33.5839878 405.103984,31.7980057 408.296,30.658 C411.488016,29.5179943 414.831983,28.948 418.328,28.948 C422.204019,28.948 425.509986,29.5559939 428.246,30.772 C430.982014,31.9880061 433.223991,33.6789892 434.972,35.845 C436.720009,38.0110108 437.992996,40.5379856 438.791,43.426 C439.589004,46.3140144 439.988,49.3919837 439.988,52.66 C439.988,53.9520065 439.95,55.2059939 439.874,56.422 C439.798,57.6380061 439.646001,58.8919935 439.418,60.184 L397.694,60.184 C397.77,64.9720239 398.358994,68.9049846 399.461,71.983 C400.563006,75.0610154 402.006991,77.4929911 403.793,79.279 C405.579009,81.0650089 407.668988,82.2999966 410.063,82.984 C412.457012,83.6680034 415.021986,84.01 417.758,84.01 C422.318023,84.01 425.851987,83.0030101 428.36,80.989 C430.868013,78.9749899 432.653995,75.9920198 433.718,72.04 L439.076,73.066 C438.391997,76.0300148 437.328007,78.5379897 435.884,80.59 C434.439993,82.6420103 432.76801,84.3139935 430.868,85.606 C428.967991,86.8980065 426.859012,87.847997 424.541,88.456 C422.222988,89.064003 419.810013,89.368 417.302,89.368 L417.302,89.368 Z M434.174,55.282 C434.326001,48.3659654 433.110013,43.103018 430.526,39.493 C427.941987,35.8829819 423.64803,34.078 417.644,34.078 C415.211988,34.078 412.856011,34.4579962 410.576,35.218 C408.295989,35.9780038 406.244009,37.2129914 404.42,38.923 C402.595991,40.6330085 401.076006,42.8179867 399.86,45.478 C398.643994,48.1380133 397.922001,51.4059806 397.694,55.282 L434.174,55.282 Z" id="One" fill="#8E8A86" sketch:type="MSShapeGroup"></path>
        </g>
    </g>
</svg>