<?xml version="1.0" encoding="utf-8"?>
<!-- Generator: Adobe Illustrator 18.1.1, SVG Export Plug-In . SVG Version: 6.00 Build 0)  -->
<svg version="1.1" id="Layer_1" xmlns="http://www.w3.org/2000/svg" xmlns:xlink="http://www.w3.org/1999/xlink" x="0px" y="0px"
	 viewBox="0 0 875.4 97.4" enable-background="new 0 0 875.4 97.4" xml:space="preserve">
<g>
	<g>
		<path fill="#E61718" d="M51.1,33.5c-2.1,0.8-5.5,0.8-7.6,0L5.9,18.5c-2.1-0.8-2.1-2.2,0-3L43.5,0.6c2.1-0.8,5.5-0.8,7.6,0
			l37.7,14.9c2.1,0.8,2.1,2.2,0,3L51.1,33.5z"/>
		<path fill="#343433" d="M45.2,94.6c0,2.2-1.7,3.4-3.8,2.6L3.8,82.2C1.7,81.4,0,78.9,0,76.7V24.4c0-2.2,1.7-3.4,3.8-2.6l37.7,14.9
			c2.1,0.8,3.8,3.3,3.8,5.6V94.6z"/>
		<path fill="#CDCCCB" d="M49.4,94.6c0,2.2,1.7,3.4,3.8,2.6l37.7-14.9c2.1-0.8,3.8-3.3,3.8-5.6V24.3c0-2.2-1.7-3.4-3.8-2.6
			L53.2,36.7c-2.1,0.8-3.8,3.3-3.8,5.6V94.6z"/>
	</g>
	<g>
		<path fill="#CDCCCB" d="M721,18.7c10.5,0,17.6,1.6,21.3,4.7c3.8,3.1,5.7,8.8,5.7,17c0,5.7-0.9,10-2.5,12.7
			c-1.7,2.8-4.5,4.7-8.5,5.6c3.5,0.8,6.1,2.3,7.9,4.4c1.7,2.1,2.6,4.8,2.6,8.2v13.4h-20.2v-10c0-2.6-0.6-4.4-1.8-5.4
			c-1.2-0.9-3.7-1.4-7.3-1.4h-29.9v16.8h-20.2V18.7H721z M720.3,35.2h-32v16.2h32c2.7,0,4.6-0.6,5.6-1.9c1.1-1.3,1.6-3.5,1.6-6.8
			c0-2.6-0.6-4.5-1.7-5.7C724.7,35.7,722.8,35.2,720.3,35.2z"/>
		<path fill="#343433" d="M126.6,62.7l19.9,0v1.2c0,2.5,0.6,4.2,1.8,5.1c1.2,0.9,3.8,1.3,7.7,1.3h25.3c2.5,0,4.3-0.4,5.3-1.3
			c1.1-0.8,1.6-2.3,1.6-4.2c0-2-0.6-3.4-1.8-4.3c-1.2-0.9-3.9-1.4-7.9-1.7l-31.6-0.7c-7.9-0.2-13.3-1.7-16.1-4.5
			c-2.8-2.8-4.2-7.9-4.2-15.2c0-3.8,0.4-6.9,1.1-9.3c0.7-2.4,1.9-4.5,3.6-6.1c1.9-1.8,4.4-3.1,7.5-3.9c3.1-0.8,8.2-1.2,15.2-1.2
			h30.7c7.6,0,13.1,1.4,16.4,4.1c3.3,2.8,5,7.3,5,13.5c0,0.4,0,0.9,0,1.3c0,0.5,0,1.2-0.1,2.3h-19.4v-0.3c0-2.2-0.5-3.8-1.6-4.8
			c-1.1-1.1-2.8-1.6-5-1.6h-23.2c-3.9,0-6.4,0.4-7.6,1.1c-1.2,0.8-1.9,2.1-1.9,4c0,1.9,0.6,3.2,1.7,4.1c1.1,0.8,3.2,1.4,6.2,1.6
			l33.1,0.5c7.6,0.2,12.9,1.9,15.9,5.1c3.1,3.2,4.6,8.6,4.6,16.3c0,4.6-0.6,8.1-1.7,10.6c-1.1,2.5-3.1,4.6-5.7,6.4
			c-1.8,1.1-4.2,1.9-7.2,2.4c-3,0.5-7.5,0.7-13.2,0.7H154c-11,0-18.4-1.2-22.1-3.7c-3.7-2.5-5.6-7.1-5.6-13.8c0-0.4,0-1.1,0.1-2
			C126.4,65.1,126.5,64,126.6,62.7z"/>
		<path fill="#343433" d="M215.7,18.7h20.1v39.1c0,4.4,1,7.4,3,8.9c2,1.5,6.4,2.3,13.2,2.3h11.4c5.7,0,9.4-0.8,11.4-2.4
			c1.9-1.6,2.9-4.5,2.9-8.8V18.7h20.2V64c0,7.8-2.1,13.3-6.3,16.6c-4.2,3.2-11.4,4.9-21.7,4.9h-22.5c-12.1,0-20.4-1.6-24.9-4.6
			c-4.5-3.1-6.8-8.7-6.8-16.8V18.7z"/>
		<path fill="#343433" d="M368.8,42.4v-0.2c0-3-0.9-5-2.7-6.1c-1.8-1.1-5.9-1.7-12.4-1.7H342c-6.9,0-11.3,0.8-13.2,2.5
			c-1.9,1.6-2.9,5.1-2.9,10.4v9.2c0,4.7,1.1,8,3.3,9.8c2.2,1.8,6.5,2.6,13,2.6h11.6c5.8,0,9.7-0.5,12-1.6c2.2-1,3.3-2.8,3.3-5.4
			c0-0.4,0-0.9-0.2-1.8c0-0.1,0-0.2,0-0.2h-23.7V46.6h44.7v21.7c0,6.2-2.3,10.7-6.9,13.3c-4.6,2.6-12.6,3.9-24,3.9h-22.4
			c-6.9,0-11.9-0.4-15.2-1.1c-3.3-0.8-6-2-8.3-3.8c-2.7-2.1-4.6-4.7-5.8-7.7c-1.2-3.1-1.8-6.9-1.8-11.6v-18c0-9.4,2.2-16,6.7-19.7
			c4.5-3.7,12.6-5.6,24.3-5.6h22.5c7.3,0,12.7,0.3,16.1,1c3.4,0.7,6.2,1.7,8.2,3.3c2.1,1.6,3.6,3.7,4.6,6.4c1,2.7,1.5,6.1,1.5,10.1
			c0,1,0,1.7,0,2.3c0,0.5-0.1,1-0.1,1.5H368.8z"/>
		<path fill="#343433" d="M411.2,84.6h-22l36-65.9H451l35.4,65.9h-22.1l-6.4-11h-40.2L411.2,84.6z M425.3,57.8h25.3l-12.8-23.3
			L425.3,57.8z"/>
		<path fill="#343433" d="M541.7,18.7c10.5,0,17.6,1.6,21.4,4.7c3.8,3.1,5.7,8.8,5.7,17c0,5.7-0.8,10-2.5,12.7
			c-1.7,2.8-4.5,4.7-8.5,5.6c3.5,0.8,6.1,2.3,7.9,4.4c1.8,2.1,2.6,4.8,2.6,8.2v13.4h-20.2v-10c0-2.6-0.6-4.4-1.8-5.4
			c-1.2-0.9-3.6-1.4-7.3-1.4h-30v16.8h-20.2V18.7H541.7z M541,35.2h-32v16.2h32c2.7,0,4.6-0.6,5.6-1.9c1.1-1.3,1.6-3.5,1.6-6.8
			c0-2.6-0.6-4.5-1.7-5.7C545.3,35.7,543.5,35.2,541,35.2z"/>
		<path fill="#CDCCCB" d="M640.1,42.6v-0.7c0-2.6-0.8-4.5-2.5-5.7c-1.7-1.2-4.4-1.8-8.1-1.8h-16.1c-6.9,0-11.3,0.8-13.3,2.5
			c-2,1.7-2.9,5.2-2.9,10.5v9.1c0,4.7,1.1,8,3.3,9.8c2.2,1.8,6.5,2.6,12.9,2.6H625c6.4,0,10.6-0.6,12.6-1.9c2-1.3,3-3.7,3-7.2v-0.7
			H661c0,0.1,0,0.2,0,0.5c0.1,1.9,0.2,3.4,0.2,4.3c0,4.2-0.5,7.7-1.6,10.5c-1,2.8-2.7,4.9-5,6.6c-2.2,1.6-5,2.7-8.6,3.4
			c-3.6,0.7-8.9,1-15.8,1h-22.5c-6.9,0-12-0.4-15.2-1.1c-3.3-0.8-6-2-8.3-3.8c-2.7-2.1-4.6-4.7-5.8-7.7c-1.2-3.1-1.8-6.9-1.8-11.6
			V43.4c0-9.5,2.3-16.1,6.7-19.8c4.5-3.8,12.6-5.6,24.4-5.6h22.5c7.2,0,12.6,0.3,16,1c3.4,0.7,6.1,1.7,8.1,3.3
			c2.1,1.6,3.6,3.7,4.7,6.5c1,2.7,1.5,6.1,1.5,10.2c0,1,0,1.7,0,2.3c0,0.5-0.1,1-0.1,1.5H640.1z"/>
		<path fill="#CDCCCB" d="M776.1,84.6h-19.6V18.7h29.8l23.5,41.1l23.9-41.1H863v65.9h-19.5v-47l-27.2,47h-13.2l-27-47V84.6z"/>
	</g>
	<g>
		<path fill="#CDCCCB" d="M871,75.6c2.5,0,4.4,2,4.4,4.5c0,2.6-2,4.5-4.5,4.5c-2.5,0-4.5-2-4.5-4.5C866.5,77.6,868.5,75.6,871,75.6
			L871,75.6z M871,76.3c-2,0-3.6,1.7-3.6,3.8c0,2.1,1.6,3.8,3.6,3.8c2,0,3.6-1.7,3.6-3.8C874.6,78,873,76.3,871,76.3L871,76.3z
			 M870.1,82.7h-0.8v-5c0.4-0.1,0.8-0.1,1.4-0.1c0.8,0,1.3,0.2,1.6,0.4c0.3,0.2,0.5,0.6,0.5,1c0,0.7-0.4,1.1-1,1.2v0
			c0.4,0.1,0.7,0.5,0.8,1.2c0.1,0.8,0.2,1.1,0.3,1.2h-0.8c-0.1-0.2-0.2-0.6-0.3-1.3c-0.1-0.6-0.4-0.9-1.1-0.9h-0.6V82.7z M870.1,80
			h0.6c0.7,0,1.2-0.2,1.2-0.9c0-0.4-0.3-0.9-1.2-0.9c-0.3,0-0.4,0-0.6,0V80z"/>
	</g>
</g>
</svg>
