<svg xmlns="http://www.w3.org/2000/svg" width="512" height="512" viewBox="0 0 512 512"><path fill="#9B5C8F" d="M98 140.5h315.9c20 0 36.2 16.2 36.2 36.2v120.6c0 20-16.2 36.2-36.2 36.2H300.6l15.5 38.1-68.4-38.1H98.1c-20 0-36.2-16.2-36.2-36.2V176.7c-.1-19.9 16.1-36.2 36.1-36.2z"/><path fill="#FFF" d="M81.3 173.3c2.2-3 5.6-4.6 10-4.9 8.1-.6 12.7 3.2 13.8 11.4 4.9 33.2 10.3 61.2 16 84.3l34.7-66.2c3.2-6 7.1-9.2 11.9-9.5 7-.5 11.3 4 13 13.3 4 21.1 9 39 15.1 54.3 4.1-40.3 11.1-69.3 20.9-87.3 2.4-4.4 5.9-6.7 10.5-7 3.6-.3 7 .8 10 3.2 3 2.4 4.6 5.4 4.9 9 .2 2.9-.3 5.2-1.6 7.6-6.2 11.4-11.3 30.6-15.4 57.3-4 25.9-5.4 46-4.4 60.5.3 4-.3 7.5-1.9 10.5-1.9 3.5-4.8 5.4-8.4 5.7-4.1.3-8.4-1.6-12.5-5.9-14.8-15.1-26.5-37.6-35.1-67.6-10.3 20.3-17.9 35.5-22.8 45.7-9.4 17.9-17.3 27.1-24 27.6-4.3.3-7.9-3.3-11.1-10.9-8.1-20.8-16.8-60.9-26.2-120.4-.4-4.2.4-7.8 2.6-10.7zM422.4 198.2c-5.7-10-14.1-16-25.4-18.4-3-.6-5.9-1-8.6-1-15.2 0-27.6 7.9-37.3 23.8-8.3 13.5-12.4 28.4-12.4 44.7 0 12.2 2.5 22.7 7.6 31.4 5.7 10 14.1 16 25.4 18.4 3 .6 5.9 1 8.6 1 15.4 0 27.8-7.9 37.3-23.8 8.3-13.6 12.4-28.6 12.4-44.9.1-12.3-2.5-22.6-7.6-31.2zm-19.9 44c-2.2 10.5-6.2 18.2-12.1 23.5-4.6 4.1-8.9 5.9-12.9 5.1-3.8-.8-7-4.1-9.4-10.3-1.9-4.9-2.9-9.8-2.9-14.4 0-4 .3-7.9 1.1-11.6 1.4-6.5 4.1-12.9 8.4-18.9 5.2-7.8 10.8-10.9 16.5-9.8 3.8.8 7 4.1 9.4 10.3 1.9 4.9 2.9 9.8 2.9 14.4.1 4.1-.4 8-1 11.7zM323 198.2c-5.7-10-14.3-16-25.4-18.4-3-.6-5.9-1-8.6-1-15.2 0-27.6 7.9-37.3 23.8-8.3 13.5-12.4 28.4-12.4 44.7 0 12.2 2.5 22.7 7.6 31.4 5.7 10 14.1 16 25.4 18.4 3 .6 5.9 1 8.6 1 15.4 0 27.8-7.9 37.3-23.8 8.3-13.6 12.4-28.6 12.4-44.9 0-12.3-2.6-22.6-7.6-31.2zm-20 44c-2.2 10.5-6.2 18.2-12.1 23.5-4.6 4.1-8.9 5.9-12.9 5.1-3.8-.8-7-4.1-9.4-10.3-1.9-4.9-2.9-9.8-2.9-14.4 0-4 .3-7.9 1.1-11.6 1.4-6.5 4.1-12.9 8.4-18.9 5.2-7.8 10.8-10.9 16.5-9.8 3.8.8 7 4.1 9.4 10.3 1.9 4.9 2.9 9.8 2.9 14.4.1 4.1-.2 8-1 11.7z"/></svg>